M48
; DRILL file {KiCad 8.0.0} date 2025-04-02T00:38:03+0200
; FORMAT={-:-/ absolute / inch / decimal}
; #@! TF.CreationDate,2025-04-02T00:38:03+02:00
; #@! TF.GenerationSoftware,Kicad,Pcbnew,8.0.0
; #@! TF.FileFunction,Plated,1,2,PTH
FMAT,2
INCH
; #@! TA.AperFunction,Plated,PTH,ViaDrill
T1C0.0118
; #@! TA.AperFunction,Plated,PTH,ViaDrill
T2C0.0157
; #@! TA.AperFunction,Plated,PTH,ViaDrill
T3C0.0197
; #@! TA.AperFunction,Plated,PTH,ComponentDrill
T4C0.0295
; #@! TA.AperFunction,Plated,PTH,ComponentDrill
T5C0.0315
; #@! TA.AperFunction,Plated,PTH,ComponentDrill
T6C0.0354
; #@! TA.AperFunction,Plated,PTH,ComponentDrill
T7C0.0394
; #@! TA.AperFunction,Plated,PTH,ComponentDrill
T8C0.0433
; #@! TA.AperFunction,Plated,PTH,ComponentDrill
T9C0.0787
; #@! TA.AperFunction,Plated,PTH,ViaDrill
T10C0.1575
; #@! TA.AperFunction,Plated,PTH,ComponentDrill
T11C0.1772
%
G90
G05
T1
X2.96Y-4.55
X3.875Y-5.015
X4.67Y-3.19
X4.75Y-4.94
X4.8318Y-2.6418
X4.8341Y-2.5359
X4.8595Y-2.7705
X4.98Y-3.22
X5.05Y-3.68
X5.23Y-3.15
X5.29Y-3.1
X5.34Y-4.44
X5.34Y-4.68
X5.35Y-2.98
X5.35Y-3.06
T2
X2.37Y-2.42
T3
X2.36Y-2.99
X2.42Y-5.41
X2.42Y-5.47
X2.57Y-3.75
X2.57Y-4.22
X2.57Y-4.28
X2.57Y-4.69
X2.8Y-2.18
X2.8Y-2.91
X2.83Y-3.72
X3.06Y-4.5
X3.06Y-4.56
X3.08Y-4.12
X3.29Y-3.3
X3.64Y-3.35
X3.73Y-5.02
X3.73Y-5.23
X3.73Y-5.37
X3.98Y-2.26
X3.98Y-2.66
X3.98Y-5.24
X3.98Y-5.37
X4.33Y-5.04
X4.34Y-3.16
X4.35Y-4.86
X4.56Y-3.4
X4.61Y-2.26
X4.61Y-2.39
X4.61Y-2.49
X4.61Y-2.59
X4.61Y-2.69
X4.61Y-2.8
X4.73Y-2.09
X4.73Y-4.48
X4.74Y-3.8
X4.75Y-3.01
X4.75Y-3.28
X4.75Y-4.87
X4.96Y-3.15
X5.01Y-4.17
X5.01Y-4.23
X5.01Y-4.29
X5.19Y-2.89
X5.29Y-2.89
X5.29Y-4.18
X5.33Y-4.77
X5.37Y-2.34
X5.4Y-3.12
X5.42Y-3.76
X5.43Y-2.95
X5.5Y-2.09
X5.53Y-2.825
X5.53Y-5.07
X5.53Y-5.15
X5.53Y-5.22
X5.53Y-5.46
X5.57Y-3.48
X5.73Y-2.91
T4
X2.4462Y-2.5714
X2.4962Y-2.5714
X2.52Y-4.8936
X2.5462Y-2.5714
X2.57Y-4.8936
X2.62Y-4.8936
X3.68Y-2.67
X3.73Y-2.67
X3.78Y-2.67
X5.32Y-4.8936
X5.37Y-4.8936
X5.3862Y-2.5736
X5.42Y-4.8936
X5.4362Y-2.5736
X5.4862Y-2.5736
T5
X4.6662Y-5.2036
X4.7646Y-5.2036
X5.4156Y-3.3236
X5.4156Y-3.6236
X5.5156Y-3.3236
X5.5156Y-3.6236
X5.6156Y-3.3236
X5.6156Y-3.6236
T6
X2.2266Y-2.2436
X2.3266Y-2.2436
X2.3762Y-5.7186
X2.4762Y-5.7186
X5.4762Y-5.7136
X5.5762Y-5.7136
X5.6062Y-2.2436
X5.7062Y-2.2436
T7
X2.3262Y-3.8336
X2.3262Y-3.9336
X2.3262Y-4.0336
X2.3262Y-4.1336
X2.3262Y-4.2336
X2.3262Y-4.3336
X2.3262Y-4.4336
X2.3262Y-4.5336
X2.8262Y-3.832
X2.8262Y-3.932
X2.8262Y-4.032
X2.8262Y-4.132
X2.8262Y-4.232
X2.8262Y-4.332
X2.8262Y-4.432
X2.8262Y-4.532
X3.4152Y-2.0418
X3.4152Y-2.1418
X3.4152Y-2.2418
X3.4152Y-2.3418
X3.4152Y-2.4418
X3.4152Y-2.5418
X3.4152Y-2.6418
X3.4152Y-2.7418
X3.4152Y-2.8418
X3.4152Y-2.9418
X3.4152Y-3.0418
X3.6652Y-2.9418
X3.6652Y-3.0418
X3.7652Y-2.9418
X3.7652Y-3.0418
X3.827Y-2.3436
X3.8652Y-2.9418
X3.8652Y-3.0418
X3.8712Y-5.7136
X3.9652Y-2.9418
X3.9652Y-3.0418
X3.9712Y-5.7136
X4.0652Y-2.9418
X4.0652Y-3.0418
X4.0712Y-5.7136
X4.1262Y-2.3436
X4.1652Y-2.9418
X4.1652Y-3.0418
X4.2652Y-2.9418
X4.2652Y-3.0418
X4.5152Y-2.0418
X4.5152Y-2.1418
X4.5152Y-2.2418
X4.5152Y-2.3418
X4.5152Y-2.4418
X4.5152Y-2.5418
X4.5152Y-2.6418
X4.5152Y-2.7418
X4.5152Y-2.8418
X4.5152Y-2.9418
X4.5152Y-3.0418
X4.915Y-2.165
X4.915Y-2.265
X5.015Y-2.165
X5.015Y-2.265
X5.1062Y-3.8336
X5.1062Y-3.9336
X5.1062Y-4.0336
X5.1062Y-4.1336
X5.1062Y-4.2336
X5.1062Y-4.3336
X5.1062Y-4.4336
X5.1062Y-4.5336
X5.115Y-2.165
X5.115Y-2.265
X5.215Y-2.165
X5.215Y-2.265
X5.6062Y-3.8336
X5.6062Y-3.9336
X5.6062Y-4.0336
X5.6062Y-4.1336
X5.6062Y-4.2336
X5.6062Y-4.3336
X5.6062Y-4.4336
X5.6062Y-4.5336
T8
X2.2703Y-3.3641
X2.2703Y-3.5413
X2.5262Y-3.3641
X2.5262Y-3.5413
X4.2962Y-5.427
X4.3962Y-5.427
X4.4962Y-5.427
T9
X3.1762Y-2.8236
X3.1762Y-5.4436
X3.182Y-5.1236
X4.1104Y-5.1236
X4.7589Y-2.8235
X4.7612Y-5.4436
T10
X2.8939Y-2.5856
X2.8939Y-3.3927
X2.8962Y-4.8709
X2.8962Y-5.678
X5.0402Y-2.5883
X5.0402Y-3.3954
X5.0423Y-4.8683
X5.0423Y-5.6754
T11
X3.3033Y-5.7245
X3.5868Y-5.7245
X4.3565Y-5.7245
X4.64Y-5.7245
M30
