%TF.GenerationSoftware,KiCad,Pcbnew,8.0.0*%
%TF.CreationDate,2025-04-02T00:38:04+02:00*%
%TF.ProjectId,puszek,7075737a-656b-42e6-9b69-6361645f7063,rev?*%
%TF.SameCoordinates,Original*%
%TF.FileFunction,Legend,Bot*%
%TF.FilePolarity,Positive*%
%FSLAX46Y46*%
G04 Gerber Fmt 4.6, Leading zero omitted, Abs format (unit mm)*
G04 Created by KiCad (PCBNEW 8.0.0) date 2025-04-02 00:38:04*
%MOMM*%
%LPD*%
G01*
G04 APERTURE LIST*
%ADD10C,0.150000*%
%ADD11C,0.120000*%
G04 APERTURE END LIST*
D10*
X74972506Y-148821819D02*
X74972506Y-149536104D01*
X74972506Y-149536104D02*
X75020125Y-149678961D01*
X75020125Y-149678961D02*
X75115363Y-149774200D01*
X75115363Y-149774200D02*
X75258220Y-149821819D01*
X75258220Y-149821819D02*
X75353458Y-149821819D01*
X74020125Y-149821819D02*
X74496315Y-149821819D01*
X74496315Y-149821819D02*
X74496315Y-148821819D01*
X73115363Y-149726580D02*
X73162982Y-149774200D01*
X73162982Y-149774200D02*
X73305839Y-149821819D01*
X73305839Y-149821819D02*
X73401077Y-149821819D01*
X73401077Y-149821819D02*
X73543934Y-149774200D01*
X73543934Y-149774200D02*
X73639172Y-149678961D01*
X73639172Y-149678961D02*
X73686791Y-149583723D01*
X73686791Y-149583723D02*
X73734410Y-149393247D01*
X73734410Y-149393247D02*
X73734410Y-149250390D01*
X73734410Y-149250390D02*
X73686791Y-149059914D01*
X73686791Y-149059914D02*
X73639172Y-148964676D01*
X73639172Y-148964676D02*
X73543934Y-148869438D01*
X73543934Y-148869438D02*
X73401077Y-148821819D01*
X73401077Y-148821819D02*
X73305839Y-148821819D01*
X73305839Y-148821819D02*
X73162982Y-148869438D01*
X73162982Y-148869438D02*
X73115363Y-148917057D01*
X72401077Y-148821819D02*
X72401077Y-149536104D01*
X72401077Y-149536104D02*
X72448696Y-149678961D01*
X72448696Y-149678961D02*
X72543934Y-149774200D01*
X72543934Y-149774200D02*
X72686791Y-149821819D01*
X72686791Y-149821819D02*
X72782029Y-149821819D01*
X71448696Y-149821819D02*
X71924886Y-149821819D01*
X71924886Y-149821819D02*
X71924886Y-148821819D01*
X70543934Y-149726580D02*
X70591553Y-149774200D01*
X70591553Y-149774200D02*
X70734410Y-149821819D01*
X70734410Y-149821819D02*
X70829648Y-149821819D01*
X70829648Y-149821819D02*
X70972505Y-149774200D01*
X70972505Y-149774200D02*
X71067743Y-149678961D01*
X71067743Y-149678961D02*
X71115362Y-149583723D01*
X71115362Y-149583723D02*
X71162981Y-149393247D01*
X71162981Y-149393247D02*
X71162981Y-149250390D01*
X71162981Y-149250390D02*
X71115362Y-149059914D01*
X71115362Y-149059914D02*
X71067743Y-148964676D01*
X71067743Y-148964676D02*
X70972505Y-148869438D01*
X70972505Y-148869438D02*
X70829648Y-148821819D01*
X70829648Y-148821819D02*
X70734410Y-148821819D01*
X70734410Y-148821819D02*
X70591553Y-148869438D01*
X70591553Y-148869438D02*
X70543934Y-148917057D01*
X69829648Y-148821819D02*
X69829648Y-149536104D01*
X69829648Y-149536104D02*
X69877267Y-149678961D01*
X69877267Y-149678961D02*
X69972505Y-149774200D01*
X69972505Y-149774200D02*
X70115362Y-149821819D01*
X70115362Y-149821819D02*
X70210600Y-149821819D01*
X68877267Y-149821819D02*
X69353457Y-149821819D01*
X69353457Y-149821819D02*
X69353457Y-148821819D01*
X67972505Y-149726580D02*
X68020124Y-149774200D01*
X68020124Y-149774200D02*
X68162981Y-149821819D01*
X68162981Y-149821819D02*
X68258219Y-149821819D01*
X68258219Y-149821819D02*
X68401076Y-149774200D01*
X68401076Y-149774200D02*
X68496314Y-149678961D01*
X68496314Y-149678961D02*
X68543933Y-149583723D01*
X68543933Y-149583723D02*
X68591552Y-149393247D01*
X68591552Y-149393247D02*
X68591552Y-149250390D01*
X68591552Y-149250390D02*
X68543933Y-149059914D01*
X68543933Y-149059914D02*
X68496314Y-148964676D01*
X68496314Y-148964676D02*
X68401076Y-148869438D01*
X68401076Y-148869438D02*
X68258219Y-148821819D01*
X68258219Y-148821819D02*
X68162981Y-148821819D01*
X68162981Y-148821819D02*
X68020124Y-148869438D01*
X68020124Y-148869438D02*
X67972505Y-148917057D01*
X67258219Y-148821819D02*
X67258219Y-149536104D01*
X67258219Y-149536104D02*
X67305838Y-149678961D01*
X67305838Y-149678961D02*
X67401076Y-149774200D01*
X67401076Y-149774200D02*
X67543933Y-149821819D01*
X67543933Y-149821819D02*
X67639171Y-149821819D01*
X66305838Y-149821819D02*
X66782028Y-149821819D01*
X66782028Y-149821819D02*
X66782028Y-148821819D01*
X65401076Y-149726580D02*
X65448695Y-149774200D01*
X65448695Y-149774200D02*
X65591552Y-149821819D01*
X65591552Y-149821819D02*
X65686790Y-149821819D01*
X65686790Y-149821819D02*
X65829647Y-149774200D01*
X65829647Y-149774200D02*
X65924885Y-149678961D01*
X65924885Y-149678961D02*
X65972504Y-149583723D01*
X65972504Y-149583723D02*
X66020123Y-149393247D01*
X66020123Y-149393247D02*
X66020123Y-149250390D01*
X66020123Y-149250390D02*
X65972504Y-149059914D01*
X65972504Y-149059914D02*
X65924885Y-148964676D01*
X65924885Y-148964676D02*
X65829647Y-148869438D01*
X65829647Y-148869438D02*
X65686790Y-148821819D01*
X65686790Y-148821819D02*
X65591552Y-148821819D01*
X65591552Y-148821819D02*
X65448695Y-148869438D01*
X65448695Y-148869438D02*
X65401076Y-148917057D01*
X80304819Y-60984333D02*
X79828628Y-60651000D01*
X80304819Y-60412905D02*
X79304819Y-60412905D01*
X79304819Y-60412905D02*
X79304819Y-60793857D01*
X79304819Y-60793857D02*
X79352438Y-60889095D01*
X79352438Y-60889095D02*
X79400057Y-60936714D01*
X79400057Y-60936714D02*
X79495295Y-60984333D01*
X79495295Y-60984333D02*
X79638152Y-60984333D01*
X79638152Y-60984333D02*
X79733390Y-60936714D01*
X79733390Y-60936714D02*
X79781009Y-60889095D01*
X79781009Y-60889095D02*
X79828628Y-60793857D01*
X79828628Y-60793857D02*
X79828628Y-60412905D01*
X79304819Y-61317667D02*
X79304819Y-61984333D01*
X79304819Y-61984333D02*
X80304819Y-61555762D01*
X80304819Y-65272333D02*
X79828628Y-64939000D01*
X80304819Y-64700905D02*
X79304819Y-64700905D01*
X79304819Y-64700905D02*
X79304819Y-65081857D01*
X79304819Y-65081857D02*
X79352438Y-65177095D01*
X79352438Y-65177095D02*
X79400057Y-65224714D01*
X79400057Y-65224714D02*
X79495295Y-65272333D01*
X79495295Y-65272333D02*
X79638152Y-65272333D01*
X79638152Y-65272333D02*
X79733390Y-65224714D01*
X79733390Y-65224714D02*
X79781009Y-65177095D01*
X79781009Y-65177095D02*
X79828628Y-65081857D01*
X79828628Y-65081857D02*
X79828628Y-64700905D01*
X79733390Y-65843762D02*
X79685771Y-65748524D01*
X79685771Y-65748524D02*
X79638152Y-65700905D01*
X79638152Y-65700905D02*
X79542914Y-65653286D01*
X79542914Y-65653286D02*
X79495295Y-65653286D01*
X79495295Y-65653286D02*
X79400057Y-65700905D01*
X79400057Y-65700905D02*
X79352438Y-65748524D01*
X79352438Y-65748524D02*
X79304819Y-65843762D01*
X79304819Y-65843762D02*
X79304819Y-66034238D01*
X79304819Y-66034238D02*
X79352438Y-66129476D01*
X79352438Y-66129476D02*
X79400057Y-66177095D01*
X79400057Y-66177095D02*
X79495295Y-66224714D01*
X79495295Y-66224714D02*
X79542914Y-66224714D01*
X79542914Y-66224714D02*
X79638152Y-66177095D01*
X79638152Y-66177095D02*
X79685771Y-66129476D01*
X79685771Y-66129476D02*
X79733390Y-66034238D01*
X79733390Y-66034238D02*
X79733390Y-65843762D01*
X79733390Y-65843762D02*
X79781009Y-65748524D01*
X79781009Y-65748524D02*
X79828628Y-65700905D01*
X79828628Y-65700905D02*
X79923866Y-65653286D01*
X79923866Y-65653286D02*
X80114342Y-65653286D01*
X80114342Y-65653286D02*
X80209580Y-65700905D01*
X80209580Y-65700905D02*
X80257200Y-65748524D01*
X80257200Y-65748524D02*
X80304819Y-65843762D01*
X80304819Y-65843762D02*
X80304819Y-66034238D01*
X80304819Y-66034238D02*
X80257200Y-66129476D01*
X80257200Y-66129476D02*
X80209580Y-66177095D01*
X80209580Y-66177095D02*
X80114342Y-66224714D01*
X80114342Y-66224714D02*
X79923866Y-66224714D01*
X79923866Y-66224714D02*
X79828628Y-66177095D01*
X79828628Y-66177095D02*
X79781009Y-66129476D01*
X79781009Y-66129476D02*
X79733390Y-66034238D01*
D11*
%TO.C,J14*%
X123511000Y-56261000D02*
X123511000Y-53661000D01*
X123511000Y-56261000D02*
X126111000Y-56261000D01*
X123511000Y-58861000D02*
X123511000Y-57531000D01*
X123511000Y-58861000D02*
X124841000Y-58861000D01*
X126111000Y-58861000D02*
X126111000Y-56261000D01*
X133791000Y-53661000D02*
X123511000Y-53661000D01*
X133791000Y-58861000D02*
X126111000Y-58861000D01*
X133791000Y-58861000D02*
X133791000Y-53661000D01*
%TO.C,R7*%
X80757500Y-61388258D02*
X80757500Y-60913742D01*
X81802500Y-61388258D02*
X81802500Y-60913742D01*
%TO.C,R8*%
X80757500Y-65676258D02*
X80757500Y-65201742D01*
X81802500Y-65676258D02*
X81802500Y-65201742D01*
%TD*%
M02*
