%TF.GenerationSoftware,KiCad,Pcbnew,8.0.0*%
%TF.CreationDate,2025-04-02T00:38:04+02:00*%
%TF.ProjectId,puszek,7075737a-656b-42e6-9b69-6361645f7063,rev?*%
%TF.SameCoordinates,Original*%
%TF.FileFunction,Copper,L2,Bot*%
%TF.FilePolarity,Positive*%
%FSLAX46Y46*%
G04 Gerber Fmt 4.6, Leading zero omitted, Abs format (unit mm)*
G04 Created by KiCad (PCBNEW 8.0.0) date 2025-04-02 00:38:04*
%MOMM*%
%LPD*%
G01*
G04 APERTURE LIST*
G04 Aperture macros list*
%AMRoundRect*
0 Rectangle with rounded corners*
0 $1 Rounding radius*
0 $2 $3 $4 $5 $6 $7 $8 $9 X,Y pos of 4 corners*
0 Add a 4 corners polygon primitive as box body*
4,1,4,$2,$3,$4,$5,$6,$7,$8,$9,$2,$3,0*
0 Add four circle primitives for the rounded corners*
1,1,$1+$1,$2,$3*
1,1,$1+$1,$4,$5*
1,1,$1+$1,$6,$7*
1,1,$1+$1,$8,$9*
0 Add four rect primitives between the rounded corners*
20,1,$1+$1,$2,$3,$4,$5,0*
20,1,$1+$1,$4,$5,$6,$7,0*
20,1,$1+$1,$6,$7,$8,$9,0*
20,1,$1+$1,$8,$9,$2,$3,0*%
G04 Aperture macros list end*
%TA.AperFunction,ComponentPad*%
%ADD10R,1.800000X1.800000*%
%TD*%
%TA.AperFunction,ComponentPad*%
%ADD11C,1.800000*%
%TD*%
%TA.AperFunction,ComponentPad*%
%ADD12C,2.000000*%
%TD*%
%TA.AperFunction,ComponentPad*%
%ADD13RoundRect,1.500000X1.500000X1.500000X-1.500000X1.500000X-1.500000X-1.500000X1.500000X-1.500000X0*%
%TD*%
%TA.AperFunction,ComponentPad*%
%ADD14C,6.000000*%
%TD*%
%TA.AperFunction,ComponentPad*%
%ADD15R,1.905000X2.000000*%
%TD*%
%TA.AperFunction,ComponentPad*%
%ADD16O,1.905000X2.000000*%
%TD*%
%TA.AperFunction,ComponentPad*%
%ADD17R,3.000000X3.000000*%
%TD*%
%TA.AperFunction,ComponentPad*%
%ADD18R,1.050000X1.500000*%
%TD*%
%TA.AperFunction,ComponentPad*%
%ADD19O,1.050000X1.500000*%
%TD*%
%TA.AperFunction,ComponentPad*%
%ADD20R,1.700000X1.700000*%
%TD*%
%TA.AperFunction,ComponentPad*%
%ADD21O,1.700000X1.700000*%
%TD*%
%TA.AperFunction,ComponentPad*%
%ADD22R,1.600000X1.600000*%
%TD*%
%TA.AperFunction,ComponentPad*%
%ADD23C,1.600000*%
%TD*%
%TA.AperFunction,ComponentPad*%
%ADD24R,2.000000X2.000000*%
%TD*%
%TA.AperFunction,ComponentPad*%
%ADD25O,1.600000X1.600000*%
%TD*%
%TA.AperFunction,ComponentPad*%
%ADD26C,3.000000*%
%TD*%
%TA.AperFunction,ComponentPad*%
%ADD27RoundRect,1.500000X-1.500000X-1.500000X1.500000X-1.500000X1.500000X1.500000X-1.500000X1.500000X0*%
%TD*%
%TA.AperFunction,SMDPad,CuDef*%
%ADD28RoundRect,0.200000X-0.275000X0.200000X-0.275000X-0.200000X0.275000X-0.200000X0.275000X0.200000X0*%
%TD*%
%TA.AperFunction,ViaPad*%
%ADD29C,1.000000*%
%TD*%
%TA.AperFunction,ViaPad*%
%ADD30C,5.500000*%
%TD*%
%TA.AperFunction,ViaPad*%
%ADD31C,0.800000*%
%TD*%
%TA.AperFunction,ViaPad*%
%ADD32C,0.600000*%
%TD*%
%TA.AperFunction,Conductor*%
%ADD33C,0.500000*%
%TD*%
%TA.AperFunction,Conductor*%
%ADD34C,2.000000*%
%TD*%
%TA.AperFunction,Conductor*%
%ADD35C,5.000000*%
%TD*%
G04 APERTURE END LIST*
D10*
%TO.P,D4,1,K*%
%TO.N,Net-(D4-K)*%
X59095000Y-56988000D03*
D11*
%TO.P,D4,2,A*%
%TO.N,Net-(D4-A)*%
X56555000Y-56988000D03*
%TD*%
D12*
%TO.P,SW1,1,1*%
%TO.N,GND*%
X64165000Y-89949000D03*
X57665000Y-89949000D03*
%TO.P,SW1,2,2*%
%TO.N,EN*%
X64165000Y-85449000D03*
X57665000Y-85449000D03*
%TD*%
D13*
%TO.P,J12,1,Pin_1*%
%TO.N,GND*%
X117855000Y-145402000D03*
D14*
%TO.P,J12,2,Pin_2*%
%TO.N,+BATT*%
X110655000Y-145402000D03*
%TD*%
D15*
%TO.P,U8,1,VI*%
%TO.N,+BATT*%
X109123001Y-137846000D03*
D16*
%TO.P,U8,2,GND*%
%TO.N,GND*%
X111663001Y-137846000D03*
%TO.P,U8,3,VO*%
%TO.N,+3V3*%
X114203001Y-137846000D03*
%TD*%
D10*
%TO.P,D3,1,K*%
%TO.N,Net-(D3-K)*%
X144937000Y-56988000D03*
D11*
%TO.P,D3,2,A*%
%TO.N,Net-(D3-A)*%
X142397000Y-56988000D03*
%TD*%
D17*
%TO.P,J2,1,Pin_1*%
%TO.N,AO2*%
X120875000Y-71716000D03*
%TD*%
D18*
%TO.P,Q1,1,C*%
%TO.N,Net-(D1-K)*%
X64008000Y-124298000D03*
D19*
%TO.P,Q1,2,B*%
%TO.N,LED_RED_1*%
X65278000Y-124298000D03*
%TO.P,Q1,3,E*%
%TO.N,GND*%
X66548000Y-124298000D03*
%TD*%
D20*
%TO.P,J5,1,Pin_1*%
%TO.N,PWMA*%
X142397000Y-97374000D03*
D21*
%TO.P,J5,2,Pin_2*%
%TO.N,AIN2*%
X142397000Y-99914000D03*
%TO.P,J5,3,Pin_3*%
%TO.N,AIN1*%
X142397000Y-102454000D03*
%TO.P,J5,4,Pin_4*%
%TO.N,EN_ENG_A*%
X142397000Y-104994000D03*
%TO.P,J5,5,Pin_5*%
%TO.N,AIN1*%
X142397000Y-107534000D03*
%TO.P,J5,6,Pin_6*%
%TO.N,AIN2*%
X142397000Y-110074000D03*
%TO.P,J5,7,Pin_7*%
%TO.N,PWMA*%
X142397000Y-112614000D03*
%TO.P,J5,8,Pin_8*%
%TO.N,GND*%
X142397000Y-115154000D03*
%TD*%
D18*
%TO.P,Q5,1,C*%
%TO.N,Net-(BZ1--)*%
X96012000Y-67818000D03*
D19*
%TO.P,Q5,2,B*%
%TO.N,BUZZER*%
X94742000Y-67818000D03*
%TO.P,Q5,3,E*%
%TO.N,GND*%
X93472000Y-67818000D03*
%TD*%
D18*
%TO.P,Q4,1,C*%
%TO.N,Net-(D4-K)*%
X64673000Y-65314000D03*
D19*
%TO.P,Q4,2,B*%
%TO.N,LED_WHITE_1*%
X63403000Y-65314000D03*
%TO.P,Q4,3,E*%
%TO.N,GND*%
X62133000Y-65314000D03*
%TD*%
D17*
%TO.P,J6,1,Pin_1*%
%TO.N,BO1*%
X80675000Y-138268000D03*
%TD*%
D18*
%TO.P,Q2,1,C*%
%TO.N,Net-(D2-K)*%
X135128000Y-124298000D03*
D19*
%TO.P,Q2,2,B*%
%TO.N,LED_RED_2*%
X136398000Y-124298000D03*
%TO.P,Q2,3,E*%
%TO.N,GND*%
X137668000Y-124298000D03*
%TD*%
D22*
%TO.P,C2,1*%
%TO.N,+3V3*%
X121021000Y-132172000D03*
D23*
%TO.P,C2,2*%
%TO.N,GND*%
X118521000Y-132172000D03*
%TD*%
D10*
%TO.P,D2,1,K*%
%TO.N,Net-(D2-K)*%
X141635000Y-145126000D03*
D11*
%TO.P,D2,2,A*%
%TO.N,Net-(D2-A)*%
X139095000Y-145126000D03*
%TD*%
D24*
%TO.P,BZ1,1,+*%
%TO.N,Net-(BZ1-+)*%
X104805000Y-59528000D03*
D12*
%TO.P,BZ1,2,-*%
%TO.N,Net-(BZ1--)*%
X97205000Y-59528000D03*
%TD*%
D17*
%TO.P,J10,1,Pin_1*%
%TO.N,AO1*%
X120935000Y-138268000D03*
%TD*%
D18*
%TO.P,Q3,1,C*%
%TO.N,Net-(D3-K)*%
X139349000Y-65370000D03*
D19*
%TO.P,Q3,2,B*%
%TO.N,LED_WHITE_2*%
X138079000Y-65370000D03*
%TO.P,Q3,3,E*%
%TO.N,GND*%
X136809000Y-65370000D03*
%TD*%
D20*
%TO.P,J1,1,Pin_1*%
%TO.N,GND*%
X59085000Y-97374000D03*
D21*
%TO.P,J1,2,Pin_2*%
%TO.N,+3V3*%
X59085000Y-99914000D03*
%TO.P,J1,3,Pin_3*%
%TO.N,BO1*%
X59085000Y-102454000D03*
%TO.P,J1,4,Pin_4*%
%TO.N,BO2*%
X59085000Y-104994000D03*
%TO.P,J1,5,Pin_5*%
X59085000Y-107534000D03*
%TO.P,J1,6,Pin_6*%
%TO.N,BO1*%
X59085000Y-110074000D03*
%TO.P,J1,7,Pin_7*%
%TO.N,+BATT*%
X59085000Y-112614000D03*
%TO.P,J1,8,Pin_8*%
%TO.N,GND*%
X59085000Y-115154000D03*
%TD*%
D20*
%TO.P,J14,1,Pin_1*%
%TO.N,+3V3*%
X124841000Y-57531000D03*
D21*
%TO.P,J14,2,Pin_2*%
%TO.N,IO3*%
X124841000Y-54991000D03*
%TO.P,J14,3,Pin_3*%
%TO.N,unconnected-(J14-Pin_3-Pad3)*%
X127381000Y-57531000D03*
%TO.P,J14,4,Pin_4*%
%TO.N,IO0*%
X127381000Y-54991000D03*
%TO.P,J14,5,Pin_5*%
%TO.N,EN*%
X129921000Y-57531000D03*
%TO.P,J14,6,Pin_6*%
%TO.N,unconnected-(J14-Pin_6-Pad6)*%
X129921000Y-54991000D03*
%TO.P,J14,7,Pin_7*%
%TO.N,IO1*%
X132461000Y-57531000D03*
%TO.P,J14,8,Pin_8*%
%TO.N,GND*%
X132461000Y-54991000D03*
%TD*%
%TO.P,U2,1,GND*%
%TO.N,GND*%
X100715000Y-77262000D03*
X114685000Y-51862000D03*
%TO.P,U2,2,VDD*%
%TO.N,+3V3*%
X86745000Y-51862000D03*
%TO.P,U2,3,EN*%
%TO.N,EN*%
X86745000Y-54402000D03*
%TO.P,U2,4,SENSOR_VP*%
%TO.N,unconnected-(U2-SENSOR_VP-Pad4)*%
X86745000Y-56942000D03*
%TO.P,U2,5,SENSOR_VN*%
%TO.N,unconnected-(U2-SENSOR_VN-Pad5)*%
X86745000Y-59482000D03*
%TO.P,U2,6,IO34*%
%TO.N,BATTERY_ADC*%
X86745000Y-62022000D03*
%TO.P,U2,7,IO35*%
%TO.N,LED_WHITE_1*%
X86745000Y-64562000D03*
%TO.P,U2,8,IO32*%
%TO.N,unconnected-(U2-IO32-Pad8)*%
X86745000Y-67102000D03*
%TO.P,U2,9,IO33*%
%TO.N,unconnected-(U2-IO33-Pad9)*%
X86745000Y-69642000D03*
%TO.P,U2,10,IO25*%
%TO.N,PWMB*%
X86745000Y-72182000D03*
%TO.P,U2,11,IO26*%
%TO.N,BIN2*%
X86745000Y-74722000D03*
D20*
%TO.P,U2,12,IO27*%
%TO.N,BIN1*%
X86745000Y-77262000D03*
D21*
%TO.P,U2,13,IO14*%
%TO.N,LED_RED_1*%
X93095000Y-77262000D03*
%TO.P,U2,14,IO12*%
%TO.N,unconnected-(U2-IO12-Pad14)*%
X93095000Y-74722000D03*
%TO.P,U2,16,IO13*%
%TO.N,BUZZER*%
X95635000Y-74722000D03*
%TO.P,U2,17,SHD/SD2*%
%TO.N,unconnected-(U2-SHD{slash}SD2-Pad17)*%
X95635000Y-77262000D03*
%TO.P,U2,18,SWP/SD3*%
%TO.N,unconnected-(U2-SWP{slash}SD3-Pad18)*%
X98175000Y-74722000D03*
%TO.P,U2,19,SCS/CMD*%
%TO.N,unconnected-(U2-SCS{slash}CMD-Pad19)*%
X98175000Y-77262000D03*
%TO.P,U2,20,SCK/CLK*%
%TO.N,unconnected-(U2-SCK{slash}CLK-Pad20)*%
X100715000Y-74722000D03*
%TO.P,U2,21,SDO/SD0*%
%TO.N,unconnected-(U2-SDO{slash}SD0-Pad21)*%
X103255000Y-74722000D03*
%TO.P,U2,22,SDI/SD1*%
%TO.N,unconnected-(U2-SDI{slash}SD1-Pad22)*%
X103255000Y-77262000D03*
%TO.P,U2,23,IO15*%
%TO.N,unconnected-(U2-IO15-Pad23)*%
X105795000Y-74722000D03*
%TO.P,U2,24,IO2*%
%TO.N,unconnected-(U2-IO2-Pad24)*%
X105795000Y-77262000D03*
%TO.P,U2,25,IO0*%
%TO.N,IO0*%
X108335000Y-74722000D03*
D20*
%TO.P,U2,26,IO4*%
%TO.N,ESC_SIG*%
X108335000Y-77262000D03*
%TO.P,U2,27,IO16*%
%TO.N,LED_RED_2*%
X114685000Y-77262000D03*
D21*
%TO.P,U2,28,IO17*%
%TO.N,unconnected-(U2-IO17-Pad28)*%
X114685000Y-74722000D03*
%TO.P,U2,29,IO5*%
%TO.N,unconnected-(U2-IO5-Pad29)*%
X114685000Y-72182000D03*
%TO.P,U2,30,IO18*%
%TO.N,AIN1*%
X114685000Y-69642000D03*
%TO.P,U2,31,IO19*%
%TO.N,AIN2*%
X114685000Y-67102000D03*
%TO.P,U2,33,IO21*%
%TO.N,PWMA*%
X114685000Y-64562000D03*
%TO.P,U2,34,RXD0/IO3*%
%TO.N,IO3*%
X114685000Y-62022000D03*
%TO.P,U2,35,TXD0/IO1*%
%TO.N,IO1*%
X114685000Y-59482000D03*
%TO.P,U2,36,IO22*%
%TO.N,unconnected-(U2-IO22-Pad36)*%
X114685000Y-56942000D03*
%TO.P,U2,37,IO23*%
%TO.N,LED_WHITE_2*%
X114685000Y-54402000D03*
%TD*%
D20*
%TO.P,J3,1,Pin_1*%
%TO.N,ESC_SIG*%
X98328000Y-145126000D03*
D21*
%TO.P,J3,2,Pin_2*%
%TO.N,unconnected-(J3-Pin_2-Pad2)*%
X100868000Y-145126000D03*
%TO.P,J3,3,Pin_3*%
%TO.N,GND*%
X103408000Y-145126000D03*
%TD*%
D20*
%TO.P,J8,1,Pin_1*%
%TO.N,PWMB*%
X71785000Y-97334000D03*
D21*
%TO.P,J8,2,Pin_2*%
%TO.N,BIN2*%
X71785000Y-99874000D03*
%TO.P,J8,3,Pin_3*%
%TO.N,BIN1*%
X71785000Y-102414000D03*
%TO.P,J8,4,Pin_4*%
%TO.N,EN_ENG_B*%
X71785000Y-104954000D03*
%TO.P,J8,5,Pin_5*%
%TO.N,BIN1*%
X71785000Y-107494000D03*
%TO.P,J8,6,Pin_6*%
%TO.N,BIN2*%
X71785000Y-110034000D03*
%TO.P,J8,7,Pin_7*%
%TO.N,PWMB*%
X71785000Y-112574000D03*
%TO.P,J8,8,Pin_8*%
%TO.N,GND*%
X71785000Y-115114000D03*
%TD*%
D17*
%TO.P,J7,1,Pin_1*%
%TO.N,BO2*%
X80675000Y-71720000D03*
%TD*%
D20*
%TO.P,J4,1,Pin_1*%
%TO.N,GND*%
X129697000Y-97374000D03*
D21*
%TO.P,J4,2,Pin_2*%
%TO.N,+3V3*%
X129697000Y-99914000D03*
%TO.P,J4,3,Pin_3*%
%TO.N,AO1*%
X129697000Y-102454000D03*
%TO.P,J4,4,Pin_4*%
%TO.N,AO2*%
X129697000Y-104994000D03*
%TO.P,J4,5,Pin_5*%
X129697000Y-107534000D03*
%TO.P,J4,6,Pin_6*%
%TO.N,AO1*%
X129697000Y-110074000D03*
%TO.P,J4,7,Pin_7*%
%TO.N,+BATT*%
X129697000Y-112614000D03*
%TO.P,J4,8,Pin_8*%
%TO.N,GND*%
X129697000Y-115154000D03*
%TD*%
D22*
%TO.P,SW3,1*%
%TO.N,+3V3*%
X142636000Y-84420000D03*
D25*
%TO.P,SW3,2*%
X140096000Y-84420000D03*
%TO.P,SW3,3*%
%TO.N,GND*%
X137556000Y-84420000D03*
%TO.P,SW3,4*%
%TO.N,IO0*%
X137556000Y-92040000D03*
%TO.P,SW3,5*%
%TO.N,EN_ENG_B*%
X140096000Y-92040000D03*
%TO.P,SW3,6*%
%TO.N,EN_ENG_A*%
X142636000Y-92040000D03*
%TD*%
D10*
%TO.P,D1,1,K*%
%TO.N,Net-(D1-K)*%
X62895000Y-145253000D03*
D11*
%TO.P,D1,2,A*%
%TO.N,Net-(D1-A)*%
X60355000Y-145253000D03*
%TD*%
D26*
%TO.P,F1,1*%
%TO.N,+BATT*%
X104403000Y-130140000D03*
%TO.P,F1,2*%
%TO.N,Net-(J9-Pin_2)*%
X80823000Y-130140000D03*
%TD*%
D27*
%TO.P,J9,1,Pin_1*%
%TO.N,GND*%
X83905000Y-145402000D03*
D14*
%TO.P,J9,2,Pin_2*%
%TO.N,Net-(J9-Pin_2)*%
X91105000Y-145402000D03*
%TD*%
D28*
%TO.P,R7,1*%
%TO.N,+BATT*%
X81280000Y-60326000D03*
%TO.P,R7,2*%
%TO.N,BATTERY_ADC*%
X81280000Y-61976000D03*
%TD*%
%TO.P,R8,1*%
%TO.N,BATTERY_ADC*%
X81280000Y-64614000D03*
%TO.P,R8,2*%
%TO.N,GND*%
X81280000Y-66264000D03*
%TD*%
D29*
%TO.N,GND*%
X94742000Y-136398000D03*
X120396000Y-96520000D03*
X117094000Y-68326000D03*
X117094000Y-60706000D03*
X120650000Y-123698000D03*
X94742000Y-132842000D03*
X134366000Y-106172000D03*
X65278000Y-119126000D03*
X135382000Y-121158000D03*
X77724000Y-115824000D03*
X140462000Y-71755000D03*
D30*
X128074000Y-144154000D03*
D29*
X71120000Y-73914000D03*
X131826000Y-73406000D03*
X137668000Y-95504000D03*
D30*
X73563000Y-144222000D03*
D29*
X137922000Y-74930000D03*
X120650000Y-83312000D03*
X115824000Y-86360000D03*
X110236000Y-80264000D03*
X71120000Y-55372000D03*
D30*
X128020000Y-65742000D03*
D29*
X78232000Y-104648000D03*
X83566000Y-83820000D03*
X101092000Y-136398000D03*
X101092000Y-57404000D03*
X65278000Y-95250000D03*
X117094000Y-63246000D03*
D30*
X128074000Y-123654000D03*
D29*
X117094000Y-65786000D03*
X140462000Y-128778000D03*
D30*
X128020000Y-86242000D03*
D29*
X101092000Y-67564000D03*
X120142000Y-113792000D03*
D30*
X73563000Y-123722000D03*
D29*
X65278000Y-108712000D03*
X117094000Y-57404000D03*
X77724000Y-114300000D03*
X59944000Y-75946000D03*
X127254000Y-107442000D03*
X134366000Y-73406000D03*
X127254000Y-105918000D03*
X125984000Y-80010000D03*
D30*
X73505000Y-65674000D03*
D29*
X140462000Y-138684000D03*
X120142000Y-53086000D03*
X94742000Y-127508000D03*
X145542000Y-73914000D03*
X71882000Y-94488000D03*
X61468000Y-138938000D03*
X92456000Y-85090000D03*
X117094000Y-71120000D03*
X127254000Y-108966000D03*
X109982000Y-128016000D03*
X110490000Y-123444000D03*
X137160000Y-79248000D03*
X136398000Y-59436000D03*
X120650000Y-76454000D03*
X139700000Y-53086000D03*
X61468000Y-137414000D03*
X140462000Y-132588000D03*
X101092000Y-133096000D03*
X141478000Y-88392000D03*
X65278000Y-107188000D03*
D30*
X73505000Y-86174000D03*
D29*
X140462000Y-130810000D03*
D31*
%TO.N,+BATT*%
X60198000Y-61468000D03*
D32*
%TO.N,ESC_SIG*%
X98425000Y-127381000D03*
%TO.N,AIN1*%
X132842000Y-80010000D03*
X123430500Y-70371500D03*
%TO.N,AIN2*%
X122728000Y-67102000D03*
X134366000Y-78740000D03*
%TO.N,PWMA*%
X135890000Y-77724000D03*
X122786000Y-64412000D03*
%TO.N,EN_ENG_B*%
X120650000Y-125476000D03*
X135636000Y-112776000D03*
X135636000Y-118872000D03*
%TO.N,IO0*%
X126492000Y-81788000D03*
X135890000Y-75692000D03*
%TO.N,LED_RED_1*%
X75184000Y-115570000D03*
%TO.N,LED_RED_2*%
X118618000Y-81026000D03*
X128270000Y-93472000D03*
%TD*%
D33*
%TO.N,+BATT*%
X81280000Y-60326000D02*
X61340000Y-60326000D01*
X61340000Y-60326000D02*
X60198000Y-61468000D01*
%TO.N,BATTERY_ADC*%
X81326000Y-62022000D02*
X81280000Y-61976000D01*
X86745000Y-62022000D02*
X81326000Y-62022000D01*
X81280000Y-61976000D02*
X81280000Y-64614000D01*
%TO.N,Net-(D3-K)*%
X139349000Y-62576000D02*
X144937000Y-56988000D01*
X139349000Y-65370000D02*
X139349000Y-62576000D01*
D34*
%TO.N,BO1*%
X61722000Y-108712000D02*
X60360000Y-110074000D01*
X67910000Y-138268000D02*
X61722000Y-132080000D01*
X60360000Y-110074000D02*
X59085000Y-110074000D01*
X61722000Y-103888919D02*
X60287081Y-102454000D01*
X59085000Y-102454000D02*
X60287081Y-102454000D01*
X61722000Y-132080000D02*
X61722000Y-103888919D01*
X61722000Y-103888919D02*
X61722000Y-108712000D01*
X80675000Y-138268000D02*
X67910000Y-138268000D01*
D33*
%TO.N,ESC_SIG*%
X98425000Y-127381000D02*
X98328000Y-127478000D01*
X98328000Y-127478000D02*
X98328000Y-145126000D01*
D34*
%TO.N,AO1*%
X129697000Y-102454000D02*
X130899081Y-102454000D01*
X130899081Y-102454000D02*
X132334000Y-103888919D01*
X132334000Y-103888919D02*
X132334000Y-108639081D01*
X130899081Y-110074000D02*
X129697000Y-110074000D01*
X132334000Y-108639081D02*
X132334000Y-129032000D01*
X123098000Y-138268000D02*
X120935000Y-138268000D01*
X132334000Y-129032000D02*
X123098000Y-138268000D01*
X132334000Y-108639081D02*
X130899081Y-110074000D01*
D33*
%TO.N,AIN1*%
X122701000Y-69642000D02*
X114685000Y-69642000D01*
X123430500Y-70371500D02*
X122701000Y-69642000D01*
X132842000Y-94979750D02*
X140316250Y-102454000D01*
X140316250Y-102454000D02*
X142397000Y-102454000D01*
X132842000Y-80010000D02*
X132842000Y-94979750D01*
%TO.N,AIN2*%
X122728000Y-67102000D02*
X114685000Y-67102000D01*
X140554000Y-99914000D02*
X142397000Y-99914000D01*
X134366000Y-78740000D02*
X134366000Y-93726000D01*
X134366000Y-93726000D02*
X140554000Y-99914000D01*
%TO.N,PWMA*%
X141047000Y-97374000D02*
X142397000Y-97374000D01*
X135890000Y-77724000D02*
X135890000Y-92217000D01*
X114835000Y-64412000D02*
X114685000Y-64562000D01*
X135890000Y-92217000D02*
X141047000Y-97374000D01*
X122786000Y-64412000D02*
X114835000Y-64412000D01*
%TO.N,EN_ENG_B*%
X71785000Y-104954000D02*
X72188000Y-104954000D01*
X135636000Y-118872000D02*
X135636000Y-112776000D01*
X72188000Y-104954000D02*
X80518000Y-113284000D01*
X80518000Y-113284000D02*
X80518000Y-115316000D01*
X80518000Y-115316000D02*
X90678000Y-125476000D01*
X90678000Y-125476000D02*
X120650000Y-125476000D01*
%TO.N,IO3*%
X114685000Y-62022000D02*
X120096000Y-62022000D01*
X121412000Y-55880000D02*
X122301000Y-54991000D01*
X121412000Y-60706000D02*
X121412000Y-55880000D01*
X122301000Y-54991000D02*
X124841000Y-54991000D01*
X120096000Y-62022000D02*
X121412000Y-60706000D01*
%TO.N,IO1*%
X114731000Y-59436000D02*
X114685000Y-59482000D01*
%TO.N,IO0*%
X126492000Y-81788000D02*
X128016000Y-81788000D01*
X135890000Y-75692000D02*
X138806000Y-78608000D01*
X138806000Y-90790000D02*
X137556000Y-92040000D01*
X128016000Y-81788000D02*
X134112000Y-75692000D01*
X134112000Y-75692000D02*
X135890000Y-75692000D01*
X138806000Y-78608000D02*
X138806000Y-90790000D01*
%TO.N,LED_RED_1*%
X75184000Y-115570000D02*
X69596000Y-121158000D01*
X67564000Y-121158000D02*
X65278000Y-123444000D01*
X65278000Y-123444000D02*
X65278000Y-124298000D01*
X69596000Y-121158000D02*
X67564000Y-121158000D01*
%TO.N,LED_WHITE_1*%
X63403000Y-65314000D02*
X63403000Y-66219000D01*
X81965000Y-69342000D02*
X86745000Y-64562000D01*
X66526000Y-69342000D02*
X81965000Y-69342000D01*
X63403000Y-66219000D02*
X66526000Y-69342000D01*
D34*
%TO.N,+3V3*%
X92964000Y-54102000D02*
X90724000Y-51862000D01*
X111506000Y-78183000D02*
X111506000Y-72390000D01*
X61976000Y-98583000D02*
X60645000Y-99914000D01*
X102870000Y-63754000D02*
X95758000Y-63754000D01*
X60645000Y-99914000D02*
X59085000Y-99914000D01*
X115975500Y-82652500D02*
X91337500Y-82652500D01*
X91337500Y-82652500D02*
X81788000Y-92202000D01*
X132491000Y-63403000D02*
X130048000Y-60960000D01*
X130048000Y-60960000D02*
X126111000Y-60960000D01*
X123190000Y-105218919D02*
X123190000Y-89867000D01*
X115975500Y-82652500D02*
X111506000Y-78183000D01*
X90724000Y-51862000D02*
X86745000Y-51862000D01*
X64770000Y-92202000D02*
X61976000Y-94996000D01*
X123190000Y-130003000D02*
X121021000Y-132172000D01*
X128494919Y-99914000D02*
X123190000Y-105218919D01*
X123190000Y-78994000D02*
X132491000Y-69693000D01*
X123190000Y-89867000D02*
X119531500Y-86208500D01*
X129697000Y-99914000D02*
X128494919Y-99914000D01*
X95758000Y-63754000D02*
X92964000Y-60960000D01*
X123190000Y-105218919D02*
X123190000Y-130003000D01*
X111506000Y-72390000D02*
X102870000Y-63754000D01*
X132491000Y-69693000D02*
X132491000Y-63403000D01*
X124841000Y-59690000D02*
X124841000Y-57531000D01*
D33*
X135001000Y-69850000D02*
X140096000Y-74945000D01*
D34*
X126111000Y-60960000D02*
X124841000Y-59690000D01*
X119531500Y-86208500D02*
X115975500Y-82652500D01*
D33*
X140096000Y-74945000D02*
X140096000Y-84420000D01*
D34*
X61976000Y-94996000D02*
X61976000Y-98583000D01*
D33*
X132491000Y-69850000D02*
X135001000Y-69850000D01*
D34*
X92964000Y-60960000D02*
X92964000Y-54102000D01*
X81788000Y-92202000D02*
X64770000Y-92202000D01*
X123190000Y-89867000D02*
X123190000Y-78994000D01*
D35*
%TO.N,Net-(J9-Pin_2)*%
X91105000Y-145402000D02*
X91105000Y-140422000D01*
X91105000Y-140422000D02*
X80823000Y-130140000D01*
D33*
%TO.N,Net-(D2-K)*%
X141635000Y-137063000D02*
X141635000Y-145126000D01*
X135128000Y-130556000D02*
X141635000Y-137063000D01*
X135128000Y-124298000D02*
X135128000Y-130556000D01*
%TO.N,LED_RED_2*%
X136398000Y-124298000D02*
X136398000Y-122682000D01*
X114854000Y-77262000D02*
X114685000Y-77262000D01*
X118618000Y-81026000D02*
X114854000Y-77262000D01*
X136398000Y-122682000D02*
X137668000Y-121412000D01*
X137668000Y-121412000D02*
X137668000Y-102745000D01*
X128395000Y-93472000D02*
X128270000Y-93472000D01*
X137668000Y-102745000D02*
X128395000Y-93472000D01*
%TD*%
%TA.AperFunction,Conductor*%
%TO.N,GND*%
G36*
X143755215Y-50402002D02*
G01*
X144014794Y-50404416D01*
X144017984Y-50404550D01*
X144535869Y-50443294D01*
X144539475Y-50443699D01*
X145017339Y-50515601D01*
X145052829Y-50520941D01*
X145056424Y-50521620D01*
X145562572Y-50636941D01*
X145566090Y-50637883D01*
X146062212Y-50790638D01*
X146065649Y-50791838D01*
X146548999Y-50981182D01*
X146552352Y-50982642D01*
X146750784Y-51078014D01*
X147020238Y-51207521D01*
X147023457Y-51209220D01*
X147473264Y-51468379D01*
X147476339Y-51470307D01*
X147904966Y-51761898D01*
X147905552Y-51762297D01*
X147908498Y-51764466D01*
X148314724Y-52087656D01*
X148317499Y-52090039D01*
X148698481Y-52442633D01*
X148701072Y-52445216D01*
X149054688Y-52825251D01*
X149057078Y-52828020D01*
X149381358Y-53233375D01*
X149383533Y-53236312D01*
X149472747Y-53366700D01*
X149676672Y-53664737D01*
X149678623Y-53667831D01*
X149938972Y-54116911D01*
X149940688Y-54120142D01*
X150166822Y-54587419D01*
X150168291Y-54590769D01*
X150358924Y-55073587D01*
X150360140Y-55077037D01*
X150514232Y-55572763D01*
X150515186Y-55576294D01*
X150552350Y-55737409D01*
X150599876Y-55943447D01*
X150631859Y-56082098D01*
X150632548Y-56085691D01*
X150711166Y-56598825D01*
X150711584Y-56602459D01*
X150751698Y-57119993D01*
X150751845Y-57123648D01*
X150753240Y-57642763D01*
X150753113Y-57646419D01*
X150715777Y-58164172D01*
X150715378Y-58167809D01*
X150639519Y-58681340D01*
X150638850Y-58684936D01*
X150524891Y-59191386D01*
X150523955Y-59194922D01*
X150372535Y-59691445D01*
X150371338Y-59694902D01*
X150183297Y-60178745D01*
X150181846Y-60182103D01*
X149958228Y-60650582D01*
X149956530Y-60653822D01*
X149698588Y-61104309D01*
X149696653Y-61107413D01*
X149405829Y-61537391D01*
X149403668Y-61540343D01*
X149081563Y-61947443D01*
X149079187Y-61950225D01*
X148727624Y-62332146D01*
X148725048Y-62334743D01*
X148345958Y-62689384D01*
X148343195Y-62691781D01*
X147938720Y-63017141D01*
X147935786Y-63019326D01*
X147507976Y-63313735D01*
X147505280Y-63315464D01*
X147282099Y-63448451D01*
X147282097Y-63448452D01*
X147255962Y-63885911D01*
X147255000Y-63902006D01*
X147255000Y-143401755D01*
X147254998Y-143402213D01*
X147252566Y-143662227D01*
X147252431Y-143665431D01*
X147213556Y-144184194D01*
X147213146Y-144187835D01*
X147135644Y-144702032D01*
X147134962Y-144705633D01*
X147019254Y-145212576D01*
X147018306Y-145216115D01*
X146865036Y-145713005D01*
X146863826Y-145716464D01*
X146673845Y-146200527D01*
X146672379Y-146203885D01*
X146446770Y-146672368D01*
X146445058Y-146675608D01*
X146185063Y-147125931D01*
X146183114Y-147129034D01*
X145890186Y-147558683D01*
X145888010Y-147561631D01*
X145563799Y-147968177D01*
X145561409Y-147970954D01*
X145207726Y-148352134D01*
X145205134Y-148354726D01*
X144823954Y-148708409D01*
X144821177Y-148710799D01*
X144414631Y-149035010D01*
X144411683Y-149037186D01*
X143982034Y-149330114D01*
X143978931Y-149332063D01*
X143528608Y-149592058D01*
X143525368Y-149593770D01*
X143056885Y-149819379D01*
X143053527Y-149820845D01*
X142569464Y-150010826D01*
X142566005Y-150012036D01*
X142069115Y-150165306D01*
X142065576Y-150166254D01*
X141558633Y-150281962D01*
X141555032Y-150282644D01*
X141040835Y-150360146D01*
X141037194Y-150360556D01*
X140518431Y-150399431D01*
X140515227Y-150399566D01*
X140255214Y-150401998D01*
X140254756Y-150402000D01*
X100755000Y-150402000D01*
X61255244Y-150402000D01*
X61254786Y-150401998D01*
X60994772Y-150399566D01*
X60991568Y-150399431D01*
X60472805Y-150360556D01*
X60469164Y-150360146D01*
X60124328Y-150308170D01*
X59954964Y-150282643D01*
X59951370Y-150281962D01*
X59840431Y-150256641D01*
X59444423Y-150166254D01*
X59440884Y-150165306D01*
X58943994Y-150012036D01*
X58940535Y-150010826D01*
X58456472Y-149820845D01*
X58453114Y-149819379D01*
X57984631Y-149593770D01*
X57981391Y-149592058D01*
X57531068Y-149332063D01*
X57527965Y-149330114D01*
X57098316Y-149037186D01*
X57095368Y-149035010D01*
X56688822Y-148710799D01*
X56686045Y-148708409D01*
X56304865Y-148354726D01*
X56302273Y-148352134D01*
X55948590Y-147970954D01*
X55946200Y-147968177D01*
X55621989Y-147561631D01*
X55619813Y-147558683D01*
X55326885Y-147129034D01*
X55324936Y-147125931D01*
X55064941Y-146675608D01*
X55063229Y-146672368D01*
X54837620Y-146203885D01*
X54836154Y-146200527D01*
X54646173Y-145716464D01*
X54644963Y-145713005D01*
X54527419Y-145331935D01*
X54503070Y-145253000D01*
X59249785Y-145253000D01*
X59268602Y-145456079D01*
X59268603Y-145456085D01*
X59324417Y-145652248D01*
X59324420Y-145652255D01*
X59415325Y-145834818D01*
X59415328Y-145834822D01*
X59538233Y-145997576D01*
X59538236Y-145997579D01*
X59688954Y-146134977D01*
X59688955Y-146134978D01*
X59688959Y-146134981D01*
X59862363Y-146242348D01*
X60052544Y-146316024D01*
X60253024Y-146353500D01*
X60253026Y-146353500D01*
X60456974Y-146353500D01*
X60456976Y-146353500D01*
X60657456Y-146316024D01*
X60847637Y-146242348D01*
X60960045Y-146172748D01*
X61794500Y-146172748D01*
X61806133Y-146231231D01*
X61813562Y-146242349D01*
X61850447Y-146297552D01*
X61877012Y-146315301D01*
X61916769Y-146341867D01*
X61975252Y-146353500D01*
X61975255Y-146353500D01*
X63814745Y-146353500D01*
X63814748Y-146353500D01*
X63873231Y-146341867D01*
X63939552Y-146297552D01*
X63983867Y-146231231D01*
X63995500Y-146172748D01*
X63995500Y-144333252D01*
X63983867Y-144274769D01*
X63957301Y-144235012D01*
X63939552Y-144208447D01*
X63899795Y-144181882D01*
X63873231Y-144164133D01*
X63814748Y-144152500D01*
X61975252Y-144152500D01*
X61916769Y-144164133D01*
X61850447Y-144208447D01*
X61813561Y-144263652D01*
X61806133Y-144274769D01*
X61794500Y-144333252D01*
X61794500Y-146172748D01*
X60960045Y-146172748D01*
X61021041Y-146134981D01*
X61171764Y-145997579D01*
X61294673Y-145834821D01*
X61385582Y-145652250D01*
X61441397Y-145456083D01*
X61460215Y-145253000D01*
X61441397Y-145049917D01*
X61385582Y-144853750D01*
X61294673Y-144671179D01*
X61171764Y-144508421D01*
X61032454Y-144381423D01*
X61021045Y-144371022D01*
X61021042Y-144371020D01*
X61021041Y-144371019D01*
X60847637Y-144263652D01*
X60847634Y-144263651D01*
X60847633Y-144263650D01*
X60657462Y-144189978D01*
X60657460Y-144189977D01*
X60657456Y-144189976D01*
X60456976Y-144152500D01*
X60253024Y-144152500D01*
X60052544Y-144189976D01*
X60052540Y-144189977D01*
X60052537Y-144189978D01*
X59862366Y-144263650D01*
X59688954Y-144371022D01*
X59538236Y-144508420D01*
X59538233Y-144508423D01*
X59415328Y-144671177D01*
X59415325Y-144671181D01*
X59324420Y-144853744D01*
X59324417Y-144853751D01*
X59268603Y-145049914D01*
X59268602Y-145049920D01*
X59249785Y-145253000D01*
X54503070Y-145253000D01*
X54491691Y-145216110D01*
X54490745Y-145212576D01*
X54375032Y-144705609D01*
X54374359Y-144702056D01*
X54296851Y-144187817D01*
X54296445Y-144184212D01*
X54257568Y-143665431D01*
X54257433Y-143662227D01*
X54255002Y-143402213D01*
X54255000Y-143401755D01*
X54255000Y-112614000D01*
X58029417Y-112614000D01*
X58049700Y-112819934D01*
X58049700Y-112819935D01*
X58075855Y-112906158D01*
X58109768Y-113017954D01*
X58207315Y-113200450D01*
X58338590Y-113360410D01*
X58498550Y-113491685D01*
X58681046Y-113589232D01*
X58879066Y-113649300D01*
X59085000Y-113669583D01*
X59290934Y-113649300D01*
X59488954Y-113589232D01*
X59671450Y-113491685D01*
X59831410Y-113360410D01*
X59962685Y-113200450D01*
X60060232Y-113017954D01*
X60120300Y-112819934D01*
X60140583Y-112614000D01*
X60120300Y-112408066D01*
X60060232Y-112210046D01*
X59962685Y-112027550D01*
X59831410Y-111867590D01*
X59671450Y-111736315D01*
X59488954Y-111638768D01*
X59290934Y-111578700D01*
X59085000Y-111558417D01*
X58879065Y-111578700D01*
X58879064Y-111578700D01*
X58681043Y-111638769D01*
X58498548Y-111736316D01*
X58338590Y-111867590D01*
X58207316Y-112027548D01*
X58109769Y-112210043D01*
X58049700Y-112408064D01*
X58049700Y-112408065D01*
X58029417Y-112613999D01*
X58029417Y-112614000D01*
X54255000Y-112614000D01*
X54255000Y-110168480D01*
X57884500Y-110168480D01*
X57914059Y-110355115D01*
X57914060Y-110355118D01*
X57972453Y-110534833D01*
X58058236Y-110703193D01*
X58058239Y-110703197D01*
X58058240Y-110703199D01*
X58169310Y-110856073D01*
X58169312Y-110856075D01*
X58169315Y-110856079D01*
X58302920Y-110989684D01*
X58302923Y-110989686D01*
X58302927Y-110989690D01*
X58455801Y-111100760D01*
X58455803Y-111100761D01*
X58455806Y-111100763D01*
X58580696Y-111164397D01*
X58624168Y-111186547D01*
X58803882Y-111244940D01*
X58990519Y-111274500D01*
X58990520Y-111274500D01*
X60454482Y-111274500D01*
X60456425Y-111274192D01*
X60464832Y-111272860D01*
X60501298Y-111281612D01*
X60520896Y-111313587D01*
X60521500Y-111321256D01*
X60521500Y-132174480D01*
X60551059Y-132361115D01*
X60551060Y-132361118D01*
X60609453Y-132540833D01*
X60695238Y-132709196D01*
X60695240Y-132709199D01*
X60799908Y-132853263D01*
X60806311Y-132862075D01*
X60806314Y-132862079D01*
X66994310Y-139050073D01*
X67127920Y-139183684D01*
X67127923Y-139183686D01*
X67127927Y-139183690D01*
X67280801Y-139294760D01*
X67280803Y-139294761D01*
X67280806Y-139294763D01*
X67449166Y-139380546D01*
X67449168Y-139380547D01*
X67628882Y-139438940D01*
X67815519Y-139468500D01*
X78925500Y-139468500D01*
X78960148Y-139482852D01*
X78974500Y-139517500D01*
X78974500Y-139787748D01*
X78986133Y-139846231D01*
X79003882Y-139872795D01*
X79030447Y-139912552D01*
X79057012Y-139930301D01*
X79096769Y-139956867D01*
X79155252Y-139968500D01*
X79155255Y-139968500D01*
X82194745Y-139968500D01*
X82194748Y-139968500D01*
X82253231Y-139956867D01*
X82319552Y-139912552D01*
X82363867Y-139846231D01*
X82375500Y-139787748D01*
X82375500Y-136748252D01*
X82363867Y-136689769D01*
X82334287Y-136645500D01*
X82319552Y-136623447D01*
X82279795Y-136596882D01*
X82253231Y-136579133D01*
X82194748Y-136567500D01*
X79155252Y-136567500D01*
X79096769Y-136579133D01*
X79030447Y-136623447D01*
X78986133Y-136689769D01*
X78974500Y-136748252D01*
X78974500Y-136748255D01*
X78974500Y-137018500D01*
X78960148Y-137053148D01*
X78925500Y-137067500D01*
X68427559Y-137067500D01*
X68392911Y-137053148D01*
X62936852Y-131597088D01*
X62922500Y-131562440D01*
X62922500Y-130291657D01*
X78122501Y-130291657D01*
X78156461Y-130593063D01*
X78167776Y-130642637D01*
X78223953Y-130888769D01*
X78324133Y-131175069D01*
X78324136Y-131175075D01*
X78455728Y-131448328D01*
X78455729Y-131448330D01*
X78455732Y-131448334D01*
X78455735Y-131448341D01*
X78617108Y-131705165D01*
X78617109Y-131705166D01*
X78806213Y-131942296D01*
X78806224Y-131942308D01*
X88390148Y-141526232D01*
X88404500Y-141560880D01*
X88404500Y-143661605D01*
X88395465Y-143689957D01*
X88390789Y-143696548D01*
X88216908Y-144011162D01*
X88216904Y-144011171D01*
X88079341Y-144343276D01*
X87979829Y-144688689D01*
X87979827Y-144688698D01*
X87979827Y-144688700D01*
X87940517Y-144920065D01*
X87919613Y-145043094D01*
X87919612Y-145043100D01*
X87899457Y-145402000D01*
X87919612Y-145760899D01*
X87919612Y-145760903D01*
X87919613Y-145760907D01*
X87979827Y-146115300D01*
X87979829Y-146115310D01*
X88032332Y-146297552D01*
X88079341Y-146460724D01*
X88216904Y-146792828D01*
X88216908Y-146792837D01*
X88390789Y-147107453D01*
X88390794Y-147107459D01*
X88598800Y-147400616D01*
X88598816Y-147400635D01*
X88706004Y-147520577D01*
X88838339Y-147668661D01*
X89004043Y-147816743D01*
X89106364Y-147908183D01*
X89106383Y-147908199D01*
X89399540Y-148116205D01*
X89399546Y-148116210D01*
X89399548Y-148116211D01*
X89714167Y-148290094D01*
X90046276Y-148427659D01*
X90341749Y-148512782D01*
X90391689Y-148527170D01*
X90391690Y-148527170D01*
X90391700Y-148527173D01*
X90746093Y-148587387D01*
X91105000Y-148607543D01*
X91463907Y-148587387D01*
X91818300Y-148527173D01*
X92163724Y-148427659D01*
X92495833Y-148290094D01*
X92810452Y-148116211D01*
X93103623Y-147908194D01*
X93371661Y-147668661D01*
X93611194Y-147400623D01*
X93819211Y-147107452D01*
X93993094Y-146792833D01*
X94130659Y-146460724D01*
X94230173Y-146115300D01*
X94250486Y-145995748D01*
X97277500Y-145995748D01*
X97289133Y-146054231D01*
X97306882Y-146080795D01*
X97333447Y-146120552D01*
X97355036Y-146134977D01*
X97399769Y-146164867D01*
X97458252Y-146176500D01*
X97458255Y-146176500D01*
X99197745Y-146176500D01*
X99197748Y-146176500D01*
X99256231Y-146164867D01*
X99322552Y-146120552D01*
X99366867Y-146054231D01*
X99378500Y-145995748D01*
X99378500Y-145126000D01*
X99812417Y-145126000D01*
X99832700Y-145331934D01*
X99892768Y-145529954D01*
X99990315Y-145712450D01*
X100121590Y-145872410D01*
X100281550Y-146003685D01*
X100464046Y-146101232D01*
X100662066Y-146161300D01*
X100868000Y-146181583D01*
X101073934Y-146161300D01*
X101271954Y-146101232D01*
X101454450Y-146003685D01*
X101614410Y-145872410D01*
X101745685Y-145712450D01*
X101843232Y-145529954D01*
X101882046Y-145402000D01*
X107449457Y-145402000D01*
X107469612Y-145760899D01*
X107469612Y-145760903D01*
X107469613Y-145760907D01*
X107529827Y-146115300D01*
X107529829Y-146115310D01*
X107582332Y-146297552D01*
X107629341Y-146460724D01*
X107766904Y-146792828D01*
X107766908Y-146792837D01*
X107940789Y-147107453D01*
X107940794Y-147107459D01*
X108148800Y-147400616D01*
X108148816Y-147400635D01*
X108256004Y-147520577D01*
X108388339Y-147668661D01*
X108554043Y-147816743D01*
X108656364Y-147908183D01*
X108656383Y-147908199D01*
X108949540Y-148116205D01*
X108949546Y-148116210D01*
X108949548Y-148116211D01*
X109264167Y-148290094D01*
X109596276Y-148427659D01*
X109891749Y-148512782D01*
X109941689Y-148527170D01*
X109941690Y-148527170D01*
X109941700Y-148527173D01*
X110296093Y-148587387D01*
X110655000Y-148607543D01*
X111013907Y-148587387D01*
X111368300Y-148527173D01*
X111713724Y-148427659D01*
X112045833Y-148290094D01*
X112360452Y-148116211D01*
X112653623Y-147908194D01*
X112921661Y-147668661D01*
X113161194Y-147400623D01*
X113369211Y-147107452D01*
X113543094Y-146792833D01*
X113680659Y-146460724D01*
X113780173Y-146115300D01*
X113840387Y-145760907D01*
X113860543Y-145402000D01*
X113845043Y-145126000D01*
X137989785Y-145126000D01*
X138008602Y-145329079D01*
X138008603Y-145329085D01*
X138064417Y-145525248D01*
X138064420Y-145525255D01*
X138155325Y-145707818D01*
X138155326Y-145707820D01*
X138155327Y-145707821D01*
X138159242Y-145713005D01*
X138278233Y-145870576D01*
X138278236Y-145870579D01*
X138428954Y-146007977D01*
X138428955Y-146007978D01*
X138428959Y-146007981D01*
X138602363Y-146115348D01*
X138792544Y-146189024D01*
X138993024Y-146226500D01*
X138993026Y-146226500D01*
X139196974Y-146226500D01*
X139196976Y-146226500D01*
X139397456Y-146189024D01*
X139587637Y-146115348D01*
X139761041Y-146007981D01*
X139911764Y-145870579D01*
X140034673Y-145707821D01*
X140125582Y-145525250D01*
X140181397Y-145329083D01*
X140200215Y-145126000D01*
X140181397Y-144922917D01*
X140125582Y-144726750D01*
X140034673Y-144544179D01*
X139911764Y-144381421D01*
X139911763Y-144381420D01*
X139761045Y-144244022D01*
X139761042Y-144244020D01*
X139761041Y-144244019D01*
X139587637Y-144136652D01*
X139587634Y-144136651D01*
X139587633Y-144136650D01*
X139397462Y-144062978D01*
X139397460Y-144062977D01*
X139397456Y-144062976D01*
X139196976Y-144025500D01*
X138993024Y-144025500D01*
X138792544Y-144062976D01*
X138792540Y-144062977D01*
X138792537Y-144062978D01*
X138602366Y-144136650D01*
X138428954Y-144244022D01*
X138278236Y-144381420D01*
X138278233Y-144381423D01*
X138155328Y-144544177D01*
X138155325Y-144544181D01*
X138064420Y-144726744D01*
X138064417Y-144726751D01*
X138008603Y-144922914D01*
X138008602Y-144922920D01*
X137989785Y-145126000D01*
X113845043Y-145126000D01*
X113840387Y-145043093D01*
X113780173Y-144688700D01*
X113680659Y-144343276D01*
X113543094Y-144011167D01*
X113369211Y-143696548D01*
X113306073Y-143607564D01*
X113161199Y-143403383D01*
X113161183Y-143403364D01*
X113069743Y-143301043D01*
X112921661Y-143135339D01*
X112773577Y-143003004D01*
X112653635Y-142895816D01*
X112653616Y-142895800D01*
X112360459Y-142687794D01*
X112360453Y-142687789D01*
X112045837Y-142513908D01*
X112045828Y-142513904D01*
X111713724Y-142376341D01*
X111628599Y-142351817D01*
X111368310Y-142276829D01*
X111368302Y-142276827D01*
X111368300Y-142276827D01*
X111013907Y-142216613D01*
X111013903Y-142216612D01*
X111013899Y-142216612D01*
X110655000Y-142196457D01*
X110296100Y-142216612D01*
X110296094Y-142216612D01*
X110296093Y-142216613D01*
X109941700Y-142276827D01*
X109941698Y-142276827D01*
X109941689Y-142276829D01*
X109596276Y-142376341D01*
X109264171Y-142513904D01*
X109264162Y-142513908D01*
X108949546Y-142687789D01*
X108949540Y-142687794D01*
X108656383Y-142895800D01*
X108656364Y-142895816D01*
X108388339Y-143135339D01*
X108148816Y-143403364D01*
X108148800Y-143403383D01*
X107940794Y-143696540D01*
X107940789Y-143696546D01*
X107766908Y-144011162D01*
X107766904Y-144011171D01*
X107629341Y-144343276D01*
X107529829Y-144688689D01*
X107529827Y-144688698D01*
X107529827Y-144688700D01*
X107490517Y-144920065D01*
X107469613Y-145043094D01*
X107469612Y-145043100D01*
X107449457Y-145402000D01*
X101882046Y-145402000D01*
X101903300Y-145331934D01*
X101923583Y-145126000D01*
X101903300Y-144920066D01*
X101843232Y-144722046D01*
X101745685Y-144539550D01*
X101614410Y-144379590D01*
X101454450Y-144248315D01*
X101271954Y-144150768D01*
X101073934Y-144090700D01*
X100868000Y-144070417D01*
X100662065Y-144090700D01*
X100662064Y-144090700D01*
X100527736Y-144131448D01*
X100473933Y-144147769D01*
X100464043Y-144150769D01*
X100281548Y-144248316D01*
X100121590Y-144379590D01*
X99990316Y-144539548D01*
X99892769Y-144722043D01*
X99832700Y-144920064D01*
X99832700Y-144920065D01*
X99832700Y-144920066D01*
X99812417Y-145126000D01*
X99378500Y-145126000D01*
X99378500Y-144256252D01*
X99366867Y-144197769D01*
X99335462Y-144150769D01*
X99322552Y-144131447D01*
X99261569Y-144090700D01*
X99256231Y-144087133D01*
X99197748Y-144075500D01*
X99197745Y-144075500D01*
X98827500Y-144075500D01*
X98792852Y-144061148D01*
X98778500Y-144026500D01*
X98778500Y-139787748D01*
X119234500Y-139787748D01*
X119246133Y-139846231D01*
X119263882Y-139872795D01*
X119290447Y-139912552D01*
X119317012Y-139930301D01*
X119356769Y-139956867D01*
X119415252Y-139968500D01*
X119415255Y-139968500D01*
X122454745Y-139968500D01*
X122454748Y-139968500D01*
X122513231Y-139956867D01*
X122579552Y-139912552D01*
X122623867Y-139846231D01*
X122635500Y-139787748D01*
X122635500Y-139517500D01*
X122649852Y-139482852D01*
X122684500Y-139468500D01*
X123192480Y-139468500D01*
X123192481Y-139468500D01*
X123379118Y-139438940D01*
X123558832Y-139380547D01*
X123727199Y-139294760D01*
X123880074Y-139183690D01*
X123880077Y-139183686D01*
X123880080Y-139183685D01*
X133249685Y-129814080D01*
X133249686Y-129814077D01*
X133249690Y-129814074D01*
X133360760Y-129661199D01*
X133446547Y-129492832D01*
X133504940Y-129313118D01*
X133519541Y-129220927D01*
X133534500Y-129126481D01*
X133534500Y-118872002D01*
X135130353Y-118872002D01*
X135150833Y-119014454D01*
X135182935Y-119084746D01*
X135210623Y-119145373D01*
X135210624Y-119145374D01*
X135210625Y-119145376D01*
X135304871Y-119254142D01*
X135304872Y-119254143D01*
X135425947Y-119331953D01*
X135502785Y-119354514D01*
X135564034Y-119372499D01*
X135564037Y-119372499D01*
X135564039Y-119372500D01*
X135564040Y-119372500D01*
X135707960Y-119372500D01*
X135707961Y-119372500D01*
X135707963Y-119372499D01*
X135707965Y-119372499D01*
X135730795Y-119365795D01*
X135846053Y-119331953D01*
X135967128Y-119254143D01*
X136061377Y-119145373D01*
X136121165Y-119014457D01*
X136121165Y-119014455D01*
X136121166Y-119014454D01*
X136141647Y-118872002D01*
X136141647Y-118871997D01*
X136121165Y-118729544D01*
X136121165Y-118729542D01*
X136090928Y-118663332D01*
X136086500Y-118642977D01*
X136086500Y-113005021D01*
X136090928Y-112984665D01*
X136093993Y-112977954D01*
X136121165Y-112918457D01*
X136141647Y-112776000D01*
X136141647Y-112775997D01*
X136121166Y-112633545D01*
X136093972Y-112574000D01*
X136061377Y-112502627D01*
X135967128Y-112393857D01*
X135846053Y-112316047D01*
X135846050Y-112316046D01*
X135707965Y-112275500D01*
X135707961Y-112275500D01*
X135564039Y-112275500D01*
X135564034Y-112275500D01*
X135425949Y-112316046D01*
X135304871Y-112393857D01*
X135210625Y-112502623D01*
X135210624Y-112502625D01*
X135150833Y-112633545D01*
X135130353Y-112775997D01*
X135130353Y-112776001D01*
X135150835Y-112918457D01*
X135150835Y-112918458D01*
X135181072Y-112984665D01*
X135185500Y-113005021D01*
X135185500Y-118642977D01*
X135181072Y-118663332D01*
X135150834Y-118729542D01*
X135150834Y-118729544D01*
X135130353Y-118871997D01*
X135130353Y-118872002D01*
X133534500Y-118872002D01*
X133534500Y-108544600D01*
X133534500Y-108544599D01*
X133534500Y-103794438D01*
X133504940Y-103607801D01*
X133446547Y-103428087D01*
X133446546Y-103428085D01*
X133360763Y-103259725D01*
X133360761Y-103259722D01*
X133360760Y-103259720D01*
X133249690Y-103106846D01*
X133249686Y-103106842D01*
X133249684Y-103106839D01*
X133116073Y-102973229D01*
X131681160Y-101538314D01*
X131681156Y-101538311D01*
X131599203Y-101478769D01*
X131528280Y-101427240D01*
X131528279Y-101427239D01*
X131528277Y-101427238D01*
X131359914Y-101341453D01*
X131180199Y-101283060D01*
X131180196Y-101283059D01*
X131036825Y-101260352D01*
X130993562Y-101253500D01*
X129602519Y-101253500D01*
X129567397Y-101259062D01*
X129415884Y-101283059D01*
X129415881Y-101283060D01*
X129236166Y-101341453D01*
X129067806Y-101427236D01*
X128914920Y-101538315D01*
X128781315Y-101671920D01*
X128670236Y-101824806D01*
X128584453Y-101993166D01*
X128526060Y-102172881D01*
X128526059Y-102172884D01*
X128496500Y-102359519D01*
X128496500Y-102548480D01*
X128526059Y-102735115D01*
X128526060Y-102735118D01*
X128584453Y-102914833D01*
X128670236Y-103083193D01*
X128670239Y-103083197D01*
X128670240Y-103083199D01*
X128781310Y-103236073D01*
X128781312Y-103236075D01*
X128781315Y-103236079D01*
X128914920Y-103369684D01*
X128914923Y-103369686D01*
X128914927Y-103369690D01*
X129067801Y-103480760D01*
X129067803Y-103480761D01*
X129067806Y-103480763D01*
X129236166Y-103566546D01*
X129236168Y-103566547D01*
X129415882Y-103624940D01*
X129602519Y-103654500D01*
X130381521Y-103654500D01*
X130416169Y-103668852D01*
X131119148Y-104371830D01*
X131133500Y-104406478D01*
X131133500Y-108121521D01*
X131119148Y-108156169D01*
X130416169Y-108859148D01*
X130381521Y-108873500D01*
X129602519Y-108873500D01*
X129567397Y-108879062D01*
X129415884Y-108903059D01*
X129415881Y-108903060D01*
X129236166Y-108961453D01*
X129067806Y-109047236D01*
X128914920Y-109158315D01*
X128781315Y-109291920D01*
X128670236Y-109444806D01*
X128584453Y-109613166D01*
X128526060Y-109792881D01*
X128526059Y-109792884D01*
X128496500Y-109979519D01*
X128496500Y-110168480D01*
X128526059Y-110355115D01*
X128526060Y-110355118D01*
X128584453Y-110534833D01*
X128670236Y-110703193D01*
X128670239Y-110703197D01*
X128670240Y-110703199D01*
X128781310Y-110856073D01*
X128781312Y-110856075D01*
X128781315Y-110856079D01*
X128914920Y-110989684D01*
X128914923Y-110989686D01*
X128914927Y-110989690D01*
X129067801Y-111100760D01*
X129067803Y-111100761D01*
X129067806Y-111100763D01*
X129192696Y-111164397D01*
X129236168Y-111186547D01*
X129415882Y-111244940D01*
X129602519Y-111274500D01*
X129602520Y-111274500D01*
X130993560Y-111274500D01*
X130993562Y-111274500D01*
X131076836Y-111261310D01*
X131113301Y-111270065D01*
X131132897Y-111302041D01*
X131133500Y-111309707D01*
X131133500Y-128514440D01*
X131119148Y-128549088D01*
X122719148Y-136949088D01*
X122684500Y-136963440D01*
X122649852Y-136949088D01*
X122635500Y-136914440D01*
X122635500Y-136748255D01*
X122635500Y-136748252D01*
X122623867Y-136689769D01*
X122594287Y-136645500D01*
X122579552Y-136623447D01*
X122539795Y-136596882D01*
X122513231Y-136579133D01*
X122454748Y-136567500D01*
X119415252Y-136567500D01*
X119356769Y-136579133D01*
X119290447Y-136623447D01*
X119246133Y-136689769D01*
X119234500Y-136748252D01*
X119234500Y-139787748D01*
X98778500Y-139787748D01*
X98778500Y-138865748D01*
X107970001Y-138865748D01*
X107981634Y-138924231D01*
X107999383Y-138950795D01*
X108025948Y-138990552D01*
X108052513Y-139008301D01*
X108092270Y-139034867D01*
X108150753Y-139046500D01*
X108150756Y-139046500D01*
X110095246Y-139046500D01*
X110095249Y-139046500D01*
X110153732Y-139034867D01*
X110220053Y-138990552D01*
X110264368Y-138924231D01*
X110276001Y-138865748D01*
X110276001Y-137984242D01*
X113050001Y-137984242D01*
X113078391Y-138163492D01*
X113078392Y-138163495D01*
X113134474Y-138336099D01*
X113216863Y-138497798D01*
X113216866Y-138497802D01*
X113216867Y-138497804D01*
X113323542Y-138644629D01*
X113323544Y-138644631D01*
X113323547Y-138644635D01*
X113451865Y-138772953D01*
X113451868Y-138772955D01*
X113451872Y-138772959D01*
X113598697Y-138879634D01*
X113598699Y-138879635D01*
X113598702Y-138879637D01*
X113760401Y-138962026D01*
X113760403Y-138962027D01*
X113933006Y-139018109D01*
X114112258Y-139046500D01*
X114112259Y-139046500D01*
X114293743Y-139046500D01*
X114293744Y-139046500D01*
X114472996Y-139018109D01*
X114645599Y-138962027D01*
X114807305Y-138879634D01*
X114954130Y-138772959D01*
X115082460Y-138644629D01*
X115189135Y-138497804D01*
X115271528Y-138336098D01*
X115327610Y-138163495D01*
X115356001Y-137984243D01*
X115356001Y-137707757D01*
X115327610Y-137528505D01*
X115271528Y-137355902D01*
X115271527Y-137355900D01*
X115189138Y-137194201D01*
X115189136Y-137194198D01*
X115189135Y-137194196D01*
X115082460Y-137047371D01*
X115082456Y-137047367D01*
X115082454Y-137047364D01*
X114954136Y-136919046D01*
X114954137Y-136919046D01*
X114807299Y-136812362D01*
X114645600Y-136729973D01*
X114472996Y-136673891D01*
X114472993Y-136673890D01*
X114335296Y-136652081D01*
X114293744Y-136645500D01*
X114112258Y-136645500D01*
X114078525Y-136650842D01*
X113933008Y-136673890D01*
X113933005Y-136673891D01*
X113760401Y-136729973D01*
X113598702Y-136812362D01*
X113451865Y-136919046D01*
X113323547Y-137047364D01*
X113216863Y-137194201D01*
X113134474Y-137355900D01*
X113078392Y-137528504D01*
X113078391Y-137528507D01*
X113050001Y-137707757D01*
X113050001Y-137984242D01*
X110276001Y-137984242D01*
X110276001Y-136826252D01*
X110264368Y-136767769D01*
X110237802Y-136728012D01*
X110220053Y-136701447D01*
X110178810Y-136673890D01*
X110153732Y-136657133D01*
X110095249Y-136645500D01*
X108150753Y-136645500D01*
X108092270Y-136657133D01*
X108025948Y-136701447D01*
X107994675Y-136748252D01*
X107981634Y-136767769D01*
X107970001Y-136826252D01*
X107970001Y-138865748D01*
X98778500Y-138865748D01*
X98778500Y-130140000D01*
X102697732Y-130140000D01*
X102716777Y-130394151D01*
X102716778Y-130394160D01*
X102773492Y-130642637D01*
X102866608Y-130879891D01*
X102994037Y-131100607D01*
X102994040Y-131100611D01*
X103152945Y-131299872D01*
X103152950Y-131299877D01*
X103339783Y-131473232D01*
X103550366Y-131616805D01*
X103550367Y-131616805D01*
X103550368Y-131616806D01*
X103779989Y-131727386D01*
X103779992Y-131727387D01*
X103779996Y-131727389D01*
X104023542Y-131802513D01*
X104275565Y-131840500D01*
X104275567Y-131840500D01*
X104530433Y-131840500D01*
X104530435Y-131840500D01*
X104782458Y-131802513D01*
X105026004Y-131727389D01*
X105255634Y-131616805D01*
X105466217Y-131473232D01*
X105653050Y-131299877D01*
X105811959Y-131100612D01*
X105939393Y-130879888D01*
X106032508Y-130642637D01*
X106089222Y-130394157D01*
X106108268Y-130140000D01*
X106089222Y-129885843D01*
X106032508Y-129637363D01*
X105939393Y-129400112D01*
X105934264Y-129391228D01*
X105811962Y-129179392D01*
X105811959Y-129179388D01*
X105653054Y-128980127D01*
X105653049Y-128980122D01*
X105466218Y-128806769D01*
X105466216Y-128806767D01*
X105255631Y-128663193D01*
X105026010Y-128552613D01*
X105025997Y-128552608D01*
X104892367Y-128511389D01*
X104782458Y-128477487D01*
X104530435Y-128439500D01*
X104275565Y-128439500D01*
X104023542Y-128477487D01*
X103962655Y-128496268D01*
X103780002Y-128552608D01*
X103779989Y-128552613D01*
X103550368Y-128663193D01*
X103339783Y-128806767D01*
X103339781Y-128806769D01*
X103152950Y-128980122D01*
X103152945Y-128980127D01*
X102994040Y-129179388D01*
X102994037Y-129179392D01*
X102866608Y-129400108D01*
X102773492Y-129637361D01*
X102716778Y-129885839D01*
X102716777Y-129885848D01*
X102697732Y-130140000D01*
X98778500Y-130140000D01*
X98778500Y-127755600D01*
X98790468Y-127723512D01*
X98850374Y-127654376D01*
X98850377Y-127654373D01*
X98910165Y-127523457D01*
X98910165Y-127523455D01*
X98910166Y-127523454D01*
X98930647Y-127381002D01*
X98930647Y-127380997D01*
X98910166Y-127238545D01*
X98905751Y-127228879D01*
X98850377Y-127107627D01*
X98756128Y-126998857D01*
X98635053Y-126921047D01*
X98635050Y-126921046D01*
X98496965Y-126880500D01*
X98496961Y-126880500D01*
X98353039Y-126880500D01*
X98353034Y-126880500D01*
X98214949Y-126921046D01*
X98093871Y-126998857D01*
X97999625Y-127107623D01*
X97999624Y-127107625D01*
X97939835Y-127238541D01*
X97939115Y-127243551D01*
X97933049Y-127261074D01*
X97908201Y-127304111D01*
X97906532Y-127310343D01*
X97906531Y-127310342D01*
X97906531Y-127310346D01*
X97877500Y-127418688D01*
X97877500Y-144026500D01*
X97863148Y-144061148D01*
X97828500Y-144075500D01*
X97458252Y-144075500D01*
X97399769Y-144087133D01*
X97333447Y-144131447D01*
X97295783Y-144187817D01*
X97289133Y-144197769D01*
X97277500Y-144256252D01*
X97277500Y-145995748D01*
X94250486Y-145995748D01*
X94290387Y-145760907D01*
X94310543Y-145402000D01*
X94290387Y-145043093D01*
X94230173Y-144688700D01*
X94130659Y-144343276D01*
X93993094Y-144011167D01*
X93819211Y-143696548D01*
X93816147Y-143692230D01*
X93814535Y-143689957D01*
X93805500Y-143661605D01*
X93805500Y-140270342D01*
X93801726Y-140236853D01*
X93771540Y-139968937D01*
X93768785Y-139956866D01*
X93704051Y-139673246D01*
X93704046Y-139673230D01*
X93704046Y-139673228D01*
X93603868Y-139386935D01*
X93600791Y-139380546D01*
X93472271Y-139113671D01*
X93472266Y-139113661D01*
X93394915Y-138990556D01*
X93394911Y-138990551D01*
X93376988Y-138962027D01*
X93316493Y-138865748D01*
X93310894Y-138856837D01*
X93121786Y-138619703D01*
X93121775Y-138619691D01*
X82625308Y-128123224D01*
X82625296Y-128123213D01*
X82388166Y-127934109D01*
X82388167Y-127934109D01*
X82388165Y-127934108D01*
X82131341Y-127772735D01*
X82131334Y-127772732D01*
X82131330Y-127772729D01*
X82131328Y-127772728D01*
X81858075Y-127641136D01*
X81858069Y-127641133D01*
X81571769Y-127540953D01*
X81571770Y-127540953D01*
X81430931Y-127508808D01*
X81276063Y-127473461D01*
X81276057Y-127473460D01*
X81276056Y-127473460D01*
X80974658Y-127439501D01*
X80974657Y-127439501D01*
X80671343Y-127439501D01*
X80671342Y-127439501D01*
X80369945Y-127473460D01*
X80369941Y-127473460D01*
X80074230Y-127540953D01*
X79787930Y-127641133D01*
X79787924Y-127641136D01*
X79514671Y-127772728D01*
X79514669Y-127772729D01*
X79257833Y-127934109D01*
X79020703Y-128123213D01*
X79020691Y-128123224D01*
X78806224Y-128337691D01*
X78806213Y-128337703D01*
X78617109Y-128574833D01*
X78617108Y-128574835D01*
X78471375Y-128806769D01*
X78455729Y-128831669D01*
X78455728Y-128831671D01*
X78324136Y-129104924D01*
X78324133Y-129104930D01*
X78223953Y-129391230D01*
X78156460Y-129686941D01*
X78156460Y-129686945D01*
X78142136Y-129814080D01*
X78122501Y-129988343D01*
X78122501Y-130291657D01*
X62922500Y-130291657D01*
X62922500Y-125067748D01*
X63282500Y-125067748D01*
X63294133Y-125126231D01*
X63311882Y-125152795D01*
X63338447Y-125192552D01*
X63353520Y-125202623D01*
X63404769Y-125236867D01*
X63463252Y-125248500D01*
X63463255Y-125248500D01*
X64552745Y-125248500D01*
X64552748Y-125248500D01*
X64611231Y-125236867D01*
X64677552Y-125192552D01*
X64721867Y-125126231D01*
X64726107Y-125104911D01*
X64746940Y-125073731D01*
X64783723Y-125066413D01*
X64808813Y-125079824D01*
X64815521Y-125086532D01*
X64934347Y-125165929D01*
X65066380Y-125220619D01*
X65066383Y-125220619D01*
X65066388Y-125220621D01*
X65206539Y-125248499D01*
X65206545Y-125248500D01*
X65349455Y-125248500D01*
X65352991Y-125247796D01*
X65489611Y-125220621D01*
X65489613Y-125220620D01*
X65489620Y-125220619D01*
X65621653Y-125165929D01*
X65740479Y-125086532D01*
X65841532Y-124985479D01*
X65920929Y-124866653D01*
X65975619Y-124734620D01*
X66003500Y-124594455D01*
X66003500Y-124001545D01*
X65975619Y-123861380D01*
X65920929Y-123729347D01*
X65841532Y-123610521D01*
X65829705Y-123598694D01*
X65815353Y-123564046D01*
X65829705Y-123529398D01*
X67736251Y-121622852D01*
X67770899Y-121608500D01*
X69655311Y-121608500D01*
X69685430Y-121600428D01*
X69745673Y-121584286D01*
X69769887Y-121577799D01*
X69872614Y-121518489D01*
X75338631Y-116052470D01*
X75359469Y-116040106D01*
X75394053Y-116029953D01*
X75515128Y-115952143D01*
X75609377Y-115843373D01*
X75669165Y-115712457D01*
X75669165Y-115712455D01*
X75669166Y-115712454D01*
X75689647Y-115570002D01*
X75689647Y-115569997D01*
X75669166Y-115427545D01*
X75661195Y-115410092D01*
X75609377Y-115296627D01*
X75515128Y-115187857D01*
X75394053Y-115110047D01*
X75390828Y-115109100D01*
X75255965Y-115069500D01*
X75255961Y-115069500D01*
X75112039Y-115069500D01*
X75112034Y-115069500D01*
X74973949Y-115110046D01*
X74852871Y-115187857D01*
X74758625Y-115296623D01*
X74758624Y-115296625D01*
X74710475Y-115402052D01*
X74700551Y-115416344D01*
X69423749Y-120693148D01*
X69389101Y-120707500D01*
X67504688Y-120707500D01*
X67414326Y-120731713D01*
X67390115Y-120738199D01*
X67390110Y-120738201D01*
X67287385Y-120797511D01*
X67287385Y-120797512D01*
X64917512Y-123167385D01*
X64917511Y-123167385D01*
X64858201Y-123270111D01*
X64856532Y-123276343D01*
X64856531Y-123276342D01*
X64856531Y-123276346D01*
X64827500Y-123384688D01*
X64827500Y-123477192D01*
X64813148Y-123511840D01*
X64813144Y-123511844D01*
X64808809Y-123516178D01*
X64774159Y-123530526D01*
X64739513Y-123516170D01*
X64726107Y-123491086D01*
X64721867Y-123469769D01*
X64695301Y-123430012D01*
X64677552Y-123403447D01*
X64637795Y-123376882D01*
X64611231Y-123359133D01*
X64552748Y-123347500D01*
X63463252Y-123347500D01*
X63404769Y-123359133D01*
X63338447Y-123403447D01*
X63315357Y-123438005D01*
X63294133Y-123469769D01*
X63282500Y-123528252D01*
X63282500Y-125067748D01*
X62922500Y-125067748D01*
X62922500Y-112574000D01*
X70729417Y-112574000D01*
X70749700Y-112779934D01*
X70809768Y-112977954D01*
X70907315Y-113160450D01*
X71038590Y-113320410D01*
X71198550Y-113451685D01*
X71381046Y-113549232D01*
X71579066Y-113609300D01*
X71785000Y-113629583D01*
X71990934Y-113609300D01*
X72188954Y-113549232D01*
X72371450Y-113451685D01*
X72531410Y-113320410D01*
X72662685Y-113160450D01*
X72760232Y-112977954D01*
X72820300Y-112779934D01*
X72840583Y-112574000D01*
X72820300Y-112368066D01*
X72760232Y-112170046D01*
X72662685Y-111987550D01*
X72531410Y-111827590D01*
X72371450Y-111696315D01*
X72188954Y-111598768D01*
X71990934Y-111538700D01*
X71785000Y-111518417D01*
X71579065Y-111538700D01*
X71579064Y-111538700D01*
X71381043Y-111598769D01*
X71198548Y-111696316D01*
X71038590Y-111827590D01*
X70907316Y-111987548D01*
X70809769Y-112170043D01*
X70749700Y-112368064D01*
X70749700Y-112368065D01*
X70749700Y-112368066D01*
X70729417Y-112574000D01*
X62922500Y-112574000D01*
X62922500Y-110034000D01*
X70729417Y-110034000D01*
X70749700Y-110239934D01*
X70809768Y-110437954D01*
X70907315Y-110620450D01*
X71038590Y-110780410D01*
X71198550Y-110911685D01*
X71381046Y-111009232D01*
X71579066Y-111069300D01*
X71785000Y-111089583D01*
X71990934Y-111069300D01*
X72188954Y-111009232D01*
X72371450Y-110911685D01*
X72531410Y-110780410D01*
X72662685Y-110620450D01*
X72760232Y-110437954D01*
X72820300Y-110239934D01*
X72840583Y-110034000D01*
X72820300Y-109828066D01*
X72760232Y-109630046D01*
X72662685Y-109447550D01*
X72531410Y-109287590D01*
X72371450Y-109156315D01*
X72188954Y-109058768D01*
X71990934Y-108998700D01*
X71785000Y-108978417D01*
X71579065Y-108998700D01*
X71579064Y-108998700D01*
X71381043Y-109058769D01*
X71198548Y-109156316D01*
X71038590Y-109287590D01*
X70907316Y-109447548D01*
X70809769Y-109630043D01*
X70749700Y-109828064D01*
X70749700Y-109828065D01*
X70749700Y-109828066D01*
X70729417Y-110034000D01*
X62922500Y-110034000D01*
X62922500Y-107494000D01*
X70729417Y-107494000D01*
X70749700Y-107699934D01*
X70809768Y-107897954D01*
X70907315Y-108080450D01*
X71038590Y-108240410D01*
X71198550Y-108371685D01*
X71381046Y-108469232D01*
X71579066Y-108529300D01*
X71785000Y-108549583D01*
X71990934Y-108529300D01*
X72188954Y-108469232D01*
X72371450Y-108371685D01*
X72531410Y-108240410D01*
X72662685Y-108080450D01*
X72760232Y-107897954D01*
X72820300Y-107699934D01*
X72840583Y-107494000D01*
X72820300Y-107288066D01*
X72760232Y-107090046D01*
X72662685Y-106907550D01*
X72531410Y-106747590D01*
X72371450Y-106616315D01*
X72188954Y-106518768D01*
X71990934Y-106458700D01*
X71785000Y-106438417D01*
X71579065Y-106458700D01*
X71579064Y-106458700D01*
X71381043Y-106518769D01*
X71198548Y-106616316D01*
X71038590Y-106747590D01*
X70907316Y-106907548D01*
X70809769Y-107090043D01*
X70749700Y-107288064D01*
X70749700Y-107288065D01*
X70749700Y-107288066D01*
X70729417Y-107494000D01*
X62922500Y-107494000D01*
X62922500Y-104954000D01*
X70729417Y-104954000D01*
X70749700Y-105159934D01*
X70809768Y-105357954D01*
X70907315Y-105540450D01*
X71038590Y-105700410D01*
X71198550Y-105831685D01*
X71381046Y-105929232D01*
X71579066Y-105989300D01*
X71785000Y-106009583D01*
X71990934Y-105989300D01*
X72188954Y-105929232D01*
X72371450Y-105831685D01*
X72371458Y-105831677D01*
X72372258Y-105831145D01*
X72372579Y-105831081D01*
X72373573Y-105830550D01*
X72373734Y-105830851D01*
X72409040Y-105823825D01*
X72434133Y-105837236D01*
X80053148Y-113456251D01*
X80067500Y-113490899D01*
X80067500Y-115375310D01*
X80091713Y-115465672D01*
X80091713Y-115465673D01*
X80098200Y-115489886D01*
X80098201Y-115489888D01*
X80144453Y-115569997D01*
X80157511Y-115592614D01*
X90401386Y-125836490D01*
X90401389Y-125836491D01*
X90401392Y-125836494D01*
X90438890Y-125858143D01*
X90504113Y-125895799D01*
X90528326Y-125902286D01*
X90573508Y-125914393D01*
X90618689Y-125926500D01*
X90618691Y-125926500D01*
X120410850Y-125926500D01*
X120437338Y-125934276D01*
X120439947Y-125935953D01*
X120516785Y-125958514D01*
X120578034Y-125976499D01*
X120578037Y-125976499D01*
X120578039Y-125976500D01*
X120578040Y-125976500D01*
X120721960Y-125976500D01*
X120721961Y-125976500D01*
X120721963Y-125976499D01*
X120721965Y-125976499D01*
X120744795Y-125969795D01*
X120860053Y-125935953D01*
X120981128Y-125858143D01*
X121075377Y-125749373D01*
X121135165Y-125618457D01*
X121135165Y-125618455D01*
X121135166Y-125618454D01*
X121155647Y-125476002D01*
X121155647Y-125475997D01*
X121135166Y-125333545D01*
X121130751Y-125323879D01*
X121075377Y-125202627D01*
X121043578Y-125165929D01*
X120981128Y-125093857D01*
X120949811Y-125073731D01*
X120860053Y-125016047D01*
X120860050Y-125016046D01*
X120721965Y-124975500D01*
X120721961Y-124975500D01*
X120578039Y-124975500D01*
X120578034Y-124975500D01*
X120439949Y-125016046D01*
X120439947Y-125016046D01*
X120439947Y-125016047D01*
X120437338Y-125017723D01*
X120410850Y-125025500D01*
X90884900Y-125025500D01*
X90850252Y-125011148D01*
X80982852Y-115143748D01*
X80968500Y-115109100D01*
X80968500Y-113224688D01*
X80939469Y-113116346D01*
X80939468Y-113116342D01*
X80939468Y-113116343D01*
X80937799Y-113110114D01*
X80937799Y-113110113D01*
X80878489Y-113007386D01*
X72877882Y-105006779D01*
X80757517Y-105006779D01*
X80797790Y-105903511D01*
X80878253Y-106797533D01*
X80998746Y-107687044D01*
X81130248Y-108411683D01*
X81159027Y-108570264D01*
X81159034Y-108570298D01*
X81358758Y-109445347D01*
X81358770Y-109445395D01*
X81597570Y-110310667D01*
X81874963Y-111164397D01*
X82190360Y-112004765D01*
X82190363Y-112004773D01*
X82543155Y-112830172D01*
X82543161Y-112830185D01*
X82932613Y-113638890D01*
X82932622Y-113638907D01*
X83357982Y-114429360D01*
X83357987Y-114429368D01*
X83818384Y-115199942D01*
X84312888Y-115949085D01*
X84840505Y-116675288D01*
X85400172Y-117377087D01*
X85990761Y-118053071D01*
X86611084Y-118701877D01*
X87259890Y-119322200D01*
X87935874Y-119912789D01*
X88637673Y-120472456D01*
X89363876Y-121000073D01*
X90113019Y-121494577D01*
X90437782Y-121688614D01*
X90883600Y-121954978D01*
X91674053Y-122380338D01*
X91674070Y-122380347D01*
X92482775Y-122769799D01*
X92482788Y-122769805D01*
X93308189Y-123122598D01*
X93476268Y-123185679D01*
X94148563Y-123437997D01*
X94148582Y-123438003D01*
X94148587Y-123438005D01*
X95002289Y-123715389D01*
X95867577Y-123954194D01*
X96742706Y-124153936D01*
X97625917Y-124314215D01*
X98515428Y-124434708D01*
X99409450Y-124515171D01*
X100306182Y-124555444D01*
X101203803Y-124555444D01*
X101203818Y-124555444D01*
X102100550Y-124515171D01*
X102994572Y-124434708D01*
X103884083Y-124314215D01*
X104767294Y-124153936D01*
X105642423Y-123954194D01*
X106507711Y-123715389D01*
X107361413Y-123438005D01*
X107361423Y-123438001D01*
X107361436Y-123437997D01*
X107808764Y-123270111D01*
X108201811Y-123122598D01*
X109027212Y-122769805D01*
X109557677Y-122514346D01*
X109835929Y-122380347D01*
X109835938Y-122380342D01*
X109835953Y-122380335D01*
X110626407Y-121954974D01*
X111396981Y-121494577D01*
X112146124Y-121000073D01*
X112872327Y-120472456D01*
X113574126Y-119912789D01*
X114250110Y-119322200D01*
X114898916Y-118701877D01*
X115519239Y-118053071D01*
X116109828Y-117377087D01*
X116669495Y-116675288D01*
X117197112Y-115949085D01*
X117691616Y-115199942D01*
X118152013Y-114429368D01*
X118577374Y-113638914D01*
X118648655Y-113490899D01*
X118924328Y-112918458D01*
X118966844Y-112830173D01*
X119319637Y-112004772D01*
X119502169Y-111518417D01*
X119635036Y-111164397D01*
X119635040Y-111164384D01*
X119635044Y-111164374D01*
X119912428Y-110310672D01*
X120151233Y-109445384D01*
X120350975Y-108570255D01*
X120511254Y-107687044D01*
X120631747Y-106797533D01*
X120712210Y-105903511D01*
X120752483Y-105006779D01*
X120755000Y-104557961D01*
X120752483Y-104109143D01*
X120712210Y-103212411D01*
X120631747Y-102318389D01*
X120511254Y-101428878D01*
X120350975Y-100545667D01*
X120151233Y-99670538D01*
X119912428Y-98805250D01*
X119635044Y-97951548D01*
X119635042Y-97951543D01*
X119635036Y-97951524D01*
X119319639Y-97111156D01*
X119319636Y-97111148D01*
X118966844Y-96285749D01*
X118966838Y-96285736D01*
X118577386Y-95477031D01*
X118577377Y-95477014D01*
X118458640Y-95256364D01*
X118341704Y-95039060D01*
X118152017Y-94686561D01*
X117725385Y-93972500D01*
X117691616Y-93915980D01*
X117197112Y-93166837D01*
X117163275Y-93120265D01*
X116669497Y-92440637D01*
X116656808Y-92424726D01*
X116109828Y-91738835D01*
X115519239Y-91062851D01*
X114898916Y-90414045D01*
X114250110Y-89793722D01*
X113574126Y-89203133D01*
X112872327Y-88643466D01*
X112146124Y-88115849D01*
X111396981Y-87621345D01*
X110626407Y-87160948D01*
X110626399Y-87160943D01*
X109835946Y-86735583D01*
X109835929Y-86735574D01*
X109027224Y-86346122D01*
X109027211Y-86346116D01*
X108201812Y-85993324D01*
X108201804Y-85993321D01*
X107361436Y-85677924D01*
X106507706Y-85400531D01*
X105642434Y-85161731D01*
X105642432Y-85161730D01*
X105642423Y-85161728D01*
X105642411Y-85161725D01*
X105642386Y-85161719D01*
X104767337Y-84961995D01*
X104767303Y-84961988D01*
X104767301Y-84961987D01*
X104767294Y-84961986D01*
X103884083Y-84801707D01*
X102994572Y-84681214D01*
X102271448Y-84616132D01*
X102100551Y-84600751D01*
X102044504Y-84598233D01*
X101203818Y-84560478D01*
X101203803Y-84560478D01*
X100306197Y-84560478D01*
X100306182Y-84560478D01*
X99514947Y-84596013D01*
X99409448Y-84600751D01*
X99051841Y-84632936D01*
X98515428Y-84681214D01*
X97625917Y-84801707D01*
X96742706Y-84961986D01*
X96742702Y-84961986D01*
X96742696Y-84961988D01*
X96742662Y-84961995D01*
X95867613Y-85161719D01*
X95867565Y-85161731D01*
X95002293Y-85400531D01*
X94148563Y-85677924D01*
X93308195Y-85993321D01*
X93308187Y-85993324D01*
X92482788Y-86346116D01*
X92482775Y-86346122D01*
X91674070Y-86735574D01*
X91674053Y-86735583D01*
X90883600Y-87160943D01*
X90113018Y-87621345D01*
X89363869Y-88115853D01*
X88637676Y-88643463D01*
X87935882Y-89203126D01*
X87259881Y-89793730D01*
X86611084Y-90414045D01*
X85990769Y-91062842D01*
X85990762Y-91062849D01*
X85990761Y-91062851D01*
X85974896Y-91081010D01*
X85400165Y-91738843D01*
X84840502Y-92440637D01*
X84312892Y-93166830D01*
X83818384Y-93915979D01*
X83357982Y-94686561D01*
X82932622Y-95477014D01*
X82932613Y-95477031D01*
X82543161Y-96285736D01*
X82543155Y-96285749D01*
X82190363Y-97111148D01*
X82190360Y-97111156D01*
X81874963Y-97951524D01*
X81597570Y-98805254D01*
X81358770Y-99670526D01*
X81358758Y-99670574D01*
X81159034Y-100545623D01*
X81159027Y-100545657D01*
X81159025Y-100545667D01*
X80998746Y-101428878D01*
X80878253Y-102318389D01*
X80845196Y-102685688D01*
X80807292Y-103106839D01*
X80797790Y-103212411D01*
X80757517Y-104109143D01*
X80757517Y-105006779D01*
X72877882Y-105006779D01*
X72854671Y-104983568D01*
X72840555Y-104953724D01*
X72820300Y-104748066D01*
X72760232Y-104550046D01*
X72662685Y-104367550D01*
X72531410Y-104207590D01*
X72371450Y-104076315D01*
X72188954Y-103978768D01*
X71990934Y-103918700D01*
X71785000Y-103898417D01*
X71579065Y-103918700D01*
X71579064Y-103918700D01*
X71381043Y-103978769D01*
X71198548Y-104076316D01*
X71038590Y-104207590D01*
X70907316Y-104367548D01*
X70809769Y-104550043D01*
X70749700Y-104748064D01*
X70749700Y-104748065D01*
X70749700Y-104748066D01*
X70729417Y-104954000D01*
X62922500Y-104954000D01*
X62922500Y-103794438D01*
X62900336Y-103654500D01*
X62892940Y-103607801D01*
X62834547Y-103428087D01*
X62834546Y-103428085D01*
X62748763Y-103259725D01*
X62748761Y-103259722D01*
X62748760Y-103259720D01*
X62637690Y-103106846D01*
X62637686Y-103106842D01*
X62637684Y-103106839D01*
X62504073Y-102973229D01*
X61944845Y-102414000D01*
X70729417Y-102414000D01*
X70749700Y-102619934D01*
X70809768Y-102817954D01*
X70907315Y-103000450D01*
X71038590Y-103160410D01*
X71198550Y-103291685D01*
X71381046Y-103389232D01*
X71579066Y-103449300D01*
X71785000Y-103469583D01*
X71990934Y-103449300D01*
X72188954Y-103389232D01*
X72371450Y-103291685D01*
X72531410Y-103160410D01*
X72662685Y-103000450D01*
X72760232Y-102817954D01*
X72820300Y-102619934D01*
X72840583Y-102414000D01*
X72820300Y-102208066D01*
X72760232Y-102010046D01*
X72662685Y-101827550D01*
X72531410Y-101667590D01*
X72371450Y-101536315D01*
X72188954Y-101438768D01*
X71990934Y-101378700D01*
X71785000Y-101358417D01*
X71579065Y-101378700D01*
X71579064Y-101378700D01*
X71381043Y-101438769D01*
X71198548Y-101536316D01*
X71038590Y-101667590D01*
X70907316Y-101827548D01*
X70809769Y-102010043D01*
X70749700Y-102208064D01*
X70749700Y-102208065D01*
X70749700Y-102208066D01*
X70729417Y-102414000D01*
X61944845Y-102414000D01*
X61069160Y-101538314D01*
X61069156Y-101538311D01*
X60987203Y-101478769D01*
X60916280Y-101427240D01*
X60916279Y-101427239D01*
X60916277Y-101427238D01*
X60747914Y-101341453D01*
X60568199Y-101283060D01*
X60568196Y-101283059D01*
X60424825Y-101260352D01*
X60381562Y-101253500D01*
X58990519Y-101253500D01*
X58955397Y-101259062D01*
X58803884Y-101283059D01*
X58803881Y-101283060D01*
X58624166Y-101341453D01*
X58455806Y-101427236D01*
X58302920Y-101538315D01*
X58169315Y-101671920D01*
X58058236Y-101824806D01*
X57972453Y-101993166D01*
X57914060Y-102172881D01*
X57914059Y-102172884D01*
X57884500Y-102359519D01*
X57884500Y-102548480D01*
X57914059Y-102735115D01*
X57914060Y-102735118D01*
X57972453Y-102914833D01*
X58058236Y-103083193D01*
X58058239Y-103083197D01*
X58058240Y-103083199D01*
X58169310Y-103236073D01*
X58169312Y-103236075D01*
X58169315Y-103236079D01*
X58302920Y-103369684D01*
X58302923Y-103369686D01*
X58302927Y-103369690D01*
X58455801Y-103480760D01*
X58455803Y-103480761D01*
X58455806Y-103480763D01*
X58624166Y-103566546D01*
X58624168Y-103566547D01*
X58803882Y-103624940D01*
X58990519Y-103654500D01*
X59769521Y-103654500D01*
X59804169Y-103668852D01*
X60507148Y-104371830D01*
X60521500Y-104406478D01*
X60521500Y-108194440D01*
X60507148Y-108229088D01*
X59877088Y-108859148D01*
X59842440Y-108873500D01*
X58990519Y-108873500D01*
X58955397Y-108879062D01*
X58803884Y-108903059D01*
X58803881Y-108903060D01*
X58624166Y-108961453D01*
X58455806Y-109047236D01*
X58302920Y-109158315D01*
X58169315Y-109291920D01*
X58058236Y-109444806D01*
X57972453Y-109613166D01*
X57914060Y-109792881D01*
X57914059Y-109792884D01*
X57884500Y-109979519D01*
X57884500Y-110168480D01*
X54255000Y-110168480D01*
X54255000Y-107534000D01*
X58029417Y-107534000D01*
X58049700Y-107739934D01*
X58109768Y-107937954D01*
X58207315Y-108120450D01*
X58338590Y-108280410D01*
X58498550Y-108411685D01*
X58681046Y-108509232D01*
X58879066Y-108569300D01*
X59085000Y-108589583D01*
X59290934Y-108569300D01*
X59488954Y-108509232D01*
X59671450Y-108411685D01*
X59831410Y-108280410D01*
X59962685Y-108120450D01*
X60060232Y-107937954D01*
X60120300Y-107739934D01*
X60140583Y-107534000D01*
X60120300Y-107328066D01*
X60060232Y-107130046D01*
X59962685Y-106947550D01*
X59831410Y-106787590D01*
X59671450Y-106656315D01*
X59488954Y-106558768D01*
X59290934Y-106498700D01*
X59085000Y-106478417D01*
X58879065Y-106498700D01*
X58879064Y-106498700D01*
X58681043Y-106558769D01*
X58498548Y-106656316D01*
X58338590Y-106787590D01*
X58207316Y-106947548D01*
X58109769Y-107130043D01*
X58049700Y-107328064D01*
X58049700Y-107328065D01*
X58049700Y-107328066D01*
X58029417Y-107534000D01*
X54255000Y-107534000D01*
X54255000Y-104994000D01*
X58029417Y-104994000D01*
X58049700Y-105199934D01*
X58109768Y-105397954D01*
X58207315Y-105580450D01*
X58338590Y-105740410D01*
X58498550Y-105871685D01*
X58681046Y-105969232D01*
X58879066Y-106029300D01*
X59085000Y-106049583D01*
X59290934Y-106029300D01*
X59488954Y-105969232D01*
X59671450Y-105871685D01*
X59831410Y-105740410D01*
X59962685Y-105580450D01*
X60060232Y-105397954D01*
X60120300Y-105199934D01*
X60140583Y-104994000D01*
X60120300Y-104788066D01*
X60060232Y-104590046D01*
X59962685Y-104407550D01*
X59831410Y-104247590D01*
X59671450Y-104116315D01*
X59488954Y-104018768D01*
X59290934Y-103958700D01*
X59085000Y-103938417D01*
X58879065Y-103958700D01*
X58879064Y-103958700D01*
X58681043Y-104018769D01*
X58498548Y-104116316D01*
X58338590Y-104247590D01*
X58207316Y-104407548D01*
X58109769Y-104590043D01*
X58049700Y-104788064D01*
X58049700Y-104788065D01*
X58049700Y-104788066D01*
X58029417Y-104994000D01*
X54255000Y-104994000D01*
X54255000Y-100008480D01*
X57884500Y-100008480D01*
X57914059Y-100195115D01*
X57914060Y-100195118D01*
X57972453Y-100374833D01*
X58058236Y-100543193D01*
X58058239Y-100543197D01*
X58058240Y-100543199D01*
X58169310Y-100696073D01*
X58169312Y-100696075D01*
X58169315Y-100696079D01*
X58302920Y-100829684D01*
X58302923Y-100829686D01*
X58302927Y-100829690D01*
X58455801Y-100940760D01*
X58455803Y-100940761D01*
X58455806Y-100940763D01*
X58624166Y-101026546D01*
X58624168Y-101026547D01*
X58803882Y-101084940D01*
X58990519Y-101114500D01*
X58990520Y-101114500D01*
X60739480Y-101114500D01*
X60739481Y-101114500D01*
X60926118Y-101084940D01*
X61105832Y-101026547D01*
X61274199Y-100940760D01*
X61427074Y-100829690D01*
X61427077Y-100829686D01*
X61427080Y-100829685D01*
X62382765Y-99874000D01*
X70729417Y-99874000D01*
X70749700Y-100079934D01*
X70809768Y-100277954D01*
X70907315Y-100460450D01*
X71038590Y-100620410D01*
X71198550Y-100751685D01*
X71381046Y-100849232D01*
X71579066Y-100909300D01*
X71785000Y-100929583D01*
X71990934Y-100909300D01*
X72188954Y-100849232D01*
X72371450Y-100751685D01*
X72531410Y-100620410D01*
X72662685Y-100460450D01*
X72760232Y-100277954D01*
X72820300Y-100079934D01*
X72840583Y-99874000D01*
X72820300Y-99668066D01*
X72760232Y-99470046D01*
X72662685Y-99287550D01*
X72531410Y-99127590D01*
X72371450Y-98996315D01*
X72188954Y-98898768D01*
X71990934Y-98838700D01*
X71785000Y-98818417D01*
X71579065Y-98838700D01*
X71579064Y-98838700D01*
X71381043Y-98898769D01*
X71198548Y-98996316D01*
X71038590Y-99127590D01*
X70907316Y-99287548D01*
X70809769Y-99470043D01*
X70749700Y-99668064D01*
X70749700Y-99668065D01*
X70749457Y-99670538D01*
X70729417Y-99874000D01*
X62382765Y-99874000D01*
X62891685Y-99365080D01*
X62891686Y-99365077D01*
X62891690Y-99365074D01*
X63002760Y-99212199D01*
X63088547Y-99043832D01*
X63146940Y-98864118D01*
X63176500Y-98677482D01*
X63176500Y-98488519D01*
X63176500Y-98203748D01*
X70734500Y-98203748D01*
X70746133Y-98262231D01*
X70763882Y-98288795D01*
X70790447Y-98328552D01*
X70817012Y-98346301D01*
X70856769Y-98372867D01*
X70915252Y-98384500D01*
X70915255Y-98384500D01*
X72654745Y-98384500D01*
X72654748Y-98384500D01*
X72713231Y-98372867D01*
X72779552Y-98328552D01*
X72823867Y-98262231D01*
X72835500Y-98203748D01*
X72835500Y-96464252D01*
X72823867Y-96405769D01*
X72797301Y-96366012D01*
X72779552Y-96339447D01*
X72739795Y-96312882D01*
X72713231Y-96295133D01*
X72654748Y-96283500D01*
X70915252Y-96283500D01*
X70856769Y-96295133D01*
X70790447Y-96339447D01*
X70763720Y-96379448D01*
X70746133Y-96405769D01*
X70734500Y-96464252D01*
X70734500Y-98203748D01*
X63176500Y-98203748D01*
X63176500Y-95513559D01*
X63190852Y-95478911D01*
X65252911Y-93416852D01*
X65287559Y-93402500D01*
X81882480Y-93402500D01*
X81882481Y-93402500D01*
X82069118Y-93372940D01*
X82248832Y-93314547D01*
X82417199Y-93228760D01*
X82570074Y-93117690D01*
X91820412Y-83867352D01*
X91855060Y-83853000D01*
X115457940Y-83853000D01*
X115492588Y-83867352D01*
X121975148Y-90349912D01*
X121989500Y-90384560D01*
X121989500Y-129485440D01*
X121975148Y-129520088D01*
X120338088Y-131157148D01*
X120303440Y-131171500D01*
X120201252Y-131171500D01*
X120142769Y-131183133D01*
X120076447Y-131227447D01*
X120032133Y-131293769D01*
X120020500Y-131352252D01*
X120020500Y-131352255D01*
X120020500Y-131490735D01*
X120011142Y-131519536D01*
X119994243Y-131542794D01*
X119994238Y-131542803D01*
X119908453Y-131711166D01*
X119850060Y-131890881D01*
X119850059Y-131890884D01*
X119820500Y-132077519D01*
X119820500Y-132266480D01*
X119850059Y-132453115D01*
X119850060Y-132453118D01*
X119908453Y-132632833D01*
X119994236Y-132801192D01*
X119994240Y-132801199D01*
X120011142Y-132824462D01*
X120020500Y-132853263D01*
X120020500Y-132991748D01*
X120032133Y-133050231D01*
X120049882Y-133076795D01*
X120076447Y-133116552D01*
X120103012Y-133134301D01*
X120142769Y-133160867D01*
X120201252Y-133172500D01*
X120339736Y-133172500D01*
X120368538Y-133181859D01*
X120391792Y-133198755D01*
X120391800Y-133198759D01*
X120391801Y-133198760D01*
X120560168Y-133284547D01*
X120739882Y-133342940D01*
X120926519Y-133372500D01*
X120926520Y-133372500D01*
X121115480Y-133372500D01*
X121115481Y-133372500D01*
X121302118Y-133342940D01*
X121481832Y-133284547D01*
X121650199Y-133198760D01*
X121650202Y-133198757D01*
X121650207Y-133198755D01*
X121673462Y-133181859D01*
X121702264Y-133172500D01*
X121840745Y-133172500D01*
X121840748Y-133172500D01*
X121899231Y-133160867D01*
X121965552Y-133116552D01*
X122009867Y-133050231D01*
X122021500Y-132991748D01*
X122021500Y-132889560D01*
X122035852Y-132854912D01*
X124105685Y-130785079D01*
X124105690Y-130785074D01*
X124216760Y-130632199D01*
X124302547Y-130463832D01*
X124360940Y-130284118D01*
X124390500Y-130097482D01*
X124390500Y-129908519D01*
X124390500Y-112614000D01*
X128641417Y-112614000D01*
X128661700Y-112819934D01*
X128661700Y-112819935D01*
X128687855Y-112906158D01*
X128721768Y-113017954D01*
X128819315Y-113200450D01*
X128950590Y-113360410D01*
X129110550Y-113491685D01*
X129293046Y-113589232D01*
X129491066Y-113649300D01*
X129697000Y-113669583D01*
X129902934Y-113649300D01*
X130100954Y-113589232D01*
X130283450Y-113491685D01*
X130443410Y-113360410D01*
X130574685Y-113200450D01*
X130672232Y-113017954D01*
X130732300Y-112819934D01*
X130752583Y-112614000D01*
X130732300Y-112408066D01*
X130672232Y-112210046D01*
X130574685Y-112027550D01*
X130443410Y-111867590D01*
X130283450Y-111736315D01*
X130100954Y-111638768D01*
X129902934Y-111578700D01*
X129697000Y-111558417D01*
X129491065Y-111578700D01*
X129491064Y-111578700D01*
X129293043Y-111638769D01*
X129110548Y-111736316D01*
X128950590Y-111867590D01*
X128819316Y-112027548D01*
X128721769Y-112210043D01*
X128661700Y-112408064D01*
X128661700Y-112408065D01*
X128641417Y-112613999D01*
X128641417Y-112614000D01*
X124390500Y-112614000D01*
X124390500Y-107534000D01*
X128641417Y-107534000D01*
X128661700Y-107739934D01*
X128721768Y-107937954D01*
X128819315Y-108120450D01*
X128950590Y-108280410D01*
X129110550Y-108411685D01*
X129293046Y-108509232D01*
X129491066Y-108569300D01*
X129697000Y-108589583D01*
X129902934Y-108569300D01*
X130100954Y-108509232D01*
X130283450Y-108411685D01*
X130443410Y-108280410D01*
X130574685Y-108120450D01*
X130672232Y-107937954D01*
X130732300Y-107739934D01*
X130752583Y-107534000D01*
X130732300Y-107328066D01*
X130672232Y-107130046D01*
X130574685Y-106947550D01*
X130443410Y-106787590D01*
X130283450Y-106656315D01*
X130100954Y-106558768D01*
X129902934Y-106498700D01*
X129697000Y-106478417D01*
X129491065Y-106498700D01*
X129491064Y-106498700D01*
X129293043Y-106558769D01*
X129110548Y-106656316D01*
X128950590Y-106787590D01*
X128819316Y-106947548D01*
X128721769Y-107130043D01*
X128661700Y-107328064D01*
X128661700Y-107328065D01*
X128661700Y-107328066D01*
X128641417Y-107534000D01*
X124390500Y-107534000D01*
X124390500Y-105736479D01*
X124404852Y-105701831D01*
X125112683Y-104994000D01*
X128641417Y-104994000D01*
X128661700Y-105199934D01*
X128721768Y-105397954D01*
X128819315Y-105580450D01*
X128950590Y-105740410D01*
X129110550Y-105871685D01*
X129293046Y-105969232D01*
X129491066Y-106029300D01*
X129697000Y-106049583D01*
X129902934Y-106029300D01*
X130100954Y-105969232D01*
X130283450Y-105871685D01*
X130443410Y-105740410D01*
X130574685Y-105580450D01*
X130672232Y-105397954D01*
X130732300Y-105199934D01*
X130752583Y-104994000D01*
X130732300Y-104788066D01*
X130672232Y-104590046D01*
X130574685Y-104407550D01*
X130443410Y-104247590D01*
X130283450Y-104116315D01*
X130100954Y-104018768D01*
X129902934Y-103958700D01*
X129697000Y-103938417D01*
X129491065Y-103958700D01*
X129491064Y-103958700D01*
X129293043Y-104018769D01*
X129110548Y-104116316D01*
X128950590Y-104247590D01*
X128819316Y-104407548D01*
X128721769Y-104590043D01*
X128661700Y-104788064D01*
X128661700Y-104788065D01*
X128661700Y-104788066D01*
X128641417Y-104994000D01*
X125112683Y-104994000D01*
X128977831Y-101128852D01*
X129012479Y-101114500D01*
X129791480Y-101114500D01*
X129791481Y-101114500D01*
X129978118Y-101084940D01*
X130157832Y-101026547D01*
X130326199Y-100940760D01*
X130479073Y-100829690D01*
X130612690Y-100696073D01*
X130723760Y-100543199D01*
X130809547Y-100374832D01*
X130867940Y-100195118D01*
X130897500Y-100008481D01*
X130897500Y-99819519D01*
X130867940Y-99632882D01*
X130809547Y-99453168D01*
X130723760Y-99284801D01*
X130612690Y-99131927D01*
X130612686Y-99131923D01*
X130612684Y-99131920D01*
X130479079Y-98998315D01*
X130479080Y-98998315D01*
X130342067Y-98898769D01*
X130326199Y-98887240D01*
X130326197Y-98887239D01*
X130326193Y-98887236D01*
X130157833Y-98801453D01*
X129978118Y-98743060D01*
X129978115Y-98743059D01*
X129834744Y-98720352D01*
X129791481Y-98713500D01*
X128400438Y-98713500D01*
X128365316Y-98719062D01*
X128213803Y-98743059D01*
X128213800Y-98743060D01*
X128034085Y-98801453D01*
X127865722Y-98887238D01*
X127712843Y-98998311D01*
X124474148Y-102237006D01*
X124439500Y-102251358D01*
X124404852Y-102237006D01*
X124390500Y-102202358D01*
X124390500Y-93472002D01*
X127764353Y-93472002D01*
X127784833Y-93614454D01*
X127816935Y-93684746D01*
X127844623Y-93745373D01*
X127844624Y-93745374D01*
X127844625Y-93745376D01*
X127879227Y-93785309D01*
X127938872Y-93854143D01*
X128059947Y-93931953D01*
X128136785Y-93954514D01*
X128198034Y-93972499D01*
X128198037Y-93972499D01*
X128198039Y-93972500D01*
X128238101Y-93972500D01*
X128272749Y-93986852D01*
X137203148Y-102917251D01*
X137217500Y-102951899D01*
X137217500Y-121205101D01*
X137203148Y-121239749D01*
X136037512Y-122405385D01*
X136037511Y-122405385D01*
X135978201Y-122508111D01*
X135976532Y-122514343D01*
X135976531Y-122514342D01*
X135976531Y-122514346D01*
X135947500Y-122622688D01*
X135947500Y-123477192D01*
X135933148Y-123511840D01*
X135933144Y-123511844D01*
X135928809Y-123516178D01*
X135894159Y-123530526D01*
X135859513Y-123516170D01*
X135846107Y-123491086D01*
X135841867Y-123469769D01*
X135815301Y-123430012D01*
X135797552Y-123403447D01*
X135757795Y-123376882D01*
X135731231Y-123359133D01*
X135672748Y-123347500D01*
X134583252Y-123347500D01*
X134524769Y-123359133D01*
X134458447Y-123403447D01*
X134435357Y-123438005D01*
X134414133Y-123469769D01*
X134402500Y-123528252D01*
X134402500Y-125067748D01*
X134414133Y-125126231D01*
X134431882Y-125152795D01*
X134458447Y-125192552D01*
X134473520Y-125202623D01*
X134524769Y-125236867D01*
X134583252Y-125248500D01*
X134628500Y-125248500D01*
X134663148Y-125262852D01*
X134677500Y-125297500D01*
X134677500Y-130615308D01*
X134684823Y-130642637D01*
X134684823Y-130642638D01*
X134708200Y-130729886D01*
X134708201Y-130729888D01*
X134767511Y-130832614D01*
X141170148Y-137235251D01*
X141184500Y-137269899D01*
X141184500Y-143976500D01*
X141170148Y-144011148D01*
X141135500Y-144025500D01*
X140715252Y-144025500D01*
X140656769Y-144037133D01*
X140590447Y-144081447D01*
X140553561Y-144136652D01*
X140546133Y-144147769D01*
X140534500Y-144206252D01*
X140534500Y-146045748D01*
X140546133Y-146104231D01*
X140553562Y-146115349D01*
X140590447Y-146170552D01*
X140617012Y-146188301D01*
X140656769Y-146214867D01*
X140715252Y-146226500D01*
X140715255Y-146226500D01*
X142554745Y-146226500D01*
X142554748Y-146226500D01*
X142613231Y-146214867D01*
X142679552Y-146170552D01*
X142723867Y-146104231D01*
X142735500Y-146045748D01*
X142735500Y-144206252D01*
X142723867Y-144147769D01*
X142697301Y-144108012D01*
X142679552Y-144081447D01*
X142639795Y-144054882D01*
X142613231Y-144037133D01*
X142554748Y-144025500D01*
X142554745Y-144025500D01*
X142134500Y-144025500D01*
X142099852Y-144011148D01*
X142085500Y-143976500D01*
X142085500Y-137003688D01*
X142056469Y-136895346D01*
X142056468Y-136895342D01*
X142056468Y-136895343D01*
X142054799Y-136889114D01*
X142054799Y-136889113D01*
X142054798Y-136889111D01*
X141995494Y-136786392D01*
X141995491Y-136786389D01*
X141995490Y-136786386D01*
X135592852Y-130383748D01*
X135578500Y-130349100D01*
X135578500Y-125297500D01*
X135592852Y-125262852D01*
X135627500Y-125248500D01*
X135672745Y-125248500D01*
X135672748Y-125248500D01*
X135731231Y-125236867D01*
X135797552Y-125192552D01*
X135841867Y-125126231D01*
X135846107Y-125104911D01*
X135866940Y-125073731D01*
X135903723Y-125066413D01*
X135928813Y-125079824D01*
X135935521Y-125086532D01*
X136054347Y-125165929D01*
X136186380Y-125220619D01*
X136186383Y-125220619D01*
X136186388Y-125220621D01*
X136326539Y-125248499D01*
X136326545Y-125248500D01*
X136469455Y-125248500D01*
X136472991Y-125247796D01*
X136609611Y-125220621D01*
X136609613Y-125220620D01*
X136609620Y-125220619D01*
X136741653Y-125165929D01*
X136860479Y-125086532D01*
X136961532Y-124985479D01*
X137040929Y-124866653D01*
X137095619Y-124734620D01*
X137123500Y-124594455D01*
X137123500Y-124001545D01*
X137095619Y-123861380D01*
X137040929Y-123729347D01*
X137001230Y-123669934D01*
X136961532Y-123610520D01*
X136862852Y-123511840D01*
X136848500Y-123477192D01*
X136848500Y-122888899D01*
X136862852Y-122854251D01*
X138028488Y-121688615D01*
X138028489Y-121688614D01*
X138087799Y-121585887D01*
X138105858Y-121518489D01*
X138118500Y-121471309D01*
X138118500Y-112614000D01*
X141341417Y-112614000D01*
X141361700Y-112819934D01*
X141361700Y-112819935D01*
X141387855Y-112906158D01*
X141421768Y-113017954D01*
X141519315Y-113200450D01*
X141650590Y-113360410D01*
X141810550Y-113491685D01*
X141993046Y-113589232D01*
X142191066Y-113649300D01*
X142397000Y-113669583D01*
X142602934Y-113649300D01*
X142800954Y-113589232D01*
X142983450Y-113491685D01*
X143143410Y-113360410D01*
X143274685Y-113200450D01*
X143372232Y-113017954D01*
X143432300Y-112819934D01*
X143452583Y-112614000D01*
X143432300Y-112408066D01*
X143372232Y-112210046D01*
X143274685Y-112027550D01*
X143143410Y-111867590D01*
X142983450Y-111736315D01*
X142800954Y-111638768D01*
X142602934Y-111578700D01*
X142397000Y-111558417D01*
X142191065Y-111578700D01*
X142191064Y-111578700D01*
X141993043Y-111638769D01*
X141810548Y-111736316D01*
X141650590Y-111867590D01*
X141519316Y-112027548D01*
X141421769Y-112210043D01*
X141361700Y-112408064D01*
X141361700Y-112408065D01*
X141341417Y-112613999D01*
X141341417Y-112614000D01*
X138118500Y-112614000D01*
X138118500Y-110074000D01*
X141341417Y-110074000D01*
X141361700Y-110279934D01*
X141361700Y-110279935D01*
X141371024Y-110310672D01*
X141421768Y-110477954D01*
X141519315Y-110660450D01*
X141650590Y-110820410D01*
X141810550Y-110951685D01*
X141993046Y-111049232D01*
X142191066Y-111109300D01*
X142397000Y-111129583D01*
X142602934Y-111109300D01*
X142800954Y-111049232D01*
X142983450Y-110951685D01*
X143143410Y-110820410D01*
X143274685Y-110660450D01*
X143372232Y-110477954D01*
X143432300Y-110279934D01*
X143452583Y-110074000D01*
X143432300Y-109868066D01*
X143372232Y-109670046D01*
X143274685Y-109487550D01*
X143143410Y-109327590D01*
X142983450Y-109196315D01*
X142800954Y-109098768D01*
X142602934Y-109038700D01*
X142397000Y-109018417D01*
X142191065Y-109038700D01*
X142191064Y-109038700D01*
X141993043Y-109098769D01*
X141810548Y-109196316D01*
X141650590Y-109327590D01*
X141519316Y-109487548D01*
X141421769Y-109670043D01*
X141361700Y-109868064D01*
X141361700Y-109868065D01*
X141341417Y-110073999D01*
X141341417Y-110074000D01*
X138118500Y-110074000D01*
X138118500Y-107534000D01*
X141341417Y-107534000D01*
X141361700Y-107739934D01*
X141421768Y-107937954D01*
X141519315Y-108120450D01*
X141650590Y-108280410D01*
X141810550Y-108411685D01*
X141993046Y-108509232D01*
X142191066Y-108569300D01*
X142397000Y-108589583D01*
X142602934Y-108569300D01*
X142800954Y-108509232D01*
X142983450Y-108411685D01*
X143143410Y-108280410D01*
X143274685Y-108120450D01*
X143372232Y-107937954D01*
X143432300Y-107739934D01*
X143452583Y-107534000D01*
X143432300Y-107328066D01*
X143372232Y-107130046D01*
X143274685Y-106947550D01*
X143143410Y-106787590D01*
X142983450Y-106656315D01*
X142800954Y-106558768D01*
X142602934Y-106498700D01*
X142397000Y-106478417D01*
X142191065Y-106498700D01*
X142191064Y-106498700D01*
X141993043Y-106558769D01*
X141810548Y-106656316D01*
X141650590Y-106787590D01*
X141519316Y-106947548D01*
X141421769Y-107130043D01*
X141361700Y-107328064D01*
X141361700Y-107328065D01*
X141361700Y-107328066D01*
X141341417Y-107534000D01*
X138118500Y-107534000D01*
X138118500Y-104994000D01*
X141341417Y-104994000D01*
X141361700Y-105199934D01*
X141421768Y-105397954D01*
X141519315Y-105580450D01*
X141650590Y-105740410D01*
X141810550Y-105871685D01*
X141993046Y-105969232D01*
X142191066Y-106029300D01*
X142397000Y-106049583D01*
X142602934Y-106029300D01*
X142800954Y-105969232D01*
X142983450Y-105871685D01*
X143143410Y-105740410D01*
X143274685Y-105580450D01*
X143372232Y-105397954D01*
X143432300Y-105199934D01*
X143452583Y-104994000D01*
X143432300Y-104788066D01*
X143372232Y-104590046D01*
X143274685Y-104407550D01*
X143143410Y-104247590D01*
X142983450Y-104116315D01*
X142800954Y-104018768D01*
X142602934Y-103958700D01*
X142397000Y-103938417D01*
X142191065Y-103958700D01*
X142191064Y-103958700D01*
X141993043Y-104018769D01*
X141810548Y-104116316D01*
X141650590Y-104247590D01*
X141519316Y-104407548D01*
X141421769Y-104590043D01*
X141361700Y-104788064D01*
X141361700Y-104788065D01*
X141361700Y-104788066D01*
X141341417Y-104994000D01*
X138118500Y-104994000D01*
X138118500Y-102685691D01*
X138118500Y-102685688D01*
X138087799Y-102571115D01*
X138087798Y-102571112D01*
X138054425Y-102513309D01*
X138054424Y-102513308D01*
X138028491Y-102468389D01*
X138028486Y-102468383D01*
X128671614Y-93111511D01*
X128568888Y-93052201D01*
X128543283Y-93045340D01*
X128543282Y-93045340D01*
X128531068Y-93042067D01*
X128517260Y-93035958D01*
X128480053Y-93012047D01*
X128341965Y-92971500D01*
X128341961Y-92971500D01*
X128198039Y-92971500D01*
X128198034Y-92971500D01*
X128059949Y-93012046D01*
X127938871Y-93089857D01*
X127844625Y-93198623D01*
X127844624Y-93198625D01*
X127784833Y-93329545D01*
X127764353Y-93471997D01*
X127764353Y-93472002D01*
X124390500Y-93472002D01*
X124390500Y-79511560D01*
X124404852Y-79476912D01*
X133406684Y-70475080D01*
X133406690Y-70475074D01*
X133517760Y-70322199D01*
X133518851Y-70320698D01*
X133550828Y-70301103D01*
X133558493Y-70300500D01*
X134794101Y-70300500D01*
X134828749Y-70314852D01*
X139631148Y-75117251D01*
X139645500Y-75151899D01*
X139645500Y-83496972D01*
X139631148Y-83531620D01*
X139619599Y-83540186D01*
X139537458Y-83584091D01*
X139385117Y-83709117D01*
X139343377Y-83759977D01*
X139310302Y-83777655D01*
X139274414Y-83766768D01*
X139256736Y-83733693D01*
X139256500Y-83728891D01*
X139256500Y-78548688D01*
X139227469Y-78440346D01*
X139227468Y-78440342D01*
X139227468Y-78440343D01*
X139225799Y-78434114D01*
X139225799Y-78434113D01*
X139166490Y-78331386D01*
X136373445Y-75538342D01*
X136363522Y-75524050D01*
X136315377Y-75418627D01*
X136315374Y-75418623D01*
X136221128Y-75309857D01*
X136218939Y-75308450D01*
X136100053Y-75232047D01*
X136100050Y-75232046D01*
X135961965Y-75191500D01*
X135961961Y-75191500D01*
X135818039Y-75191500D01*
X135818034Y-75191500D01*
X135679949Y-75232046D01*
X135679947Y-75232046D01*
X135679947Y-75232047D01*
X135677338Y-75233723D01*
X135650850Y-75241500D01*
X134052688Y-75241500D01*
X133962326Y-75265713D01*
X133938115Y-75272199D01*
X133938110Y-75272201D01*
X133835385Y-75331511D01*
X133835385Y-75331512D01*
X127843749Y-81323148D01*
X127809101Y-81337500D01*
X126731150Y-81337500D01*
X126704661Y-81329723D01*
X126702053Y-81328047D01*
X126702050Y-81328046D01*
X126563965Y-81287500D01*
X126563961Y-81287500D01*
X126420039Y-81287500D01*
X126420034Y-81287500D01*
X126281949Y-81328046D01*
X126160871Y-81405857D01*
X126066625Y-81514623D01*
X126066624Y-81514625D01*
X126006833Y-81645545D01*
X125986353Y-81787997D01*
X125986353Y-81788002D01*
X126006833Y-81930454D01*
X126038935Y-82000746D01*
X126066623Y-82061373D01*
X126066624Y-82061374D01*
X126066625Y-82061376D01*
X126142108Y-82148488D01*
X126160872Y-82170143D01*
X126281947Y-82247953D01*
X126358785Y-82270514D01*
X126420034Y-82288499D01*
X126420037Y-82288499D01*
X126420039Y-82288500D01*
X126420040Y-82288500D01*
X126563960Y-82288500D01*
X126563961Y-82288500D01*
X126563963Y-82288499D01*
X126563965Y-82288499D01*
X126586795Y-82281795D01*
X126702053Y-82247953D01*
X126704661Y-82246276D01*
X126731150Y-82238500D01*
X128075311Y-82238500D01*
X128105430Y-82230428D01*
X128165673Y-82214286D01*
X128189887Y-82207799D01*
X128292614Y-82148489D01*
X130431102Y-80010001D01*
X132336353Y-80010001D01*
X132356835Y-80152457D01*
X132356835Y-80152458D01*
X132387072Y-80218665D01*
X132391500Y-80239021D01*
X132391500Y-95039060D01*
X132405279Y-95090481D01*
X132405279Y-95090482D01*
X132422200Y-95153636D01*
X132422201Y-95153638D01*
X132481511Y-95256364D01*
X140039636Y-102814490D01*
X140039639Y-102814491D01*
X140039642Y-102814494D01*
X140045639Y-102817956D01*
X140142363Y-102873799D01*
X140166576Y-102880286D01*
X140211758Y-102892393D01*
X140256939Y-102904500D01*
X140256941Y-102904500D01*
X141417279Y-102904500D01*
X141451927Y-102918852D01*
X141460490Y-102930398D01*
X141519315Y-103040450D01*
X141650590Y-103200410D01*
X141810550Y-103331685D01*
X141993046Y-103429232D01*
X142191066Y-103489300D01*
X142397000Y-103509583D01*
X142602934Y-103489300D01*
X142800954Y-103429232D01*
X142983450Y-103331685D01*
X143143410Y-103200410D01*
X143274685Y-103040450D01*
X143372232Y-102857954D01*
X143432300Y-102659934D01*
X143452583Y-102454000D01*
X143432300Y-102248066D01*
X143372232Y-102050046D01*
X143274685Y-101867550D01*
X143143410Y-101707590D01*
X142983450Y-101576315D01*
X142800954Y-101478768D01*
X142602934Y-101418700D01*
X142397000Y-101398417D01*
X142191065Y-101418700D01*
X142191064Y-101418700D01*
X141993043Y-101478769D01*
X141810548Y-101576316D01*
X141650590Y-101707590D01*
X141519316Y-101867548D01*
X141519315Y-101867550D01*
X141460491Y-101977599D01*
X141431503Y-102001390D01*
X141417279Y-102003500D01*
X140523150Y-102003500D01*
X140488502Y-101989148D01*
X133306852Y-94807498D01*
X133292500Y-94772850D01*
X133292500Y-80239021D01*
X133296928Y-80218665D01*
X133327165Y-80152457D01*
X133347647Y-80010000D01*
X133347647Y-80009997D01*
X133327166Y-79867545D01*
X133322751Y-79857879D01*
X133267377Y-79736627D01*
X133173128Y-79627857D01*
X133052053Y-79550047D01*
X133052050Y-79550046D01*
X132913965Y-79509500D01*
X132913961Y-79509500D01*
X132770039Y-79509500D01*
X132770034Y-79509500D01*
X132631949Y-79550046D01*
X132510871Y-79627857D01*
X132416625Y-79736623D01*
X132416624Y-79736625D01*
X132356833Y-79867545D01*
X132336353Y-80009997D01*
X132336353Y-80010001D01*
X130431102Y-80010001D01*
X131701102Y-78740001D01*
X133860353Y-78740001D01*
X133880835Y-78882457D01*
X133880835Y-78882458D01*
X133911072Y-78948665D01*
X133915500Y-78969021D01*
X133915500Y-93785310D01*
X133928142Y-93832488D01*
X133928142Y-93832489D01*
X133946200Y-93899886D01*
X133946201Y-93899888D01*
X133996411Y-93986852D01*
X134005511Y-94002614D01*
X140277387Y-100274490D01*
X140277390Y-100274491D01*
X140277393Y-100274494D01*
X140380111Y-100333798D01*
X140380113Y-100333798D01*
X140380114Y-100333799D01*
X140408758Y-100341474D01*
X140494688Y-100364500D01*
X140494691Y-100364500D01*
X141417279Y-100364500D01*
X141451927Y-100378852D01*
X141460490Y-100390398D01*
X141519315Y-100500450D01*
X141650590Y-100660410D01*
X141810550Y-100791685D01*
X141993046Y-100889232D01*
X142191066Y-100949300D01*
X142397000Y-100969583D01*
X142602934Y-100949300D01*
X142800954Y-100889232D01*
X142983450Y-100791685D01*
X143143410Y-100660410D01*
X143274685Y-100500450D01*
X143372232Y-100317954D01*
X143432300Y-100119934D01*
X143452583Y-99914000D01*
X143432300Y-99708066D01*
X143372232Y-99510046D01*
X143274685Y-99327550D01*
X143143410Y-99167590D01*
X142983450Y-99036315D01*
X142800954Y-98938768D01*
X142602934Y-98878700D01*
X142397000Y-98858417D01*
X142191065Y-98878700D01*
X142191064Y-98878700D01*
X141993043Y-98938769D01*
X141810548Y-99036316D01*
X141650590Y-99167590D01*
X141519316Y-99327548D01*
X141519315Y-99327550D01*
X141460491Y-99437599D01*
X141431503Y-99461390D01*
X141417279Y-99463500D01*
X140760899Y-99463500D01*
X140726251Y-99449148D01*
X134830852Y-93553749D01*
X134816500Y-93519101D01*
X134816500Y-78969021D01*
X134820928Y-78948665D01*
X134851165Y-78882457D01*
X134871647Y-78740000D01*
X134871647Y-78739997D01*
X134851166Y-78597545D01*
X134846751Y-78587879D01*
X134791377Y-78466627D01*
X134789200Y-78464115D01*
X134697128Y-78357857D01*
X134576053Y-78280047D01*
X134576050Y-78280046D01*
X134437965Y-78239500D01*
X134437961Y-78239500D01*
X134294039Y-78239500D01*
X134294034Y-78239500D01*
X134155949Y-78280046D01*
X134034871Y-78357857D01*
X133940625Y-78466623D01*
X133940624Y-78466625D01*
X133880833Y-78597545D01*
X133860353Y-78739997D01*
X133860353Y-78740001D01*
X131701102Y-78740001D01*
X134284251Y-76156852D01*
X134318899Y-76142500D01*
X135650850Y-76142500D01*
X135677338Y-76150276D01*
X135679947Y-76151953D01*
X135714527Y-76162106D01*
X135735369Y-76174472D01*
X138341148Y-78780251D01*
X138355500Y-78814899D01*
X138355500Y-90583100D01*
X138341148Y-90617748D01*
X137890127Y-91068768D01*
X137855479Y-91083120D01*
X137841256Y-91081010D01*
X137752136Y-91053977D01*
X137752132Y-91053976D01*
X137556000Y-91034659D01*
X137359867Y-91053976D01*
X137359866Y-91053976D01*
X137171273Y-91111185D01*
X136997458Y-91204092D01*
X136997455Y-91204094D01*
X136845117Y-91329117D01*
X136720094Y-91481455D01*
X136720092Y-91481458D01*
X136627185Y-91655273D01*
X136569976Y-91843866D01*
X136569976Y-91843867D01*
X136550659Y-92039999D01*
X136550659Y-92040001D01*
X136559146Y-92126181D01*
X136548259Y-92162069D01*
X136515184Y-92179747D01*
X136479296Y-92168860D01*
X136475734Y-92165631D01*
X136354852Y-92044749D01*
X136340500Y-92010101D01*
X136340500Y-77953021D01*
X136344928Y-77932665D01*
X136375165Y-77866457D01*
X136395647Y-77724000D01*
X136387302Y-77665956D01*
X136375166Y-77581545D01*
X136370751Y-77571879D01*
X136315377Y-77450627D01*
X136221128Y-77341857D01*
X136100053Y-77264047D01*
X136100050Y-77264046D01*
X135961965Y-77223500D01*
X135961961Y-77223500D01*
X135818039Y-77223500D01*
X135818034Y-77223500D01*
X135679949Y-77264046D01*
X135558871Y-77341857D01*
X135464625Y-77450623D01*
X135464624Y-77450625D01*
X135404833Y-77581545D01*
X135384353Y-77723997D01*
X135384353Y-77724001D01*
X135404835Y-77866457D01*
X135404835Y-77866458D01*
X135435072Y-77932665D01*
X135439500Y-77953021D01*
X135439500Y-92276310D01*
X135450300Y-92316613D01*
X135450300Y-92316614D01*
X135470200Y-92390886D01*
X135470201Y-92390888D01*
X135498924Y-92440637D01*
X135529511Y-92493614D01*
X140770386Y-97734489D01*
X140829696Y-97768731D01*
X140873114Y-97793799D01*
X140873116Y-97793799D01*
X140873117Y-97793800D01*
X140987687Y-97824499D01*
X140987688Y-97824500D01*
X140987691Y-97824500D01*
X141297500Y-97824500D01*
X141332148Y-97838852D01*
X141346500Y-97873500D01*
X141346500Y-98243748D01*
X141358133Y-98302231D01*
X141375720Y-98328552D01*
X141402447Y-98368552D01*
X141426315Y-98384500D01*
X141468769Y-98412867D01*
X141527252Y-98424500D01*
X141527255Y-98424500D01*
X143266745Y-98424500D01*
X143266748Y-98424500D01*
X143325231Y-98412867D01*
X143391552Y-98368552D01*
X143435867Y-98302231D01*
X143447500Y-98243748D01*
X143447500Y-96504252D01*
X143435867Y-96445769D01*
X143409139Y-96405769D01*
X143391552Y-96379447D01*
X143351795Y-96352882D01*
X143325231Y-96335133D01*
X143266748Y-96323500D01*
X141527252Y-96323500D01*
X141468769Y-96335133D01*
X141402447Y-96379447D01*
X141358133Y-96445769D01*
X141346500Y-96504252D01*
X141346500Y-96504255D01*
X141346500Y-96874500D01*
X141332148Y-96909148D01*
X141297500Y-96923500D01*
X141253899Y-96923500D01*
X141219251Y-96909148D01*
X137430368Y-93120265D01*
X137416016Y-93085617D01*
X137430368Y-93050969D01*
X137465016Y-93036617D01*
X137469817Y-93036852D01*
X137556000Y-93045341D01*
X137752132Y-93026024D01*
X137940727Y-92968814D01*
X138114538Y-92875910D01*
X138266883Y-92750883D01*
X138391910Y-92598538D01*
X138484814Y-92424727D01*
X138542024Y-92236132D01*
X138561341Y-92040000D01*
X139090659Y-92040000D01*
X139109976Y-92236132D01*
X139109976Y-92236133D01*
X139167185Y-92424726D01*
X139260092Y-92598541D01*
X139260094Y-92598544D01*
X139326310Y-92679227D01*
X139385117Y-92750883D01*
X139472427Y-92822537D01*
X139537455Y-92875905D01*
X139537458Y-92875907D01*
X139537462Y-92875910D01*
X139711273Y-92968814D01*
X139899868Y-93026024D01*
X140096000Y-93045341D01*
X140292132Y-93026024D01*
X140480727Y-92968814D01*
X140654538Y-92875910D01*
X140806883Y-92750883D01*
X140931910Y-92598538D01*
X141024814Y-92424727D01*
X141082024Y-92236132D01*
X141101341Y-92040000D01*
X141630659Y-92040000D01*
X141649976Y-92236132D01*
X141649976Y-92236133D01*
X141707185Y-92424726D01*
X141800092Y-92598541D01*
X141800094Y-92598544D01*
X141866310Y-92679227D01*
X141925117Y-92750883D01*
X142012427Y-92822537D01*
X142077455Y-92875905D01*
X142077458Y-92875907D01*
X142077462Y-92875910D01*
X142251273Y-92968814D01*
X142439868Y-93026024D01*
X142636000Y-93045341D01*
X142832132Y-93026024D01*
X143020727Y-92968814D01*
X143194538Y-92875910D01*
X143346883Y-92750883D01*
X143471910Y-92598538D01*
X143564814Y-92424727D01*
X143622024Y-92236132D01*
X143641341Y-92040000D01*
X143622024Y-91843868D01*
X143564814Y-91655273D01*
X143471910Y-91481462D01*
X143471907Y-91481458D01*
X143471905Y-91481455D01*
X143418537Y-91416427D01*
X143346883Y-91329117D01*
X143275227Y-91270310D01*
X143194544Y-91204094D01*
X143194541Y-91204092D01*
X143194539Y-91204091D01*
X143194538Y-91204090D01*
X143114592Y-91161358D01*
X143020726Y-91111185D01*
X142832132Y-91053976D01*
X142636000Y-91034659D01*
X142439867Y-91053976D01*
X142439866Y-91053976D01*
X142251273Y-91111185D01*
X142077458Y-91204092D01*
X142077455Y-91204094D01*
X141925117Y-91329117D01*
X141800094Y-91481455D01*
X141800092Y-91481458D01*
X141707185Y-91655273D01*
X141649976Y-91843866D01*
X141649976Y-91843867D01*
X141630659Y-92039999D01*
X141630659Y-92040000D01*
X141101341Y-92040000D01*
X141082024Y-91843868D01*
X141024814Y-91655273D01*
X140931910Y-91481462D01*
X140931907Y-91481458D01*
X140931905Y-91481455D01*
X140878537Y-91416427D01*
X140806883Y-91329117D01*
X140735227Y-91270310D01*
X140654544Y-91204094D01*
X140654541Y-91204092D01*
X140654539Y-91204091D01*
X140654538Y-91204090D01*
X140574592Y-91161358D01*
X140480726Y-91111185D01*
X140292132Y-91053976D01*
X140096000Y-91034659D01*
X139899867Y-91053976D01*
X139899866Y-91053976D01*
X139711273Y-91111185D01*
X139537458Y-91204092D01*
X139537455Y-91204094D01*
X139385117Y-91329117D01*
X139260094Y-91481455D01*
X139260092Y-91481458D01*
X139167185Y-91655273D01*
X139109976Y-91843866D01*
X139109976Y-91843867D01*
X139090659Y-92039999D01*
X139090659Y-92040000D01*
X138561341Y-92040000D01*
X138542024Y-91843868D01*
X138514988Y-91754742D01*
X138518664Y-91717421D01*
X138527227Y-91705874D01*
X139166489Y-91066614D01*
X139225799Y-90963887D01*
X139244589Y-90893760D01*
X139256500Y-90849309D01*
X139256500Y-85111108D01*
X139270852Y-85076460D01*
X139305500Y-85062108D01*
X139340148Y-85076460D01*
X139343367Y-85080011D01*
X139368888Y-85111108D01*
X139385117Y-85130883D01*
X139537455Y-85255905D01*
X139537458Y-85255907D01*
X139537462Y-85255910D01*
X139711273Y-85348814D01*
X139899868Y-85406024D01*
X140096000Y-85425341D01*
X140292132Y-85406024D01*
X140480727Y-85348814D01*
X140654538Y-85255910D01*
X140674231Y-85239748D01*
X141635500Y-85239748D01*
X141647133Y-85298231D01*
X141664882Y-85324795D01*
X141691447Y-85364552D01*
X141718012Y-85382301D01*
X141757769Y-85408867D01*
X141816252Y-85420500D01*
X141816255Y-85420500D01*
X143455745Y-85420500D01*
X143455748Y-85420500D01*
X143514231Y-85408867D01*
X143580552Y-85364552D01*
X143624867Y-85298231D01*
X143636500Y-85239748D01*
X143636500Y-83600252D01*
X143624867Y-83541769D01*
X143594934Y-83496972D01*
X143580552Y-83475447D01*
X143540795Y-83448882D01*
X143514231Y-83431133D01*
X143455748Y-83419500D01*
X141816252Y-83419500D01*
X141757769Y-83431133D01*
X141691447Y-83475447D01*
X141657441Y-83526342D01*
X141647133Y-83541769D01*
X141635500Y-83600252D01*
X141635500Y-85239748D01*
X140674231Y-85239748D01*
X140806883Y-85130883D01*
X140931910Y-84978538D01*
X141024814Y-84804727D01*
X141082024Y-84616132D01*
X141101341Y-84420000D01*
X141082024Y-84223868D01*
X141024814Y-84035273D01*
X140931910Y-83861462D01*
X140931907Y-83861458D01*
X140931905Y-83861455D01*
X140848623Y-83759977D01*
X140806883Y-83709117D01*
X140752112Y-83664167D01*
X140654541Y-83584091D01*
X140572401Y-83540186D01*
X140548610Y-83511195D01*
X140546500Y-83496972D01*
X140546500Y-74885688D01*
X140517469Y-74777346D01*
X140517468Y-74777342D01*
X140517468Y-74777343D01*
X140515799Y-74771114D01*
X140515799Y-74771113D01*
X140456489Y-74668386D01*
X135277614Y-69489511D01*
X135174888Y-69430201D01*
X135148335Y-69423086D01*
X135060312Y-69399500D01*
X135060309Y-69399500D01*
X133740500Y-69399500D01*
X133705852Y-69385148D01*
X133691500Y-69350500D01*
X133691500Y-65666460D01*
X137353500Y-65666460D01*
X137381378Y-65806611D01*
X137381380Y-65806618D01*
X137436070Y-65938651D01*
X137508076Y-66046417D01*
X137515468Y-66057479D01*
X137616521Y-66158532D01*
X137735347Y-66237929D01*
X137867380Y-66292619D01*
X137867383Y-66292619D01*
X137867388Y-66292621D01*
X138007539Y-66320499D01*
X138007545Y-66320500D01*
X138150455Y-66320500D01*
X138185646Y-66313500D01*
X138290611Y-66292621D01*
X138290613Y-66292620D01*
X138290620Y-66292619D01*
X138422653Y-66237929D01*
X138541479Y-66158532D01*
X138548185Y-66151825D01*
X138582831Y-66137472D01*
X138617480Y-66151822D01*
X138630892Y-66176911D01*
X138635133Y-66198231D01*
X138652562Y-66224315D01*
X138679447Y-66264552D01*
X138700036Y-66278309D01*
X138745769Y-66308867D01*
X138804252Y-66320500D01*
X138804255Y-66320500D01*
X139893745Y-66320500D01*
X139893748Y-66320500D01*
X139952231Y-66308867D01*
X140018552Y-66264552D01*
X140062867Y-66198231D01*
X140074500Y-66139748D01*
X140074500Y-64600252D01*
X140062867Y-64541769D01*
X140025449Y-64485770D01*
X140018552Y-64475447D01*
X139974585Y-64446070D01*
X139952231Y-64431133D01*
X139893748Y-64419500D01*
X139893745Y-64419500D01*
X139848500Y-64419500D01*
X139813852Y-64405148D01*
X139799500Y-64370500D01*
X139799500Y-62782899D01*
X139813852Y-62748251D01*
X144459251Y-58102852D01*
X144493899Y-58088500D01*
X145856745Y-58088500D01*
X145856748Y-58088500D01*
X145915231Y-58076867D01*
X145981552Y-58032552D01*
X146025867Y-57966231D01*
X146037500Y-57907748D01*
X146037500Y-56068252D01*
X146025867Y-56009769D01*
X145996775Y-55966230D01*
X145981552Y-55943447D01*
X145941795Y-55916882D01*
X145915231Y-55899133D01*
X145856748Y-55887500D01*
X144017252Y-55887500D01*
X143958769Y-55899133D01*
X143892447Y-55943447D01*
X143855561Y-55998652D01*
X143848133Y-56009769D01*
X143836500Y-56068252D01*
X143836500Y-56068255D01*
X143836500Y-57431101D01*
X143822148Y-57465749D01*
X138988512Y-62299385D01*
X138988511Y-62299385D01*
X138929201Y-62402111D01*
X138927532Y-62408343D01*
X138927531Y-62408342D01*
X138927531Y-62408346D01*
X138898500Y-62516688D01*
X138898500Y-64370500D01*
X138884148Y-64405148D01*
X138849500Y-64419500D01*
X138804252Y-64419500D01*
X138745769Y-64431133D01*
X138679447Y-64475447D01*
X138635132Y-64541770D01*
X138630892Y-64563087D01*
X138610057Y-64594269D01*
X138573274Y-64601585D01*
X138548186Y-64588175D01*
X138541478Y-64581467D01*
X138457669Y-64525468D01*
X138422653Y-64502071D01*
X138358378Y-64475447D01*
X138290618Y-64447380D01*
X138290611Y-64447378D01*
X138150460Y-64419500D01*
X138150455Y-64419500D01*
X138007545Y-64419500D01*
X138007539Y-64419500D01*
X137867388Y-64447378D01*
X137867381Y-64447380D01*
X137735348Y-64502070D01*
X137616521Y-64581467D01*
X137515467Y-64682521D01*
X137436070Y-64801348D01*
X137381380Y-64933381D01*
X137381378Y-64933388D01*
X137353500Y-65073539D01*
X137353500Y-65666460D01*
X133691500Y-65666460D01*
X133691500Y-63308519D01*
X133661940Y-63121884D01*
X133661940Y-63121882D01*
X133603547Y-62942168D01*
X133581900Y-62899683D01*
X133517763Y-62773806D01*
X133517761Y-62773803D01*
X133517760Y-62773801D01*
X133406690Y-62620927D01*
X133406686Y-62620923D01*
X133406684Y-62620920D01*
X133273073Y-62487310D01*
X130830079Y-60044314D01*
X130830075Y-60044311D01*
X130729333Y-59971118D01*
X130677199Y-59933240D01*
X130677198Y-59933239D01*
X130677196Y-59933238D01*
X130508833Y-59847453D01*
X130329118Y-59789060D01*
X130329115Y-59789059D01*
X130185744Y-59766352D01*
X130142481Y-59759500D01*
X130142480Y-59759500D01*
X126628560Y-59759500D01*
X126593912Y-59745148D01*
X126055852Y-59207088D01*
X126041500Y-59172440D01*
X126041500Y-57531000D01*
X126325417Y-57531000D01*
X126345700Y-57736934D01*
X126405768Y-57934954D01*
X126503315Y-58117450D01*
X126634590Y-58277410D01*
X126794550Y-58408685D01*
X126977046Y-58506232D01*
X127175066Y-58566300D01*
X127381000Y-58586583D01*
X127586934Y-58566300D01*
X127784954Y-58506232D01*
X127967450Y-58408685D01*
X128127410Y-58277410D01*
X128258685Y-58117450D01*
X128356232Y-57934954D01*
X128416300Y-57736934D01*
X128436583Y-57531000D01*
X128865417Y-57531000D01*
X128885700Y-57736934D01*
X128945768Y-57934954D01*
X129043315Y-58117450D01*
X129174590Y-58277410D01*
X129334550Y-58408685D01*
X129517046Y-58506232D01*
X129715066Y-58566300D01*
X129921000Y-58586583D01*
X130126934Y-58566300D01*
X130324954Y-58506232D01*
X130507450Y-58408685D01*
X130667410Y-58277410D01*
X130798685Y-58117450D01*
X130896232Y-57934954D01*
X130956300Y-57736934D01*
X130976583Y-57531000D01*
X131405417Y-57531000D01*
X131425700Y-57736934D01*
X131485768Y-57934954D01*
X131583315Y-58117450D01*
X131714590Y-58277410D01*
X131874550Y-58408685D01*
X132057046Y-58506232D01*
X132255066Y-58566300D01*
X132461000Y-58586583D01*
X132666934Y-58566300D01*
X132864954Y-58506232D01*
X133047450Y-58408685D01*
X133207410Y-58277410D01*
X133338685Y-58117450D01*
X133436232Y-57934954D01*
X133496300Y-57736934D01*
X133516583Y-57531000D01*
X133496300Y-57325066D01*
X133436232Y-57127046D01*
X133361910Y-56988000D01*
X141291785Y-56988000D01*
X141310602Y-57191079D01*
X141310603Y-57191085D01*
X141366417Y-57387248D01*
X141366420Y-57387255D01*
X141457325Y-57569818D01*
X141457328Y-57569822D01*
X141580233Y-57732576D01*
X141580236Y-57732579D01*
X141730954Y-57869977D01*
X141730955Y-57869978D01*
X141730959Y-57869981D01*
X141904363Y-57977348D01*
X142094544Y-58051024D01*
X142295024Y-58088500D01*
X142295026Y-58088500D01*
X142498974Y-58088500D01*
X142498976Y-58088500D01*
X142699456Y-58051024D01*
X142889637Y-57977348D01*
X143063041Y-57869981D01*
X143213764Y-57732579D01*
X143336673Y-57569821D01*
X143427582Y-57387250D01*
X143483397Y-57191083D01*
X143502215Y-56988000D01*
X143483397Y-56784917D01*
X143427582Y-56588750D01*
X143336673Y-56406179D01*
X143213764Y-56243421D01*
X143161296Y-56195590D01*
X143063045Y-56106022D01*
X143063042Y-56106020D01*
X143063041Y-56106019D01*
X142889637Y-55998652D01*
X142889634Y-55998651D01*
X142889633Y-55998650D01*
X142699462Y-55924978D01*
X142699460Y-55924977D01*
X142699456Y-55924976D01*
X142498976Y-55887500D01*
X142295024Y-55887500D01*
X142094544Y-55924976D01*
X142094540Y-55924977D01*
X142094537Y-55924978D01*
X141904366Y-55998650D01*
X141730954Y-56106022D01*
X141580236Y-56243420D01*
X141580233Y-56243423D01*
X141457328Y-56406177D01*
X141457325Y-56406181D01*
X141366420Y-56588744D01*
X141366417Y-56588751D01*
X141310603Y-56784914D01*
X141310602Y-56784920D01*
X141291785Y-56988000D01*
X133361910Y-56988000D01*
X133338685Y-56944550D01*
X133207410Y-56784590D01*
X133047450Y-56653315D01*
X132864954Y-56555768D01*
X132666934Y-56495700D01*
X132461000Y-56475417D01*
X132255065Y-56495700D01*
X132255064Y-56495700D01*
X132057043Y-56555769D01*
X131874548Y-56653316D01*
X131714590Y-56784590D01*
X131583316Y-56944548D01*
X131485769Y-57127043D01*
X131425700Y-57325064D01*
X131425700Y-57325065D01*
X131419576Y-57387248D01*
X131405417Y-57531000D01*
X130976583Y-57531000D01*
X130956300Y-57325066D01*
X130896232Y-57127046D01*
X130798685Y-56944550D01*
X130667410Y-56784590D01*
X130507450Y-56653315D01*
X130324954Y-56555768D01*
X130126934Y-56495700D01*
X129921000Y-56475417D01*
X129715065Y-56495700D01*
X129715064Y-56495700D01*
X129517043Y-56555769D01*
X129334548Y-56653316D01*
X129174590Y-56784590D01*
X129043316Y-56944548D01*
X128945769Y-57127043D01*
X128885700Y-57325064D01*
X128885700Y-57325065D01*
X128879576Y-57387248D01*
X128865417Y-57531000D01*
X128436583Y-57531000D01*
X128416300Y-57325066D01*
X128356232Y-57127046D01*
X128258685Y-56944550D01*
X128127410Y-56784590D01*
X127967450Y-56653315D01*
X127784954Y-56555768D01*
X127586934Y-56495700D01*
X127381000Y-56475417D01*
X127175065Y-56495700D01*
X127175064Y-56495700D01*
X126977043Y-56555769D01*
X126794548Y-56653316D01*
X126634590Y-56784590D01*
X126503316Y-56944548D01*
X126405769Y-57127043D01*
X126345700Y-57325064D01*
X126345700Y-57325065D01*
X126339576Y-57387248D01*
X126325417Y-57531000D01*
X126041500Y-57531000D01*
X126041500Y-57436519D01*
X126023848Y-57325066D01*
X126011940Y-57249882D01*
X125953547Y-57070168D01*
X125896841Y-56958875D01*
X125891500Y-56936630D01*
X125891500Y-56661255D01*
X125891500Y-56661252D01*
X125879867Y-56602769D01*
X125848462Y-56555769D01*
X125835552Y-56536447D01*
X125774569Y-56495700D01*
X125769231Y-56492133D01*
X125710748Y-56480500D01*
X125710745Y-56480500D01*
X125435370Y-56480500D01*
X125413125Y-56475159D01*
X125301833Y-56418453D01*
X125122118Y-56360060D01*
X125122115Y-56360059D01*
X124978744Y-56337352D01*
X124935481Y-56330500D01*
X124746519Y-56330500D01*
X124711397Y-56336062D01*
X124559884Y-56360059D01*
X124559881Y-56360060D01*
X124380166Y-56418453D01*
X124268875Y-56475159D01*
X124246630Y-56480500D01*
X123971252Y-56480500D01*
X123912769Y-56492133D01*
X123846447Y-56536447D01*
X123804768Y-56598825D01*
X123802133Y-56602769D01*
X123790500Y-56661252D01*
X123790500Y-56661255D01*
X123790500Y-56936630D01*
X123785159Y-56958875D01*
X123728453Y-57070166D01*
X123670060Y-57249881D01*
X123670059Y-57249884D01*
X123641358Y-57431101D01*
X123640500Y-57436519D01*
X123640500Y-59595519D01*
X123640500Y-59784481D01*
X123642633Y-59797950D01*
X123670059Y-59971115D01*
X123670060Y-59971118D01*
X123728453Y-60150833D01*
X123814238Y-60319196D01*
X123814240Y-60319199D01*
X123843653Y-60359683D01*
X123925311Y-60472075D01*
X123925315Y-60472080D01*
X125328920Y-61875685D01*
X125328924Y-61875688D01*
X125328926Y-61875690D01*
X125481801Y-61986760D01*
X125650168Y-62072547D01*
X125829882Y-62130940D01*
X126016518Y-62160500D01*
X126016519Y-62160500D01*
X129530440Y-62160500D01*
X129565088Y-62174852D01*
X131276148Y-63885911D01*
X131290500Y-63920559D01*
X131290500Y-69175439D01*
X131276148Y-69210087D01*
X122274315Y-78211919D01*
X122187517Y-78331387D01*
X122187516Y-78331386D01*
X122163238Y-78364803D01*
X122077453Y-78533166D01*
X122019060Y-78712881D01*
X122019059Y-78712884D01*
X121989500Y-78899519D01*
X121989500Y-86850440D01*
X121975148Y-86885088D01*
X121940500Y-86899440D01*
X121905852Y-86885088D01*
X120313574Y-85292810D01*
X116756360Y-81735595D01*
X116756329Y-81735566D01*
X113152512Y-78131748D01*
X113634500Y-78131748D01*
X113646133Y-78190231D01*
X113660625Y-78211919D01*
X113690447Y-78256552D01*
X113717012Y-78274301D01*
X113756769Y-78300867D01*
X113815252Y-78312500D01*
X115247101Y-78312500D01*
X115281749Y-78326852D01*
X118134552Y-81179656D01*
X118144476Y-81193948D01*
X118192623Y-81299373D01*
X118192624Y-81299374D01*
X118192625Y-81299376D01*
X118284891Y-81405857D01*
X118286872Y-81408143D01*
X118407947Y-81485953D01*
X118484785Y-81508514D01*
X118546034Y-81526499D01*
X118546037Y-81526499D01*
X118546039Y-81526500D01*
X118546040Y-81526500D01*
X118689960Y-81526500D01*
X118689961Y-81526500D01*
X118689963Y-81526499D01*
X118689965Y-81526499D01*
X118730404Y-81514625D01*
X118828053Y-81485953D01*
X118949128Y-81408143D01*
X119043377Y-81299373D01*
X119103165Y-81168457D01*
X119103165Y-81168455D01*
X119103166Y-81168454D01*
X119123647Y-81026002D01*
X119123647Y-81025997D01*
X119103166Y-80883545D01*
X119098751Y-80873879D01*
X119043377Y-80752627D01*
X118949128Y-80643857D01*
X118828053Y-80566047D01*
X118828050Y-80566045D01*
X118793473Y-80555893D01*
X118772630Y-80543526D01*
X115749852Y-77520748D01*
X115735500Y-77486100D01*
X115735500Y-76392255D01*
X115735500Y-76392252D01*
X115723867Y-76333769D01*
X115692462Y-76286769D01*
X115679552Y-76267447D01*
X115618569Y-76226700D01*
X115613231Y-76223133D01*
X115554748Y-76211500D01*
X113815252Y-76211500D01*
X113756769Y-76223133D01*
X113690447Y-76267447D01*
X113646133Y-76333769D01*
X113634500Y-76392252D01*
X113634500Y-78131748D01*
X113152512Y-78131748D01*
X112720852Y-77700088D01*
X112706500Y-77665440D01*
X112706500Y-74722000D01*
X113629417Y-74722000D01*
X113649700Y-74927934D01*
X113709768Y-75125954D01*
X113807315Y-75308450D01*
X113938590Y-75468410D01*
X114098550Y-75599685D01*
X114281046Y-75697232D01*
X114479066Y-75757300D01*
X114685000Y-75777583D01*
X114890934Y-75757300D01*
X115088954Y-75697232D01*
X115271450Y-75599685D01*
X115431410Y-75468410D01*
X115562685Y-75308450D01*
X115660232Y-75125954D01*
X115720300Y-74927934D01*
X115740583Y-74722000D01*
X115720300Y-74516066D01*
X115660232Y-74318046D01*
X115562685Y-74135550D01*
X115431410Y-73975590D01*
X115271450Y-73844315D01*
X115088954Y-73746768D01*
X114890934Y-73686700D01*
X114685000Y-73666417D01*
X114479065Y-73686700D01*
X114479064Y-73686700D01*
X114281043Y-73746769D01*
X114098548Y-73844316D01*
X113938590Y-73975590D01*
X113807316Y-74135548D01*
X113709769Y-74318043D01*
X113649700Y-74516064D01*
X113649700Y-74516065D01*
X113634698Y-74668386D01*
X113629417Y-74722000D01*
X112706500Y-74722000D01*
X112706500Y-72295519D01*
X112691375Y-72200025D01*
X112688520Y-72182000D01*
X113629417Y-72182000D01*
X113649700Y-72387934D01*
X113709768Y-72585954D01*
X113807315Y-72768450D01*
X113938590Y-72928410D01*
X114098550Y-73059685D01*
X114281046Y-73157232D01*
X114479066Y-73217300D01*
X114685000Y-73237583D01*
X114890934Y-73217300D01*
X115088954Y-73157232D01*
X115271450Y-73059685D01*
X115431410Y-72928410D01*
X115562685Y-72768450D01*
X115660232Y-72585954D01*
X115720300Y-72387934D01*
X115740583Y-72182000D01*
X115720300Y-71976066D01*
X115660232Y-71778046D01*
X115562685Y-71595550D01*
X115431410Y-71435590D01*
X115271450Y-71304315D01*
X115088954Y-71206768D01*
X114890934Y-71146700D01*
X114685000Y-71126417D01*
X114479065Y-71146700D01*
X114479064Y-71146700D01*
X114281043Y-71206769D01*
X114098548Y-71304316D01*
X113938590Y-71435590D01*
X113807316Y-71595548D01*
X113709769Y-71778043D01*
X113649700Y-71976064D01*
X113649700Y-71976065D01*
X113636619Y-72108882D01*
X113629417Y-72182000D01*
X112688520Y-72182000D01*
X112676940Y-72108884D01*
X112676940Y-72108882D01*
X112618547Y-71929168D01*
X112532760Y-71760801D01*
X112421690Y-71607926D01*
X112421688Y-71607924D01*
X112421685Y-71607920D01*
X110455765Y-69642000D01*
X113629417Y-69642000D01*
X113649700Y-69847934D01*
X113649700Y-69847935D01*
X113675855Y-69934158D01*
X113709768Y-70045954D01*
X113807315Y-70228450D01*
X113938590Y-70388410D01*
X114098550Y-70519685D01*
X114281046Y-70617232D01*
X114479066Y-70677300D01*
X114685000Y-70697583D01*
X114890934Y-70677300D01*
X115088954Y-70617232D01*
X115271450Y-70519685D01*
X115431410Y-70388410D01*
X115562685Y-70228450D01*
X115621508Y-70118400D01*
X115650497Y-70094610D01*
X115664721Y-70092500D01*
X119135431Y-70092500D01*
X119170079Y-70106852D01*
X119184431Y-70141500D01*
X119183489Y-70151059D01*
X119174500Y-70196246D01*
X119174500Y-70196252D01*
X119174500Y-73235748D01*
X119186133Y-73294231D01*
X119188806Y-73298231D01*
X119230447Y-73360552D01*
X119236434Y-73364552D01*
X119296769Y-73404867D01*
X119355252Y-73416500D01*
X119355255Y-73416500D01*
X122394745Y-73416500D01*
X122394748Y-73416500D01*
X122453231Y-73404867D01*
X122519552Y-73360552D01*
X122563867Y-73294231D01*
X122575500Y-73235748D01*
X122575500Y-70271899D01*
X122589852Y-70237251D01*
X122624500Y-70222899D01*
X122659148Y-70237251D01*
X122947053Y-70525156D01*
X122956976Y-70539447D01*
X123005123Y-70644873D01*
X123005124Y-70644874D01*
X123005125Y-70644876D01*
X123050796Y-70697583D01*
X123099372Y-70753643D01*
X123220447Y-70831453D01*
X123297285Y-70854014D01*
X123358534Y-70871999D01*
X123358537Y-70871999D01*
X123358539Y-70872000D01*
X123358540Y-70872000D01*
X123502460Y-70872000D01*
X123502461Y-70872000D01*
X123502463Y-70871999D01*
X123502465Y-70871999D01*
X123525295Y-70865295D01*
X123640553Y-70831453D01*
X123761628Y-70753643D01*
X123855877Y-70644873D01*
X123915665Y-70513957D01*
X123915665Y-70513955D01*
X123915666Y-70513954D01*
X123936147Y-70371502D01*
X123936147Y-70371497D01*
X123915666Y-70229045D01*
X123902516Y-70200252D01*
X123855877Y-70098127D01*
X123851001Y-70092500D01*
X123761628Y-69989357D01*
X123640550Y-69911545D01*
X123605973Y-69901393D01*
X123585130Y-69889026D01*
X122977615Y-69281512D01*
X122977614Y-69281511D01*
X122874888Y-69222201D01*
X122874886Y-69222200D01*
X122850673Y-69215713D01*
X122820551Y-69207642D01*
X122760311Y-69191500D01*
X122760309Y-69191500D01*
X115664721Y-69191500D01*
X115630073Y-69177148D01*
X115621509Y-69165601D01*
X115562685Y-69055550D01*
X115431410Y-68895590D01*
X115271450Y-68764315D01*
X115088954Y-68666768D01*
X114890934Y-68606700D01*
X114685000Y-68586417D01*
X114479065Y-68606700D01*
X114479064Y-68606700D01*
X114281043Y-68666769D01*
X114098548Y-68764316D01*
X113938590Y-68895590D01*
X113807316Y-69055548D01*
X113709769Y-69238043D01*
X113649700Y-69436064D01*
X113649700Y-69436065D01*
X113629417Y-69641999D01*
X113629417Y-69642000D01*
X110455765Y-69642000D01*
X107915765Y-67102000D01*
X113629417Y-67102000D01*
X113649700Y-67307934D01*
X113709768Y-67505954D01*
X113807315Y-67688450D01*
X113938590Y-67848410D01*
X114098550Y-67979685D01*
X114281046Y-68077232D01*
X114479066Y-68137300D01*
X114685000Y-68157583D01*
X114890934Y-68137300D01*
X115088954Y-68077232D01*
X115271450Y-67979685D01*
X115431410Y-67848410D01*
X115562685Y-67688450D01*
X115621508Y-67578400D01*
X115650497Y-67554610D01*
X115664721Y-67552500D01*
X122488850Y-67552500D01*
X122515338Y-67560276D01*
X122517947Y-67561953D01*
X122594785Y-67584514D01*
X122656034Y-67602499D01*
X122656037Y-67602499D01*
X122656039Y-67602500D01*
X122656040Y-67602500D01*
X122799960Y-67602500D01*
X122799961Y-67602500D01*
X122799963Y-67602499D01*
X122799965Y-67602499D01*
X122822795Y-67595795D01*
X122938053Y-67561953D01*
X123059128Y-67484143D01*
X123153377Y-67375373D01*
X123213165Y-67244457D01*
X123213165Y-67244455D01*
X123213166Y-67244454D01*
X123233647Y-67102002D01*
X123233647Y-67101997D01*
X123213166Y-66959545D01*
X123196680Y-66923447D01*
X123153377Y-66828627D01*
X123059128Y-66719857D01*
X122938053Y-66642047D01*
X122938050Y-66642046D01*
X122799965Y-66601500D01*
X122799961Y-66601500D01*
X122656039Y-66601500D01*
X122656034Y-66601500D01*
X122517949Y-66642046D01*
X122517947Y-66642046D01*
X122517947Y-66642047D01*
X122515338Y-66643723D01*
X122488850Y-66651500D01*
X115664721Y-66651500D01*
X115630073Y-66637148D01*
X115621509Y-66625601D01*
X115562685Y-66515550D01*
X115431410Y-66355590D01*
X115271450Y-66224315D01*
X115088954Y-66126768D01*
X114890934Y-66066700D01*
X114685000Y-66046417D01*
X114479065Y-66066700D01*
X114479064Y-66066700D01*
X114281043Y-66126769D01*
X114098548Y-66224316D01*
X113938590Y-66355590D01*
X113807316Y-66515548D01*
X113709769Y-66698043D01*
X113649700Y-66896064D01*
X113649700Y-66896065D01*
X113649700Y-66896066D01*
X113629417Y-67102000D01*
X107915765Y-67102000D01*
X105375765Y-64562000D01*
X113629417Y-64562000D01*
X113649700Y-64767934D01*
X113649700Y-64767935D01*
X113659836Y-64801348D01*
X113709768Y-64965954D01*
X113807315Y-65148450D01*
X113938590Y-65308410D01*
X114098550Y-65439685D01*
X114281046Y-65537232D01*
X114479066Y-65597300D01*
X114685000Y-65617583D01*
X114890934Y-65597300D01*
X115088954Y-65537232D01*
X115271450Y-65439685D01*
X115431410Y-65308410D01*
X115562685Y-65148450D01*
X115660232Y-64965954D01*
X115681065Y-64897276D01*
X115704857Y-64868286D01*
X115727955Y-64862500D01*
X122546850Y-64862500D01*
X122573338Y-64870276D01*
X122575947Y-64871953D01*
X122652785Y-64894514D01*
X122714034Y-64912499D01*
X122714037Y-64912499D01*
X122714039Y-64912500D01*
X122714040Y-64912500D01*
X122857960Y-64912500D01*
X122857961Y-64912500D01*
X122857963Y-64912499D01*
X122857965Y-64912499D01*
X122880795Y-64905795D01*
X122996053Y-64871953D01*
X123117128Y-64794143D01*
X123211377Y-64685373D01*
X123271165Y-64554457D01*
X123271165Y-64554455D01*
X123271166Y-64554454D01*
X123291647Y-64412002D01*
X123291647Y-64411997D01*
X123271166Y-64269545D01*
X123228291Y-64175664D01*
X123211377Y-64138627D01*
X123165732Y-64085950D01*
X123117128Y-64029857D01*
X123107863Y-64023903D01*
X122996053Y-63952047D01*
X122996050Y-63952046D01*
X122857965Y-63911500D01*
X122857961Y-63911500D01*
X122714039Y-63911500D01*
X122714034Y-63911500D01*
X122575949Y-63952046D01*
X122575947Y-63952046D01*
X122575947Y-63952047D01*
X122573338Y-63953723D01*
X122546850Y-63961500D01*
X115574330Y-63961500D01*
X115539682Y-63947148D01*
X115536458Y-63943591D01*
X115431410Y-63815590D01*
X115271450Y-63684315D01*
X115088954Y-63586768D01*
X114890934Y-63526700D01*
X114685000Y-63506417D01*
X114479065Y-63526700D01*
X114479064Y-63526700D01*
X114281043Y-63586769D01*
X114098548Y-63684316D01*
X113938590Y-63815590D01*
X113807316Y-63975548D01*
X113709769Y-64158043D01*
X113649700Y-64356064D01*
X113649700Y-64356065D01*
X113629417Y-64561999D01*
X113629417Y-64562000D01*
X105375765Y-64562000D01*
X103652080Y-62838315D01*
X103652075Y-62838311D01*
X103563291Y-62773806D01*
X103499199Y-62727240D01*
X103499198Y-62727239D01*
X103499196Y-62727238D01*
X103330833Y-62641453D01*
X103151118Y-62583060D01*
X103151115Y-62583059D01*
X103007744Y-62560352D01*
X102964481Y-62553500D01*
X102964480Y-62553500D01*
X96275559Y-62553500D01*
X96240911Y-62539148D01*
X95723763Y-62022000D01*
X113629417Y-62022000D01*
X113649700Y-62227934D01*
X113709768Y-62425954D01*
X113807315Y-62608450D01*
X113938590Y-62768410D01*
X114098550Y-62899685D01*
X114281046Y-62997232D01*
X114479066Y-63057300D01*
X114685000Y-63077583D01*
X114890934Y-63057300D01*
X115088954Y-62997232D01*
X115271450Y-62899685D01*
X115431410Y-62768410D01*
X115562685Y-62608450D01*
X115621508Y-62498400D01*
X115650497Y-62474610D01*
X115664721Y-62472500D01*
X120155311Y-62472500D01*
X120185430Y-62464428D01*
X120245673Y-62448286D01*
X120269887Y-62441799D01*
X120372614Y-62382489D01*
X121772489Y-60982614D01*
X121831799Y-60879887D01*
X121838722Y-60854050D01*
X121855656Y-60790852D01*
X121862500Y-60765311D01*
X121862500Y-56086899D01*
X121876852Y-56052251D01*
X122473252Y-55455852D01*
X122507900Y-55441500D01*
X123861279Y-55441500D01*
X123895927Y-55455852D01*
X123904490Y-55467398D01*
X123963315Y-55577450D01*
X124094590Y-55737410D01*
X124254550Y-55868685D01*
X124437046Y-55966232D01*
X124635066Y-56026300D01*
X124841000Y-56046583D01*
X125046934Y-56026300D01*
X125244954Y-55966232D01*
X125427450Y-55868685D01*
X125587410Y-55737410D01*
X125718685Y-55577450D01*
X125816232Y-55394954D01*
X125876300Y-55196934D01*
X125896583Y-54991000D01*
X126325417Y-54991000D01*
X126345700Y-55196934D01*
X126405768Y-55394954D01*
X126503315Y-55577450D01*
X126634590Y-55737410D01*
X126794550Y-55868685D01*
X126977046Y-55966232D01*
X127175066Y-56026300D01*
X127381000Y-56046583D01*
X127586934Y-56026300D01*
X127784954Y-55966232D01*
X127967450Y-55868685D01*
X128127410Y-55737410D01*
X128258685Y-55577450D01*
X128356232Y-55394954D01*
X128416300Y-55196934D01*
X128436583Y-54991000D01*
X128865417Y-54991000D01*
X128885700Y-55196934D01*
X128945768Y-55394954D01*
X129043315Y-55577450D01*
X129174590Y-55737410D01*
X129334550Y-55868685D01*
X129517046Y-55966232D01*
X129715066Y-56026300D01*
X129921000Y-56046583D01*
X130126934Y-56026300D01*
X130324954Y-55966232D01*
X130507450Y-55868685D01*
X130667410Y-55737410D01*
X130798685Y-55577450D01*
X130896232Y-55394954D01*
X130956300Y-55196934D01*
X130976583Y-54991000D01*
X130956300Y-54785066D01*
X130896232Y-54587046D01*
X130798685Y-54404550D01*
X130667410Y-54244590D01*
X130507450Y-54113315D01*
X130324954Y-54015768D01*
X130126934Y-53955700D01*
X129921000Y-53935417D01*
X129715065Y-53955700D01*
X129715064Y-53955700D01*
X129517043Y-54015769D01*
X129334548Y-54113316D01*
X129174590Y-54244590D01*
X129043316Y-54404548D01*
X128945769Y-54587043D01*
X128885700Y-54785064D01*
X128885700Y-54785065D01*
X128885700Y-54785066D01*
X128865417Y-54991000D01*
X128436583Y-54991000D01*
X128416300Y-54785066D01*
X128356232Y-54587046D01*
X128258685Y-54404550D01*
X128127410Y-54244590D01*
X127967450Y-54113315D01*
X127784954Y-54015768D01*
X127586934Y-53955700D01*
X127381000Y-53935417D01*
X127175065Y-53955700D01*
X127175064Y-53955700D01*
X126977043Y-54015769D01*
X126794548Y-54113316D01*
X126634590Y-54244590D01*
X126503316Y-54404548D01*
X126405769Y-54587043D01*
X126345700Y-54785064D01*
X126345700Y-54785065D01*
X126345700Y-54785066D01*
X126325417Y-54991000D01*
X125896583Y-54991000D01*
X125876300Y-54785066D01*
X125816232Y-54587046D01*
X125718685Y-54404550D01*
X125587410Y-54244590D01*
X125427450Y-54113315D01*
X125244954Y-54015768D01*
X125046934Y-53955700D01*
X124841000Y-53935417D01*
X124635065Y-53955700D01*
X124635064Y-53955700D01*
X124437043Y-54015769D01*
X124254548Y-54113316D01*
X124094590Y-54244590D01*
X123963316Y-54404548D01*
X123963315Y-54404550D01*
X123904491Y-54514599D01*
X123875503Y-54538390D01*
X123861279Y-54540500D01*
X122241688Y-54540500D01*
X122151326Y-54564713D01*
X122127113Y-54571200D01*
X122127110Y-54571201D01*
X122024385Y-54630510D01*
X121051512Y-55603384D01*
X121051511Y-55603385D01*
X120992201Y-55706110D01*
X120992199Y-55706115D01*
X120985713Y-55730326D01*
X120961500Y-55820688D01*
X120961500Y-60499101D01*
X120947148Y-60533749D01*
X119923749Y-61557148D01*
X119889101Y-61571500D01*
X115664721Y-61571500D01*
X115630073Y-61557148D01*
X115621509Y-61545601D01*
X115562685Y-61435550D01*
X115431410Y-61275590D01*
X115271450Y-61144315D01*
X115088954Y-61046768D01*
X114890934Y-60986700D01*
X114685000Y-60966417D01*
X114479065Y-60986700D01*
X114479064Y-60986700D01*
X114281043Y-61046769D01*
X114098548Y-61144316D01*
X113938590Y-61275590D01*
X113807316Y-61435548D01*
X113709769Y-61618043D01*
X113649700Y-61816064D01*
X113649700Y-61816065D01*
X113649700Y-61816066D01*
X113629417Y-62022000D01*
X95723763Y-62022000D01*
X94178852Y-60477088D01*
X94164500Y-60442440D01*
X94164500Y-59528000D01*
X95999357Y-59528000D01*
X96019884Y-59749532D01*
X96019885Y-59749538D01*
X96080770Y-59963526D01*
X96080773Y-59963533D01*
X96179940Y-60162686D01*
X96179943Y-60162690D01*
X96314016Y-60340233D01*
X96314019Y-60340236D01*
X96478433Y-60490120D01*
X96478434Y-60490121D01*
X96478438Y-60490124D01*
X96667599Y-60607247D01*
X96875060Y-60687618D01*
X97093757Y-60728500D01*
X97093759Y-60728500D01*
X97316241Y-60728500D01*
X97316243Y-60728500D01*
X97534940Y-60687618D01*
X97742401Y-60607247D01*
X97838496Y-60547748D01*
X103604500Y-60547748D01*
X103616133Y-60606231D01*
X103616813Y-60607248D01*
X103660447Y-60672552D01*
X103682991Y-60687615D01*
X103726769Y-60716867D01*
X103785252Y-60728500D01*
X103785255Y-60728500D01*
X105824745Y-60728500D01*
X105824748Y-60728500D01*
X105883231Y-60716867D01*
X105949552Y-60672552D01*
X105993867Y-60606231D01*
X106005500Y-60547748D01*
X106005500Y-59482000D01*
X113629417Y-59482000D01*
X113649700Y-59687934D01*
X113649700Y-59687935D01*
X113668387Y-59749538D01*
X113709768Y-59885954D01*
X113807315Y-60068450D01*
X113938590Y-60228410D01*
X114098550Y-60359685D01*
X114281046Y-60457232D01*
X114479066Y-60517300D01*
X114685000Y-60537583D01*
X114890934Y-60517300D01*
X115088954Y-60457232D01*
X115271450Y-60359685D01*
X115431410Y-60228410D01*
X115562685Y-60068450D01*
X115660232Y-59885954D01*
X115720300Y-59687934D01*
X115740583Y-59482000D01*
X115720300Y-59276066D01*
X115660232Y-59078046D01*
X115562685Y-58895550D01*
X115431410Y-58735590D01*
X115271450Y-58604315D01*
X115088954Y-58506768D01*
X114890934Y-58446700D01*
X114685000Y-58426417D01*
X114479065Y-58446700D01*
X114479064Y-58446700D01*
X114281043Y-58506769D01*
X114098548Y-58604316D01*
X113938590Y-58735590D01*
X113807316Y-58895548D01*
X113709769Y-59078043D01*
X113649700Y-59276064D01*
X113649700Y-59276065D01*
X113629417Y-59481999D01*
X113629417Y-59482000D01*
X106005500Y-59482000D01*
X106005500Y-58508252D01*
X105993867Y-58449769D01*
X105966414Y-58408683D01*
X105949552Y-58383447D01*
X105909795Y-58356882D01*
X105883231Y-58339133D01*
X105824748Y-58327500D01*
X103785252Y-58327500D01*
X103726769Y-58339133D01*
X103660447Y-58383447D01*
X103618184Y-58446700D01*
X103616133Y-58449769D01*
X103604500Y-58508252D01*
X103604500Y-60547748D01*
X97838496Y-60547748D01*
X97931562Y-60490124D01*
X98095981Y-60340236D01*
X98230058Y-60162689D01*
X98329229Y-59963528D01*
X98390115Y-59749536D01*
X98410643Y-59528000D01*
X98390115Y-59306464D01*
X98329229Y-59092472D01*
X98230058Y-58893311D01*
X98095981Y-58715764D01*
X98095980Y-58715763D01*
X97931566Y-58565879D01*
X97931563Y-58565877D01*
X97931562Y-58565876D01*
X97742401Y-58448753D01*
X97742398Y-58448752D01*
X97742397Y-58448751D01*
X97638670Y-58408567D01*
X97534940Y-58368382D01*
X97316243Y-58327500D01*
X97093757Y-58327500D01*
X96875060Y-58368382D01*
X96875055Y-58368384D01*
X96667602Y-58448751D01*
X96478433Y-58565879D01*
X96314019Y-58715763D01*
X96314016Y-58715766D01*
X96179943Y-58893309D01*
X96179940Y-58893313D01*
X96080773Y-59092466D01*
X96080770Y-59092473D01*
X96019885Y-59306461D01*
X96019884Y-59306467D01*
X95999357Y-59528000D01*
X94164500Y-59528000D01*
X94164500Y-56942000D01*
X113629417Y-56942000D01*
X113649700Y-57147934D01*
X113649700Y-57147935D01*
X113675855Y-57234158D01*
X113709768Y-57345954D01*
X113807315Y-57528450D01*
X113938590Y-57688410D01*
X114098550Y-57819685D01*
X114281046Y-57917232D01*
X114479066Y-57977300D01*
X114685000Y-57997583D01*
X114890934Y-57977300D01*
X115088954Y-57917232D01*
X115271450Y-57819685D01*
X115431410Y-57688410D01*
X115562685Y-57528450D01*
X115660232Y-57345954D01*
X115720300Y-57147934D01*
X115740583Y-56942000D01*
X115720300Y-56736066D01*
X115660232Y-56538046D01*
X115562685Y-56355550D01*
X115431410Y-56195590D01*
X115271450Y-56064315D01*
X115088954Y-55966768D01*
X114890934Y-55906700D01*
X114685000Y-55886417D01*
X114479065Y-55906700D01*
X114479064Y-55906700D01*
X114281043Y-55966769D01*
X114098548Y-56064316D01*
X113938590Y-56195590D01*
X113807316Y-56355548D01*
X113709769Y-56538043D01*
X113649700Y-56736064D01*
X113649700Y-56736065D01*
X113629417Y-56941999D01*
X113629417Y-56942000D01*
X94164500Y-56942000D01*
X94164500Y-54402000D01*
X113629417Y-54402000D01*
X113649700Y-54607934D01*
X113649700Y-54607935D01*
X113656548Y-54630510D01*
X113709768Y-54805954D01*
X113807315Y-54988450D01*
X113938590Y-55148410D01*
X114098550Y-55279685D01*
X114281046Y-55377232D01*
X114479066Y-55437300D01*
X114685000Y-55457583D01*
X114890934Y-55437300D01*
X115088954Y-55377232D01*
X115271450Y-55279685D01*
X115431410Y-55148410D01*
X115562685Y-54988450D01*
X115660232Y-54805954D01*
X115720300Y-54607934D01*
X115740583Y-54402000D01*
X115720300Y-54196066D01*
X115660232Y-53998046D01*
X115562685Y-53815550D01*
X115431410Y-53655590D01*
X115271450Y-53524315D01*
X115088954Y-53426768D01*
X114890934Y-53366700D01*
X114685000Y-53346417D01*
X114479065Y-53366700D01*
X114479064Y-53366700D01*
X114281043Y-53426769D01*
X114098548Y-53524316D01*
X113938590Y-53655590D01*
X113807316Y-53815548D01*
X113709769Y-53998043D01*
X113649700Y-54196064D01*
X113649700Y-54196065D01*
X113629417Y-54401999D01*
X113629417Y-54402000D01*
X94164500Y-54402000D01*
X94164500Y-54007519D01*
X94134940Y-53820884D01*
X94134940Y-53820882D01*
X94076547Y-53641168D01*
X93990760Y-53472801D01*
X93957315Y-53426768D01*
X93913678Y-53366706D01*
X93913672Y-53366699D01*
X93879690Y-53319926D01*
X93879688Y-53319924D01*
X93879685Y-53319920D01*
X91506080Y-50946315D01*
X91506075Y-50946311D01*
X91353196Y-50835238D01*
X91184833Y-50749453D01*
X91005118Y-50691060D01*
X91005115Y-50691059D01*
X90861744Y-50668352D01*
X90818481Y-50661500D01*
X86650519Y-50661500D01*
X86615397Y-50667062D01*
X86463884Y-50691059D01*
X86463881Y-50691060D01*
X86284166Y-50749453D01*
X86115806Y-50835236D01*
X85962920Y-50946315D01*
X85829315Y-51079920D01*
X85718236Y-51232806D01*
X85632453Y-51401166D01*
X85574060Y-51580881D01*
X85574059Y-51580884D01*
X85544500Y-51767519D01*
X85544500Y-51956480D01*
X85574059Y-52143115D01*
X85574060Y-52143118D01*
X85632453Y-52322833D01*
X85718236Y-52491193D01*
X85718239Y-52491197D01*
X85718240Y-52491199D01*
X85829310Y-52644073D01*
X85829312Y-52644075D01*
X85829315Y-52644079D01*
X85962920Y-52777684D01*
X85962923Y-52777686D01*
X85962927Y-52777690D01*
X86115801Y-52888760D01*
X86115803Y-52888761D01*
X86115806Y-52888763D01*
X86284166Y-52974546D01*
X86284168Y-52974547D01*
X86463882Y-53032940D01*
X86650519Y-53062500D01*
X90206440Y-53062500D01*
X90241088Y-53076852D01*
X91749148Y-54584912D01*
X91763500Y-54619560D01*
X91763500Y-61054480D01*
X91793059Y-61241115D01*
X91793060Y-61241118D01*
X91851453Y-61420833D01*
X91937238Y-61589196D01*
X91937240Y-61589199D01*
X91958196Y-61618043D01*
X92048311Y-61742075D01*
X92048314Y-61742079D01*
X94975920Y-64669684D01*
X94975919Y-64669684D01*
X94975926Y-64669689D01*
X94975927Y-64669690D01*
X95128801Y-64780760D01*
X95128803Y-64780761D01*
X95128806Y-64780763D01*
X95169205Y-64801347D01*
X95297168Y-64866547D01*
X95476882Y-64924940D01*
X95663519Y-64954500D01*
X95852482Y-64954500D01*
X102352440Y-64954500D01*
X102387088Y-64968852D01*
X110291148Y-72872912D01*
X110305500Y-72907560D01*
X110305500Y-78088519D01*
X110305500Y-78277481D01*
X110308639Y-78297299D01*
X110335059Y-78464115D01*
X110335060Y-78464118D01*
X110393453Y-78643833D01*
X110470274Y-78794603D01*
X110479240Y-78812199D01*
X110530285Y-78882457D01*
X110590311Y-78965075D01*
X110590314Y-78965079D01*
X112993589Y-81368352D01*
X113007941Y-81403000D01*
X112993589Y-81437648D01*
X112958941Y-81452000D01*
X91243019Y-81452000D01*
X91207897Y-81457562D01*
X91056384Y-81481559D01*
X91056381Y-81481560D01*
X90876666Y-81539953D01*
X90708303Y-81625738D01*
X90555424Y-81736811D01*
X90555420Y-81736814D01*
X81305088Y-90987148D01*
X81270440Y-91001500D01*
X64864482Y-91001500D01*
X64675519Y-91001500D01*
X64640397Y-91007062D01*
X64488884Y-91031059D01*
X64488881Y-91031060D01*
X64309166Y-91089453D01*
X64140806Y-91175236D01*
X63987920Y-91286315D01*
X61060314Y-94213920D01*
X61060311Y-94213924D01*
X60949238Y-94366803D01*
X60863453Y-94535166D01*
X60805060Y-94714881D01*
X60805059Y-94714884D01*
X60775500Y-94901519D01*
X60775500Y-98065440D01*
X60761148Y-98100088D01*
X60162088Y-98699148D01*
X60127440Y-98713500D01*
X58990519Y-98713500D01*
X58955397Y-98719062D01*
X58803884Y-98743059D01*
X58803881Y-98743060D01*
X58624166Y-98801453D01*
X58455806Y-98887236D01*
X58302920Y-98998315D01*
X58169315Y-99131920D01*
X58058236Y-99284806D01*
X57972453Y-99453166D01*
X57914060Y-99632881D01*
X57914059Y-99632884D01*
X57884500Y-99819519D01*
X57884500Y-100008480D01*
X54255000Y-100008480D01*
X54255000Y-85449000D01*
X56459357Y-85449000D01*
X56479884Y-85670532D01*
X56479885Y-85670538D01*
X56540770Y-85884526D01*
X56540773Y-85884533D01*
X56639940Y-86083686D01*
X56639943Y-86083690D01*
X56774016Y-86261233D01*
X56774019Y-86261236D01*
X56938433Y-86411120D01*
X56938434Y-86411121D01*
X56938438Y-86411124D01*
X57127599Y-86528247D01*
X57335060Y-86608618D01*
X57553757Y-86649500D01*
X57553759Y-86649500D01*
X57776241Y-86649500D01*
X57776243Y-86649500D01*
X57994940Y-86608618D01*
X58202401Y-86528247D01*
X58391562Y-86411124D01*
X58555981Y-86261236D01*
X58690058Y-86083689D01*
X58789229Y-85884528D01*
X58850115Y-85670536D01*
X58870643Y-85449000D01*
X62959357Y-85449000D01*
X62979884Y-85670532D01*
X62979885Y-85670538D01*
X63040770Y-85884526D01*
X63040773Y-85884533D01*
X63139940Y-86083686D01*
X63139943Y-86083690D01*
X63274016Y-86261233D01*
X63274019Y-86261236D01*
X63438433Y-86411120D01*
X63438434Y-86411121D01*
X63438438Y-86411124D01*
X63627599Y-86528247D01*
X63835060Y-86608618D01*
X64053757Y-86649500D01*
X64053759Y-86649500D01*
X64276241Y-86649500D01*
X64276243Y-86649500D01*
X64494940Y-86608618D01*
X64702401Y-86528247D01*
X64891562Y-86411124D01*
X65055981Y-86261236D01*
X65190058Y-86083689D01*
X65289229Y-85884528D01*
X65350115Y-85670536D01*
X65370643Y-85449000D01*
X65350115Y-85227464D01*
X65289229Y-85013472D01*
X65190058Y-84814311D01*
X65055981Y-84636764D01*
X65013715Y-84598233D01*
X64891566Y-84486879D01*
X64891563Y-84486877D01*
X64891562Y-84486876D01*
X64702401Y-84369753D01*
X64702398Y-84369752D01*
X64702397Y-84369751D01*
X64598670Y-84329567D01*
X64494940Y-84289382D01*
X64276243Y-84248500D01*
X64053757Y-84248500D01*
X63835060Y-84289382D01*
X63835055Y-84289384D01*
X63627602Y-84369751D01*
X63438433Y-84486879D01*
X63274019Y-84636763D01*
X63274016Y-84636766D01*
X63139943Y-84814309D01*
X63139940Y-84814313D01*
X63040773Y-85013466D01*
X63040770Y-85013473D01*
X62979885Y-85227461D01*
X62979884Y-85227467D01*
X62959357Y-85449000D01*
X58870643Y-85449000D01*
X58850115Y-85227464D01*
X58789229Y-85013472D01*
X58690058Y-84814311D01*
X58555981Y-84636764D01*
X58513715Y-84598233D01*
X58391566Y-84486879D01*
X58391563Y-84486877D01*
X58391562Y-84486876D01*
X58202401Y-84369753D01*
X58202398Y-84369752D01*
X58202397Y-84369751D01*
X58098670Y-84329567D01*
X57994940Y-84289382D01*
X57776243Y-84248500D01*
X57553757Y-84248500D01*
X57335060Y-84289382D01*
X57335055Y-84289384D01*
X57127602Y-84369751D01*
X56938433Y-84486879D01*
X56774019Y-84636763D01*
X56774016Y-84636766D01*
X56639943Y-84814309D01*
X56639940Y-84814313D01*
X56540773Y-85013466D01*
X56540770Y-85013473D01*
X56479885Y-85227461D01*
X56479884Y-85227467D01*
X56459357Y-85449000D01*
X54255000Y-85449000D01*
X54255000Y-78131748D01*
X85694500Y-78131748D01*
X85706133Y-78190231D01*
X85720625Y-78211919D01*
X85750447Y-78256552D01*
X85777012Y-78274301D01*
X85816769Y-78300867D01*
X85875252Y-78312500D01*
X85875255Y-78312500D01*
X87614745Y-78312500D01*
X87614748Y-78312500D01*
X87673231Y-78300867D01*
X87739552Y-78256552D01*
X87783867Y-78190231D01*
X87795500Y-78131748D01*
X87795500Y-77262000D01*
X92039417Y-77262000D01*
X92059700Y-77467934D01*
X92059700Y-77467935D01*
X92071367Y-77506396D01*
X92119768Y-77665954D01*
X92217315Y-77848450D01*
X92348590Y-78008410D01*
X92508550Y-78139685D01*
X92691046Y-78237232D01*
X92889066Y-78297300D01*
X93095000Y-78317583D01*
X93300934Y-78297300D01*
X93498954Y-78237232D01*
X93681450Y-78139685D01*
X93841410Y-78008410D01*
X93972685Y-77848450D01*
X94070232Y-77665954D01*
X94130300Y-77467934D01*
X94150583Y-77262000D01*
X94579417Y-77262000D01*
X94599700Y-77467934D01*
X94599700Y-77467935D01*
X94611367Y-77506396D01*
X94659768Y-77665954D01*
X94757315Y-77848450D01*
X94888590Y-78008410D01*
X95048550Y-78139685D01*
X95231046Y-78237232D01*
X95429066Y-78297300D01*
X95635000Y-78317583D01*
X95840934Y-78297300D01*
X96038954Y-78237232D01*
X96221450Y-78139685D01*
X96381410Y-78008410D01*
X96512685Y-77848450D01*
X96610232Y-77665954D01*
X96670300Y-77467934D01*
X96690583Y-77262000D01*
X97119417Y-77262000D01*
X97139700Y-77467934D01*
X97139700Y-77467935D01*
X97151367Y-77506396D01*
X97199768Y-77665954D01*
X97297315Y-77848450D01*
X97428590Y-78008410D01*
X97588550Y-78139685D01*
X97771046Y-78237232D01*
X97969066Y-78297300D01*
X98175000Y-78317583D01*
X98380934Y-78297300D01*
X98578954Y-78237232D01*
X98761450Y-78139685D01*
X98921410Y-78008410D01*
X99052685Y-77848450D01*
X99150232Y-77665954D01*
X99210300Y-77467934D01*
X99230583Y-77262000D01*
X102199417Y-77262000D01*
X102219700Y-77467934D01*
X102219700Y-77467935D01*
X102231367Y-77506396D01*
X102279768Y-77665954D01*
X102377315Y-77848450D01*
X102508590Y-78008410D01*
X102668550Y-78139685D01*
X102851046Y-78237232D01*
X103049066Y-78297300D01*
X103255000Y-78317583D01*
X103460934Y-78297300D01*
X103658954Y-78237232D01*
X103841450Y-78139685D01*
X104001410Y-78008410D01*
X104132685Y-77848450D01*
X104230232Y-77665954D01*
X104290300Y-77467934D01*
X104310583Y-77262000D01*
X104739417Y-77262000D01*
X104759700Y-77467934D01*
X104759700Y-77467935D01*
X104771367Y-77506396D01*
X104819768Y-77665954D01*
X104917315Y-77848450D01*
X105048590Y-78008410D01*
X105208550Y-78139685D01*
X105391046Y-78237232D01*
X105589066Y-78297300D01*
X105795000Y-78317583D01*
X106000934Y-78297300D01*
X106198954Y-78237232D01*
X106381450Y-78139685D01*
X106391121Y-78131748D01*
X107284500Y-78131748D01*
X107296133Y-78190231D01*
X107310625Y-78211919D01*
X107340447Y-78256552D01*
X107367012Y-78274301D01*
X107406769Y-78300867D01*
X107465252Y-78312500D01*
X107465255Y-78312500D01*
X109204745Y-78312500D01*
X109204748Y-78312500D01*
X109263231Y-78300867D01*
X109329552Y-78256552D01*
X109373867Y-78190231D01*
X109385500Y-78131748D01*
X109385500Y-76392252D01*
X109373867Y-76333769D01*
X109342462Y-76286769D01*
X109329552Y-76267447D01*
X109268569Y-76226700D01*
X109263231Y-76223133D01*
X109204748Y-76211500D01*
X107465252Y-76211500D01*
X107406769Y-76223133D01*
X107340447Y-76267447D01*
X107296133Y-76333769D01*
X107284500Y-76392252D01*
X107284500Y-78131748D01*
X106391121Y-78131748D01*
X106541410Y-78008410D01*
X106672685Y-77848450D01*
X106770232Y-77665954D01*
X106830300Y-77467934D01*
X106850583Y-77262000D01*
X106830300Y-77056066D01*
X106770232Y-76858046D01*
X106672685Y-76675550D01*
X106541410Y-76515590D01*
X106381450Y-76384315D01*
X106198954Y-76286768D01*
X106000934Y-76226700D01*
X105795000Y-76206417D01*
X105589065Y-76226700D01*
X105589064Y-76226700D01*
X105391043Y-76286769D01*
X105208548Y-76384316D01*
X105048590Y-76515590D01*
X104917316Y-76675548D01*
X104819769Y-76858043D01*
X104759700Y-77056064D01*
X104759700Y-77056065D01*
X104739417Y-77261999D01*
X104739417Y-77262000D01*
X104310583Y-77262000D01*
X104290300Y-77056066D01*
X104230232Y-76858046D01*
X104132685Y-76675550D01*
X104001410Y-76515590D01*
X103841450Y-76384315D01*
X103658954Y-76286768D01*
X103460934Y-76226700D01*
X103255000Y-76206417D01*
X103049065Y-76226700D01*
X103049064Y-76226700D01*
X102851043Y-76286769D01*
X102668548Y-76384316D01*
X102508590Y-76515590D01*
X102377316Y-76675548D01*
X102279769Y-76858043D01*
X102219700Y-77056064D01*
X102219700Y-77056065D01*
X102199417Y-77261999D01*
X102199417Y-77262000D01*
X99230583Y-77262000D01*
X99210300Y-77056066D01*
X99150232Y-76858046D01*
X99052685Y-76675550D01*
X98921410Y-76515590D01*
X98761450Y-76384315D01*
X98578954Y-76286768D01*
X98380934Y-76226700D01*
X98175000Y-76206417D01*
X97969065Y-76226700D01*
X97969064Y-76226700D01*
X97771043Y-76286769D01*
X97588548Y-76384316D01*
X97428590Y-76515590D01*
X97297316Y-76675548D01*
X97199769Y-76858043D01*
X97139700Y-77056064D01*
X97139700Y-77056065D01*
X97119417Y-77261999D01*
X97119417Y-77262000D01*
X96690583Y-77262000D01*
X96670300Y-77056066D01*
X96610232Y-76858046D01*
X96512685Y-76675550D01*
X96381410Y-76515590D01*
X96221450Y-76384315D01*
X96038954Y-76286768D01*
X95840934Y-76226700D01*
X95635000Y-76206417D01*
X95429065Y-76226700D01*
X95429064Y-76226700D01*
X95231043Y-76286769D01*
X95048548Y-76384316D01*
X94888590Y-76515590D01*
X94757316Y-76675548D01*
X94659769Y-76858043D01*
X94599700Y-77056064D01*
X94599700Y-77056065D01*
X94579417Y-77261999D01*
X94579417Y-77262000D01*
X94150583Y-77262000D01*
X94130300Y-77056066D01*
X94070232Y-76858046D01*
X93972685Y-76675550D01*
X93841410Y-76515590D01*
X93681450Y-76384315D01*
X93498954Y-76286768D01*
X93300934Y-76226700D01*
X93095000Y-76206417D01*
X92889065Y-76226700D01*
X92889064Y-76226700D01*
X92691043Y-76286769D01*
X92508548Y-76384316D01*
X92348590Y-76515590D01*
X92217316Y-76675548D01*
X92119769Y-76858043D01*
X92059700Y-77056064D01*
X92059700Y-77056065D01*
X92039417Y-77261999D01*
X92039417Y-77262000D01*
X87795500Y-77262000D01*
X87795500Y-76392252D01*
X87783867Y-76333769D01*
X87752462Y-76286769D01*
X87739552Y-76267447D01*
X87678569Y-76226700D01*
X87673231Y-76223133D01*
X87614748Y-76211500D01*
X85875252Y-76211500D01*
X85816769Y-76223133D01*
X85750447Y-76267447D01*
X85706133Y-76333769D01*
X85694500Y-76392252D01*
X85694500Y-78131748D01*
X54255000Y-78131748D01*
X54255000Y-74722000D01*
X85689417Y-74722000D01*
X85709700Y-74927934D01*
X85769768Y-75125954D01*
X85867315Y-75308450D01*
X85998590Y-75468410D01*
X86158550Y-75599685D01*
X86341046Y-75697232D01*
X86539066Y-75757300D01*
X86745000Y-75777583D01*
X86950934Y-75757300D01*
X87148954Y-75697232D01*
X87331450Y-75599685D01*
X87491410Y-75468410D01*
X87622685Y-75308450D01*
X87720232Y-75125954D01*
X87780300Y-74927934D01*
X87800583Y-74722000D01*
X92039417Y-74722000D01*
X92059700Y-74927934D01*
X92119768Y-75125954D01*
X92217315Y-75308450D01*
X92348590Y-75468410D01*
X92508550Y-75599685D01*
X92691046Y-75697232D01*
X92889066Y-75757300D01*
X93095000Y-75777583D01*
X93300934Y-75757300D01*
X93498954Y-75697232D01*
X93681450Y-75599685D01*
X93841410Y-75468410D01*
X93972685Y-75308450D01*
X94070232Y-75125954D01*
X94130300Y-74927934D01*
X94150583Y-74722000D01*
X94579417Y-74722000D01*
X94599700Y-74927934D01*
X94659768Y-75125954D01*
X94757315Y-75308450D01*
X94888590Y-75468410D01*
X95048550Y-75599685D01*
X95231046Y-75697232D01*
X95429066Y-75757300D01*
X95635000Y-75777583D01*
X95840934Y-75757300D01*
X96038954Y-75697232D01*
X96221450Y-75599685D01*
X96381410Y-75468410D01*
X96512685Y-75308450D01*
X96610232Y-75125954D01*
X96670300Y-74927934D01*
X96690583Y-74722000D01*
X97119417Y-74722000D01*
X97139700Y-74927934D01*
X97199768Y-75125954D01*
X97297315Y-75308450D01*
X97428590Y-75468410D01*
X97588550Y-75599685D01*
X97771046Y-75697232D01*
X97969066Y-75757300D01*
X98175000Y-75777583D01*
X98380934Y-75757300D01*
X98578954Y-75697232D01*
X98761450Y-75599685D01*
X98921410Y-75468410D01*
X99052685Y-75308450D01*
X99150232Y-75125954D01*
X99210300Y-74927934D01*
X99230583Y-74722000D01*
X99659417Y-74722000D01*
X99679700Y-74927934D01*
X99739768Y-75125954D01*
X99837315Y-75308450D01*
X99968590Y-75468410D01*
X100128550Y-75599685D01*
X100311046Y-75697232D01*
X100509066Y-75757300D01*
X100715000Y-75777583D01*
X100920934Y-75757300D01*
X101118954Y-75697232D01*
X101301450Y-75599685D01*
X101461410Y-75468410D01*
X101592685Y-75308450D01*
X101690232Y-75125954D01*
X101750300Y-74927934D01*
X101770583Y-74722000D01*
X102199417Y-74722000D01*
X102219700Y-74927934D01*
X102279768Y-75125954D01*
X102377315Y-75308450D01*
X102508590Y-75468410D01*
X102668550Y-75599685D01*
X102851046Y-75697232D01*
X103049066Y-75757300D01*
X103255000Y-75777583D01*
X103460934Y-75757300D01*
X103658954Y-75697232D01*
X103841450Y-75599685D01*
X104001410Y-75468410D01*
X104132685Y-75308450D01*
X104230232Y-75125954D01*
X104290300Y-74927934D01*
X104310583Y-74722000D01*
X104739417Y-74722000D01*
X104759700Y-74927934D01*
X104819768Y-75125954D01*
X104917315Y-75308450D01*
X105048590Y-75468410D01*
X105208550Y-75599685D01*
X105391046Y-75697232D01*
X105589066Y-75757300D01*
X105795000Y-75777583D01*
X106000934Y-75757300D01*
X106198954Y-75697232D01*
X106381450Y-75599685D01*
X106541410Y-75468410D01*
X106672685Y-75308450D01*
X106770232Y-75125954D01*
X106830300Y-74927934D01*
X106850583Y-74722000D01*
X107279417Y-74722000D01*
X107299700Y-74927934D01*
X107359768Y-75125954D01*
X107457315Y-75308450D01*
X107588590Y-75468410D01*
X107748550Y-75599685D01*
X107931046Y-75697232D01*
X108129066Y-75757300D01*
X108335000Y-75777583D01*
X108540934Y-75757300D01*
X108738954Y-75697232D01*
X108921450Y-75599685D01*
X109081410Y-75468410D01*
X109212685Y-75308450D01*
X109310232Y-75125954D01*
X109370300Y-74927934D01*
X109390583Y-74722000D01*
X109370300Y-74516066D01*
X109310232Y-74318046D01*
X109212685Y-74135550D01*
X109081410Y-73975590D01*
X108921450Y-73844315D01*
X108738954Y-73746768D01*
X108540934Y-73686700D01*
X108335000Y-73666417D01*
X108129065Y-73686700D01*
X108129064Y-73686700D01*
X107931043Y-73746769D01*
X107748548Y-73844316D01*
X107588590Y-73975590D01*
X107457316Y-74135548D01*
X107359769Y-74318043D01*
X107299700Y-74516064D01*
X107299700Y-74516065D01*
X107284698Y-74668386D01*
X107279417Y-74722000D01*
X106850583Y-74722000D01*
X106830300Y-74516066D01*
X106770232Y-74318046D01*
X106672685Y-74135550D01*
X106541410Y-73975590D01*
X106381450Y-73844315D01*
X106198954Y-73746768D01*
X106000934Y-73686700D01*
X105795000Y-73666417D01*
X105589065Y-73686700D01*
X105589064Y-73686700D01*
X105391043Y-73746769D01*
X105208548Y-73844316D01*
X105048590Y-73975590D01*
X104917316Y-74135548D01*
X104819769Y-74318043D01*
X104759700Y-74516064D01*
X104759700Y-74516065D01*
X104744698Y-74668386D01*
X104739417Y-74722000D01*
X104310583Y-74722000D01*
X104290300Y-74516066D01*
X104230232Y-74318046D01*
X104132685Y-74135550D01*
X104001410Y-73975590D01*
X103841450Y-73844315D01*
X103658954Y-73746768D01*
X103460934Y-73686700D01*
X103255000Y-73666417D01*
X103049065Y-73686700D01*
X103049064Y-73686700D01*
X102851043Y-73746769D01*
X102668548Y-73844316D01*
X102508590Y-73975590D01*
X102377316Y-74135548D01*
X102279769Y-74318043D01*
X102219700Y-74516064D01*
X102219700Y-74516065D01*
X102204698Y-74668386D01*
X102199417Y-74722000D01*
X101770583Y-74722000D01*
X101750300Y-74516066D01*
X101690232Y-74318046D01*
X101592685Y-74135550D01*
X101461410Y-73975590D01*
X101301450Y-73844315D01*
X101118954Y-73746768D01*
X100920934Y-73686700D01*
X100715000Y-73666417D01*
X100509065Y-73686700D01*
X100509064Y-73686700D01*
X100311043Y-73746769D01*
X100128548Y-73844316D01*
X99968590Y-73975590D01*
X99837316Y-74135548D01*
X99739769Y-74318043D01*
X99679700Y-74516064D01*
X99679700Y-74516065D01*
X99664698Y-74668386D01*
X99659417Y-74722000D01*
X99230583Y-74722000D01*
X99210300Y-74516066D01*
X99150232Y-74318046D01*
X99052685Y-74135550D01*
X98921410Y-73975590D01*
X98761450Y-73844315D01*
X98578954Y-73746768D01*
X98380934Y-73686700D01*
X98175000Y-73666417D01*
X97969065Y-73686700D01*
X97969064Y-73686700D01*
X97771043Y-73746769D01*
X97588548Y-73844316D01*
X97428590Y-73975590D01*
X97297316Y-74135548D01*
X97199769Y-74318043D01*
X97139700Y-74516064D01*
X97139700Y-74516065D01*
X97124698Y-74668386D01*
X97119417Y-74722000D01*
X96690583Y-74722000D01*
X96670300Y-74516066D01*
X96610232Y-74318046D01*
X96512685Y-74135550D01*
X96381410Y-73975590D01*
X96221450Y-73844315D01*
X96038954Y-73746768D01*
X95840934Y-73686700D01*
X95635000Y-73666417D01*
X95429065Y-73686700D01*
X95429064Y-73686700D01*
X95231043Y-73746769D01*
X95048548Y-73844316D01*
X94888590Y-73975590D01*
X94757316Y-74135548D01*
X94659769Y-74318043D01*
X94599700Y-74516064D01*
X94599700Y-74516065D01*
X94584698Y-74668386D01*
X94579417Y-74722000D01*
X94150583Y-74722000D01*
X94130300Y-74516066D01*
X94070232Y-74318046D01*
X93972685Y-74135550D01*
X93841410Y-73975590D01*
X93681450Y-73844315D01*
X93498954Y-73746768D01*
X93300934Y-73686700D01*
X93095000Y-73666417D01*
X92889065Y-73686700D01*
X92889064Y-73686700D01*
X92691043Y-73746769D01*
X92508548Y-73844316D01*
X92348590Y-73975590D01*
X92217316Y-74135548D01*
X92119769Y-74318043D01*
X92059700Y-74516064D01*
X92059700Y-74516065D01*
X92044698Y-74668386D01*
X92039417Y-74722000D01*
X87800583Y-74722000D01*
X87780300Y-74516066D01*
X87720232Y-74318046D01*
X87622685Y-74135550D01*
X87491410Y-73975590D01*
X87331450Y-73844315D01*
X87148954Y-73746768D01*
X86950934Y-73686700D01*
X86745000Y-73666417D01*
X86539065Y-73686700D01*
X86539064Y-73686700D01*
X86341043Y-73746769D01*
X86158548Y-73844316D01*
X85998590Y-73975590D01*
X85867316Y-74135548D01*
X85769769Y-74318043D01*
X85709700Y-74516064D01*
X85709700Y-74516065D01*
X85694698Y-74668386D01*
X85689417Y-74722000D01*
X54255000Y-74722000D01*
X54255000Y-73239748D01*
X78974500Y-73239748D01*
X78986133Y-73298231D01*
X79003882Y-73324795D01*
X79030447Y-73364552D01*
X79057012Y-73382301D01*
X79096769Y-73408867D01*
X79155252Y-73420500D01*
X79155255Y-73420500D01*
X82194745Y-73420500D01*
X82194748Y-73420500D01*
X82253231Y-73408867D01*
X82319552Y-73364552D01*
X82363867Y-73298231D01*
X82375500Y-73239748D01*
X82375500Y-72182000D01*
X85689417Y-72182000D01*
X85709700Y-72387934D01*
X85769768Y-72585954D01*
X85867315Y-72768450D01*
X85998590Y-72928410D01*
X86158550Y-73059685D01*
X86341046Y-73157232D01*
X86539066Y-73217300D01*
X86745000Y-73237583D01*
X86950934Y-73217300D01*
X87148954Y-73157232D01*
X87331450Y-73059685D01*
X87491410Y-72928410D01*
X87622685Y-72768450D01*
X87720232Y-72585954D01*
X87780300Y-72387934D01*
X87800583Y-72182000D01*
X87780300Y-71976066D01*
X87720232Y-71778046D01*
X87622685Y-71595550D01*
X87491410Y-71435590D01*
X87331450Y-71304315D01*
X87148954Y-71206768D01*
X86950934Y-71146700D01*
X86745000Y-71126417D01*
X86539065Y-71146700D01*
X86539064Y-71146700D01*
X86341043Y-71206769D01*
X86158548Y-71304316D01*
X85998590Y-71435590D01*
X85867316Y-71595548D01*
X85769769Y-71778043D01*
X85709700Y-71976064D01*
X85709700Y-71976065D01*
X85696619Y-72108882D01*
X85689417Y-72182000D01*
X82375500Y-72182000D01*
X82375500Y-70200252D01*
X82363867Y-70141769D01*
X82330946Y-70092500D01*
X82319552Y-70075447D01*
X82275412Y-70045954D01*
X82253231Y-70031133D01*
X82194748Y-70019500D01*
X79155252Y-70019500D01*
X79096769Y-70031133D01*
X79030447Y-70075447D01*
X79001747Y-70118401D01*
X78986133Y-70141769D01*
X78974500Y-70200252D01*
X78974500Y-73239748D01*
X54255000Y-73239748D01*
X54255000Y-65610460D01*
X62677500Y-65610460D01*
X62705378Y-65750611D01*
X62705380Y-65750618D01*
X62760070Y-65882651D01*
X62839467Y-66001478D01*
X62938148Y-66100159D01*
X62952500Y-66134807D01*
X62952500Y-66278310D01*
X62972111Y-66351497D01*
X62972111Y-66351499D01*
X62983200Y-66392886D01*
X62983201Y-66392888D01*
X63042511Y-66495614D01*
X66249386Y-69702489D01*
X66352113Y-69761799D01*
X66376326Y-69768286D01*
X66421508Y-69780393D01*
X66466689Y-69792500D01*
X66466691Y-69792500D01*
X82024311Y-69792500D01*
X82054430Y-69784428D01*
X82114673Y-69768286D01*
X82138887Y-69761799D01*
X82241614Y-69702489D01*
X82302103Y-69642000D01*
X85689417Y-69642000D01*
X85709700Y-69847934D01*
X85709700Y-69847935D01*
X85735855Y-69934158D01*
X85769768Y-70045954D01*
X85867315Y-70228450D01*
X85998590Y-70388410D01*
X86158550Y-70519685D01*
X86341046Y-70617232D01*
X86539066Y-70677300D01*
X86745000Y-70697583D01*
X86950934Y-70677300D01*
X87148954Y-70617232D01*
X87331450Y-70519685D01*
X87491410Y-70388410D01*
X87622685Y-70228450D01*
X87720232Y-70045954D01*
X87780300Y-69847934D01*
X87800583Y-69642000D01*
X87780300Y-69436066D01*
X87720232Y-69238046D01*
X87622685Y-69055550D01*
X87491410Y-68895590D01*
X87331450Y-68764315D01*
X87148954Y-68666768D01*
X86950934Y-68606700D01*
X86745000Y-68586417D01*
X86539065Y-68606700D01*
X86539064Y-68606700D01*
X86341043Y-68666769D01*
X86158548Y-68764316D01*
X85998590Y-68895590D01*
X85867316Y-69055548D01*
X85769769Y-69238043D01*
X85709700Y-69436064D01*
X85709700Y-69436065D01*
X85689417Y-69641999D01*
X85689417Y-69642000D01*
X82302103Y-69642000D01*
X84842102Y-67102000D01*
X85689417Y-67102000D01*
X85709700Y-67307934D01*
X85769768Y-67505954D01*
X85867315Y-67688450D01*
X85998590Y-67848410D01*
X86158550Y-67979685D01*
X86341046Y-68077232D01*
X86539066Y-68137300D01*
X86745000Y-68157583D01*
X86950934Y-68137300D01*
X87026228Y-68114460D01*
X94016500Y-68114460D01*
X94044378Y-68254611D01*
X94044380Y-68254618D01*
X94044381Y-68254620D01*
X94099071Y-68386653D01*
X94178468Y-68505479D01*
X94279521Y-68606532D01*
X94398347Y-68685929D01*
X94530380Y-68740619D01*
X94530383Y-68740619D01*
X94530388Y-68740621D01*
X94670539Y-68768499D01*
X94670545Y-68768500D01*
X94813455Y-68768500D01*
X94834494Y-68764315D01*
X94953611Y-68740621D01*
X94953613Y-68740620D01*
X94953620Y-68740619D01*
X95085653Y-68685929D01*
X95204479Y-68606532D01*
X95211185Y-68599825D01*
X95245831Y-68585472D01*
X95280480Y-68599822D01*
X95293892Y-68624911D01*
X95298133Y-68646231D01*
X95311856Y-68666768D01*
X95342447Y-68712552D01*
X95369012Y-68730301D01*
X95408769Y-68756867D01*
X95467252Y-68768500D01*
X95467255Y-68768500D01*
X96556745Y-68768500D01*
X96556748Y-68768500D01*
X96615231Y-68756867D01*
X96681552Y-68712552D01*
X96725867Y-68646231D01*
X96737500Y-68587748D01*
X96737500Y-67048252D01*
X96725867Y-66989769D01*
X96699301Y-66950012D01*
X96681552Y-66923447D01*
X96639543Y-66895378D01*
X96615231Y-66879133D01*
X96556748Y-66867500D01*
X95467252Y-66867500D01*
X95408769Y-66879133D01*
X95342447Y-66923447D01*
X95298132Y-66989770D01*
X95293892Y-67011087D01*
X95273057Y-67042269D01*
X95236274Y-67049585D01*
X95211186Y-67036175D01*
X95204478Y-67029467D01*
X95145065Y-66989769D01*
X95085653Y-66950071D01*
X95021378Y-66923447D01*
X94953618Y-66895380D01*
X94953611Y-66895378D01*
X94813460Y-66867500D01*
X94813455Y-66867500D01*
X94670545Y-66867500D01*
X94670539Y-66867500D01*
X94530388Y-66895378D01*
X94530381Y-66895380D01*
X94398348Y-66950070D01*
X94279521Y-67029467D01*
X94178467Y-67130521D01*
X94099070Y-67249348D01*
X94044380Y-67381381D01*
X94044378Y-67381388D01*
X94016500Y-67521539D01*
X94016500Y-68114460D01*
X87026228Y-68114460D01*
X87148954Y-68077232D01*
X87331450Y-67979685D01*
X87491410Y-67848410D01*
X87622685Y-67688450D01*
X87720232Y-67505954D01*
X87780300Y-67307934D01*
X87800583Y-67102000D01*
X87780300Y-66896066D01*
X87720232Y-66698046D01*
X87622685Y-66515550D01*
X87491410Y-66355590D01*
X87331450Y-66224315D01*
X87148954Y-66126768D01*
X86950934Y-66066700D01*
X86745000Y-66046417D01*
X86539065Y-66066700D01*
X86539064Y-66066700D01*
X86341043Y-66126769D01*
X86158548Y-66224316D01*
X85998590Y-66355590D01*
X85867316Y-66515548D01*
X85769769Y-66698043D01*
X85709700Y-66896064D01*
X85709700Y-66896065D01*
X85709700Y-66896066D01*
X85689417Y-67102000D01*
X84842102Y-67102000D01*
X86370784Y-65573318D01*
X86405431Y-65558967D01*
X86419653Y-65561076D01*
X86539066Y-65597300D01*
X86745000Y-65617583D01*
X86950934Y-65597300D01*
X87148954Y-65537232D01*
X87331450Y-65439685D01*
X87491410Y-65308410D01*
X87622685Y-65148450D01*
X87720232Y-64965954D01*
X87780300Y-64767934D01*
X87800583Y-64562000D01*
X87780300Y-64356066D01*
X87720232Y-64158046D01*
X87622685Y-63975550D01*
X87491410Y-63815590D01*
X87331450Y-63684315D01*
X87148954Y-63586768D01*
X86950934Y-63526700D01*
X86745000Y-63506417D01*
X86539065Y-63526700D01*
X86539064Y-63526700D01*
X86341043Y-63586769D01*
X86158548Y-63684316D01*
X85998590Y-63815590D01*
X85867316Y-63975548D01*
X85769769Y-64158043D01*
X85709700Y-64356064D01*
X85709700Y-64356065D01*
X85689417Y-64561999D01*
X85689417Y-64562000D01*
X85709700Y-64767934D01*
X85709700Y-64767936D01*
X85745921Y-64887343D01*
X85742245Y-64924666D01*
X85733679Y-64936215D01*
X81792749Y-68877148D01*
X81758101Y-68891500D01*
X66732899Y-68891500D01*
X66698251Y-68877148D01*
X64169251Y-66348148D01*
X64154899Y-66313500D01*
X64169251Y-66278852D01*
X64203899Y-66264500D01*
X65217745Y-66264500D01*
X65217748Y-66264500D01*
X65276231Y-66252867D01*
X65342552Y-66208552D01*
X65386867Y-66142231D01*
X65398500Y-66083748D01*
X65398500Y-64845517D01*
X80604500Y-64845517D01*
X80619353Y-64939303D01*
X80676945Y-65052335D01*
X80676950Y-65052342D01*
X80766657Y-65142049D01*
X80766664Y-65142054D01*
X80879691Y-65199644D01*
X80879692Y-65199644D01*
X80879696Y-65199646D01*
X80973481Y-65214500D01*
X81586518Y-65214499D01*
X81680304Y-65199646D01*
X81741387Y-65168522D01*
X81793335Y-65142054D01*
X81793337Y-65142052D01*
X81793342Y-65142050D01*
X81883050Y-65052342D01*
X81883054Y-65052335D01*
X81940644Y-64939309D01*
X81940644Y-64939307D01*
X81940646Y-64939304D01*
X81955500Y-64845519D01*
X81955499Y-64382482D01*
X81940646Y-64288696D01*
X81930887Y-64269543D01*
X81883054Y-64175664D01*
X81883049Y-64175657D01*
X81793345Y-64085953D01*
X81793342Y-64085950D01*
X81793340Y-64085949D01*
X81793339Y-64085948D01*
X81757254Y-64067562D01*
X81732898Y-64039044D01*
X81730500Y-64023903D01*
X81730500Y-62566096D01*
X81744852Y-62531448D01*
X81757250Y-62522439D01*
X81793342Y-62504050D01*
X81810540Y-62486852D01*
X81845188Y-62472500D01*
X85765279Y-62472500D01*
X85799927Y-62486852D01*
X85808490Y-62498398D01*
X85867315Y-62608450D01*
X85998590Y-62768410D01*
X86158550Y-62899685D01*
X86341046Y-62997232D01*
X86539066Y-63057300D01*
X86745000Y-63077583D01*
X86950934Y-63057300D01*
X87148954Y-62997232D01*
X87331450Y-62899685D01*
X87491410Y-62768410D01*
X87622685Y-62608450D01*
X87720232Y-62425954D01*
X87780300Y-62227934D01*
X87800583Y-62022000D01*
X87780300Y-61816066D01*
X87720232Y-61618046D01*
X87622685Y-61435550D01*
X87491410Y-61275590D01*
X87331450Y-61144315D01*
X87148954Y-61046768D01*
X86950934Y-60986700D01*
X86745000Y-60966417D01*
X86539065Y-60986700D01*
X86539064Y-60986700D01*
X86341043Y-61046769D01*
X86158548Y-61144316D01*
X85998590Y-61275590D01*
X85867316Y-61435548D01*
X85867315Y-61435550D01*
X85808491Y-61545599D01*
X85779503Y-61569390D01*
X85765279Y-61571500D01*
X81930321Y-61571500D01*
X81895673Y-61557148D01*
X81886662Y-61544746D01*
X81883052Y-61537661D01*
X81883048Y-61537656D01*
X81793342Y-61447950D01*
X81793335Y-61447945D01*
X81680308Y-61390355D01*
X81680305Y-61390354D01*
X81680304Y-61390354D01*
X81586519Y-61375500D01*
X81586517Y-61375500D01*
X80973482Y-61375500D01*
X80879696Y-61390353D01*
X80766664Y-61447945D01*
X80766657Y-61447950D01*
X80676950Y-61537657D01*
X80676945Y-61537664D01*
X80619355Y-61650690D01*
X80619355Y-61650692D01*
X80619354Y-61650694D01*
X80619354Y-61650696D01*
X80604500Y-61744481D01*
X80604500Y-61744482D01*
X80604500Y-62207517D01*
X80619353Y-62301303D01*
X80676945Y-62414335D01*
X80676950Y-62414342D01*
X80766658Y-62504050D01*
X80802746Y-62522437D01*
X80827101Y-62550953D01*
X80829500Y-62566096D01*
X80829500Y-64023903D01*
X80815148Y-64058551D01*
X80802746Y-64067562D01*
X80766660Y-64085948D01*
X80766654Y-64085953D01*
X80676950Y-64175657D01*
X80676945Y-64175664D01*
X80619355Y-64288690D01*
X80619355Y-64288692D01*
X80604500Y-64382482D01*
X80604500Y-64845517D01*
X65398500Y-64845517D01*
X65398500Y-64544252D01*
X65386867Y-64485769D01*
X65342587Y-64419500D01*
X65342552Y-64419447D01*
X65287229Y-64382482D01*
X65276231Y-64375133D01*
X65217748Y-64363500D01*
X64128252Y-64363500D01*
X64069769Y-64375133D01*
X64003447Y-64419447D01*
X63959132Y-64485770D01*
X63954892Y-64507087D01*
X63934057Y-64538269D01*
X63897274Y-64545585D01*
X63872186Y-64532175D01*
X63865478Y-64525467D01*
X63790617Y-64475447D01*
X63746653Y-64446071D01*
X63682506Y-64419500D01*
X63614618Y-64391380D01*
X63614611Y-64391378D01*
X63474460Y-64363500D01*
X63474455Y-64363500D01*
X63331545Y-64363500D01*
X63331539Y-64363500D01*
X63191388Y-64391378D01*
X63191381Y-64391380D01*
X63059348Y-64446070D01*
X62940521Y-64525467D01*
X62839467Y-64626521D01*
X62760070Y-64745348D01*
X62705380Y-64877381D01*
X62705378Y-64877388D01*
X62677500Y-65017539D01*
X62677500Y-65610460D01*
X54255000Y-65610460D01*
X54255000Y-64152008D01*
X54254485Y-64138625D01*
X54227903Y-63448452D01*
X54227902Y-63448451D01*
X54004719Y-63315464D01*
X54002023Y-63313735D01*
X53574213Y-63019326D01*
X53571290Y-63017150D01*
X53166786Y-62691767D01*
X53164041Y-62689385D01*
X53018788Y-62553500D01*
X52784949Y-62334741D01*
X52782375Y-62332146D01*
X52430804Y-61950217D01*
X52428442Y-61947452D01*
X52106328Y-61540339D01*
X52104170Y-61537391D01*
X52057236Y-61468000D01*
X59592318Y-61468000D01*
X59612955Y-61624761D01*
X59673461Y-61770836D01*
X59673464Y-61770841D01*
X59708165Y-61816065D01*
X59769718Y-61896282D01*
X59895159Y-61992536D01*
X59895161Y-61992536D01*
X59895163Y-61992538D01*
X59966291Y-62022000D01*
X60041238Y-62053044D01*
X60198000Y-62073682D01*
X60354762Y-62053044D01*
X60500841Y-61992536D01*
X60626282Y-61896282D01*
X60722536Y-61770841D01*
X60783044Y-61624762D01*
X60796747Y-61520673D01*
X60810679Y-61492423D01*
X61512251Y-60790852D01*
X61546899Y-60776500D01*
X80668812Y-60776500D01*
X80703460Y-60790852D01*
X80766657Y-60854049D01*
X80766664Y-60854054D01*
X80879691Y-60911644D01*
X80879692Y-60911644D01*
X80879696Y-60911646D01*
X80973481Y-60926500D01*
X81586518Y-60926499D01*
X81680304Y-60911646D01*
X81763507Y-60869252D01*
X81793335Y-60854054D01*
X81793337Y-60854052D01*
X81793342Y-60854050D01*
X81883050Y-60764342D01*
X81883054Y-60764335D01*
X81940644Y-60651309D01*
X81940644Y-60651307D01*
X81940646Y-60651304D01*
X81955500Y-60557519D01*
X81955499Y-60094482D01*
X81940646Y-60000696D01*
X81922719Y-59965512D01*
X81883054Y-59887664D01*
X81883049Y-59887657D01*
X81793342Y-59797950D01*
X81793335Y-59797945D01*
X81680308Y-59740355D01*
X81680305Y-59740354D01*
X81680304Y-59740354D01*
X81586519Y-59725500D01*
X81586517Y-59725500D01*
X80973482Y-59725500D01*
X80879696Y-59740353D01*
X80766664Y-59797945D01*
X80766657Y-59797950D01*
X80703460Y-59861148D01*
X80668812Y-59875500D01*
X61280688Y-59875500D01*
X61190326Y-59899713D01*
X61166115Y-59906199D01*
X61166110Y-59906201D01*
X61063385Y-59965511D01*
X61063384Y-59965512D01*
X60173576Y-60855319D01*
X60145324Y-60869252D01*
X60041238Y-60882955D01*
X59895163Y-60943461D01*
X59895158Y-60943464D01*
X59769718Y-61039717D01*
X59769717Y-61039718D01*
X59673464Y-61165158D01*
X59673461Y-61165163D01*
X59612955Y-61311238D01*
X59592318Y-61468000D01*
X52057236Y-61468000D01*
X52043675Y-61447950D01*
X51813341Y-61107405D01*
X51811411Y-61104309D01*
X51778464Y-61046769D01*
X51589567Y-60716866D01*
X51553469Y-60653822D01*
X51551771Y-60650582D01*
X51328152Y-60182103D01*
X51326701Y-60178745D01*
X51138655Y-59694887D01*
X51137469Y-59691462D01*
X51073591Y-59482000D01*
X85689417Y-59482000D01*
X85709700Y-59687934D01*
X85709700Y-59687935D01*
X85728387Y-59749538D01*
X85769768Y-59885954D01*
X85867315Y-60068450D01*
X85998590Y-60228410D01*
X86158550Y-60359685D01*
X86341046Y-60457232D01*
X86539066Y-60517300D01*
X86745000Y-60537583D01*
X86950934Y-60517300D01*
X87148954Y-60457232D01*
X87331450Y-60359685D01*
X87491410Y-60228410D01*
X87622685Y-60068450D01*
X87720232Y-59885954D01*
X87780300Y-59687934D01*
X87800583Y-59482000D01*
X87780300Y-59276066D01*
X87720232Y-59078046D01*
X87622685Y-58895550D01*
X87491410Y-58735590D01*
X87331450Y-58604315D01*
X87148954Y-58506768D01*
X86950934Y-58446700D01*
X86745000Y-58426417D01*
X86539065Y-58446700D01*
X86539064Y-58446700D01*
X86341043Y-58506769D01*
X86158548Y-58604316D01*
X85998590Y-58735590D01*
X85867316Y-58895548D01*
X85769769Y-59078043D01*
X85709700Y-59276064D01*
X85709700Y-59276065D01*
X85689417Y-59481999D01*
X85689417Y-59482000D01*
X51073591Y-59482000D01*
X50986042Y-59194916D01*
X50985108Y-59191386D01*
X50918035Y-58893309D01*
X50871144Y-58684921D01*
X50870480Y-58681353D01*
X50794620Y-58167804D01*
X50794222Y-58164174D01*
X50787926Y-58076866D01*
X50756884Y-57646395D01*
X50756758Y-57642787D01*
X50758153Y-57123645D01*
X50758300Y-57119993D01*
X50768531Y-56988000D01*
X55449785Y-56988000D01*
X55468602Y-57191079D01*
X55468603Y-57191085D01*
X55524417Y-57387248D01*
X55524420Y-57387255D01*
X55615325Y-57569818D01*
X55615328Y-57569822D01*
X55738233Y-57732576D01*
X55738236Y-57732579D01*
X55888954Y-57869977D01*
X55888955Y-57869978D01*
X55888959Y-57869981D01*
X56062363Y-57977348D01*
X56252544Y-58051024D01*
X56453024Y-58088500D01*
X56453026Y-58088500D01*
X56656974Y-58088500D01*
X56656976Y-58088500D01*
X56857456Y-58051024D01*
X57047637Y-57977348D01*
X57160045Y-57907748D01*
X57994500Y-57907748D01*
X58006133Y-57966231D01*
X58013562Y-57977349D01*
X58050447Y-58032552D01*
X58077012Y-58050301D01*
X58116769Y-58076867D01*
X58175252Y-58088500D01*
X58175255Y-58088500D01*
X60014745Y-58088500D01*
X60014748Y-58088500D01*
X60073231Y-58076867D01*
X60139552Y-58032552D01*
X60183867Y-57966231D01*
X60195500Y-57907748D01*
X60195500Y-56942000D01*
X85689417Y-56942000D01*
X85709700Y-57147934D01*
X85709700Y-57147935D01*
X85735855Y-57234158D01*
X85769768Y-57345954D01*
X85867315Y-57528450D01*
X85998590Y-57688410D01*
X86158550Y-57819685D01*
X86341046Y-57917232D01*
X86539066Y-57977300D01*
X86745000Y-57997583D01*
X86950934Y-57977300D01*
X87148954Y-57917232D01*
X87331450Y-57819685D01*
X87491410Y-57688410D01*
X87622685Y-57528450D01*
X87720232Y-57345954D01*
X87780300Y-57147934D01*
X87800583Y-56942000D01*
X87780300Y-56736066D01*
X87720232Y-56538046D01*
X87622685Y-56355550D01*
X87491410Y-56195590D01*
X87331450Y-56064315D01*
X87148954Y-55966768D01*
X86950934Y-55906700D01*
X86745000Y-55886417D01*
X86539065Y-55906700D01*
X86539064Y-55906700D01*
X86341043Y-55966769D01*
X86158548Y-56064316D01*
X85998590Y-56195590D01*
X85867316Y-56355548D01*
X85769769Y-56538043D01*
X85709700Y-56736064D01*
X85709700Y-56736065D01*
X85689417Y-56941999D01*
X85689417Y-56942000D01*
X60195500Y-56942000D01*
X60195500Y-56068252D01*
X60183867Y-56009769D01*
X60154775Y-55966230D01*
X60139552Y-55943447D01*
X60099795Y-55916882D01*
X60073231Y-55899133D01*
X60014748Y-55887500D01*
X58175252Y-55887500D01*
X58116769Y-55899133D01*
X58050447Y-55943447D01*
X58013561Y-55998652D01*
X58006133Y-56009769D01*
X57994500Y-56068252D01*
X57994500Y-57907748D01*
X57160045Y-57907748D01*
X57221041Y-57869981D01*
X57371764Y-57732579D01*
X57494673Y-57569821D01*
X57585582Y-57387250D01*
X57641397Y-57191083D01*
X57660215Y-56988000D01*
X57641397Y-56784917D01*
X57585582Y-56588750D01*
X57494673Y-56406179D01*
X57371764Y-56243421D01*
X57319296Y-56195590D01*
X57221045Y-56106022D01*
X57221042Y-56106020D01*
X57221041Y-56106019D01*
X57047637Y-55998652D01*
X57047634Y-55998651D01*
X57047633Y-55998650D01*
X56857462Y-55924978D01*
X56857460Y-55924977D01*
X56857456Y-55924976D01*
X56656976Y-55887500D01*
X56453024Y-55887500D01*
X56252544Y-55924976D01*
X56252540Y-55924977D01*
X56252537Y-55924978D01*
X56062366Y-55998650D01*
X55888954Y-56106022D01*
X55738236Y-56243420D01*
X55738233Y-56243423D01*
X55615328Y-56406177D01*
X55615325Y-56406181D01*
X55524420Y-56588744D01*
X55524417Y-56588751D01*
X55468603Y-56784914D01*
X55468602Y-56784920D01*
X55449785Y-56988000D01*
X50768531Y-56988000D01*
X50772513Y-56936630D01*
X50798417Y-56602433D01*
X50798830Y-56598848D01*
X50877455Y-56085663D01*
X50878132Y-56082132D01*
X50994814Y-55576283D01*
X50995766Y-55572763D01*
X51149859Y-55077037D01*
X51151075Y-55073587D01*
X51183683Y-54991000D01*
X51341713Y-54590754D01*
X51343169Y-54587432D01*
X51432907Y-54402000D01*
X85689417Y-54402000D01*
X85709700Y-54607934D01*
X85709700Y-54607935D01*
X85716548Y-54630510D01*
X85769768Y-54805954D01*
X85867315Y-54988450D01*
X85998590Y-55148410D01*
X86158550Y-55279685D01*
X86341046Y-55377232D01*
X86539066Y-55437300D01*
X86745000Y-55457583D01*
X86950934Y-55437300D01*
X87148954Y-55377232D01*
X87331450Y-55279685D01*
X87491410Y-55148410D01*
X87622685Y-54988450D01*
X87720232Y-54805954D01*
X87780300Y-54607934D01*
X87800583Y-54402000D01*
X87780300Y-54196066D01*
X87720232Y-53998046D01*
X87622685Y-53815550D01*
X87491410Y-53655590D01*
X87331450Y-53524315D01*
X87148954Y-53426768D01*
X86950934Y-53366700D01*
X86745000Y-53346417D01*
X86539065Y-53366700D01*
X86539064Y-53366700D01*
X86341043Y-53426769D01*
X86158548Y-53524316D01*
X85998590Y-53655590D01*
X85867316Y-53815548D01*
X85769769Y-53998043D01*
X85709700Y-54196064D01*
X85709700Y-54196065D01*
X85689417Y-54401999D01*
X85689417Y-54402000D01*
X51432907Y-54402000D01*
X51569314Y-54120134D01*
X51571027Y-54116911D01*
X51831392Y-53667802D01*
X51833308Y-53664762D01*
X52126478Y-53236294D01*
X52128626Y-53233394D01*
X52452931Y-52828005D01*
X52455299Y-52825262D01*
X52808941Y-52445201D01*
X52811518Y-52442633D01*
X53192500Y-52090039D01*
X53195260Y-52087668D01*
X53601512Y-51764457D01*
X53604434Y-51762305D01*
X54033672Y-51470299D01*
X54036723Y-51468386D01*
X54486553Y-51209212D01*
X54489750Y-51207526D01*
X54957654Y-50982638D01*
X54960983Y-50981188D01*
X55444363Y-50791832D01*
X55447772Y-50790642D01*
X55943915Y-50637880D01*
X55947420Y-50636941D01*
X56453579Y-50521619D01*
X56457167Y-50520941D01*
X56970527Y-50443698D01*
X56974127Y-50443294D01*
X57492016Y-50404550D01*
X57495204Y-50404416D01*
X57754785Y-50402002D01*
X57755241Y-50402000D01*
X143754759Y-50402000D01*
X143755215Y-50402002D01*
G37*
%TD.AperFunction*%
%TD*%
M02*
